<?xml version="1.0" encoding="utf-8"?>
<!-- Generator: Adobe Illustrator 21.0.2, SVG Export Plug-In . SVG Version: 6.00 Build 0)  -->
<svg version="1.1" id="Layer_1" xmlns="http://www.w3.org/2000/svg" xmlns:xlink="http://www.w3.org/1999/xlink" x="0px" y="0px"
	 viewBox="0 0 302.34 263.97" enable-background="new 0 0 302.34 263.97" xml:space="preserve">
<g>
	<path fill-rule="evenodd" clip-rule="evenodd" fill="#C8FF00" d="M129.32,98.99l-10.16,26.93h11.98c13.7,0,34.47-14.52,38.16-26.68
		v0L129.32,98.99z"/>
	<linearGradient id="SVGID_1_" gradientUnits="userSpaceOnUse" x1="184.8436" y1="121.087" x2="343.2414" y2="133.1682">
		<stop  offset="0" style="stop-color:#C8FF00"/>
		<stop  offset="0.1018" style="stop-color:#AFC52D"/>
		<stop  offset="0.2078" style="stop-color:#999056"/>
		<stop  offset="0.3118" style="stop-color:#866478"/>
		<stop  offset="0.4115" style="stop-color:#784293"/>
		<stop  offset="0.5057" style="stop-color:#6D2AA6"/>
		<stop  offset="0.5922" style="stop-color:#671BB1"/>
		<stop  offset="0.6638" style="stop-color:#6516B5"/>
	</linearGradient>
	<polygon fill-rule="evenodd" clip-rule="evenodd" fill="url(#SVGID_1_)" points="290.02,131.77 222.25,131.77 227.2,121.59 
		294.04,121.59 	"/>
	<path fill-rule="evenodd" clip-rule="evenodd" fill="none" stroke="#C8FF00" stroke-width="5" stroke-miterlimit="10" d="
		M185.79,110.29l11.89-8.19c1.14-0.79,2.5-1.21,3.89-1.21h64.31c1.51,0,2.54,1.52,1.99,2.92l-2.88,7.37"/>
	<linearGradient id="SVGID_2_" gradientUnits="userSpaceOnUse" x1="277.0739" y1="160.5546" x2="270.1385" y2="192.7711">
		<stop  offset="0" style="stop-color:#C8FF00"/>
		<stop  offset="0.1018" style="stop-color:#AFC52D"/>
		<stop  offset="0.2078" style="stop-color:#999056"/>
		<stop  offset="0.3118" style="stop-color:#866478"/>
		<stop  offset="0.4115" style="stop-color:#784293"/>
		<stop  offset="0.5057" style="stop-color:#6D2AA6"/>
		<stop  offset="0.5922" style="stop-color:#671BB1"/>
		<stop  offset="0.6638" style="stop-color:#6516B5"/>
	</linearGradient>
	<path fill-rule="evenodd" clip-rule="evenodd" fill="url(#SVGID_2_)" d="M252.42,186.63h27.68l20.28-33.7l-2.61-1.5
		c-6.17-3.53-13.99-1.97-18.33,3.66l-4.74,6.58c-4.68,5.76-9.92,6.94-18.68,6.94C250.58,168.61,252.42,186.63,252.42,186.63z"/>
	<linearGradient id="SVGID_3_" gradientUnits="userSpaceOnUse" x1="300.3038" y1="149.5916" x2="276.1414" y2="190.6453">
		<stop  offset="0" style="stop-color:#C8FF00"/>
		<stop  offset="0.1018" style="stop-color:#AFC52D"/>
		<stop  offset="0.2078" style="stop-color:#999056"/>
		<stop  offset="0.3118" style="stop-color:#866478"/>
		<stop  offset="0.4115" style="stop-color:#784293"/>
		<stop  offset="0.5057" style="stop-color:#6D2AA6"/>
		<stop  offset="0.5922" style="stop-color:#671BB1"/>
		<stop  offset="0.6638" style="stop-color:#6516B5"/>
	</linearGradient>
	<path fill-rule="evenodd" clip-rule="evenodd" fill="url(#SVGID_3_)" d="M296.5,150.02l-22.43,37.79c-0.9,1.52-0.38,3.48,1.16,4.34
		l0,0c1.49,0.83,3.37,0.33,4.24-1.14l22.43-37.79c0.89-1.5,0.39-3.44-1.13-4.32l0,0C299.29,148.05,297.38,148.54,296.5,150.02z"/>
	<linearGradient id="SVGID_4_" gradientUnits="userSpaceOnUse" x1="169.9138" y1="162.9773" x2="169.9138" y2="186.8064">
		<stop  offset="0" style="stop-color:#C8FF00"/>
		<stop  offset="0.1018" style="stop-color:#AFC52D"/>
		<stop  offset="0.2078" style="stop-color:#999056"/>
		<stop  offset="0.3118" style="stop-color:#866478"/>
		<stop  offset="0.4115" style="stop-color:#784293"/>
		<stop  offset="0.5057" style="stop-color:#6D2AA6"/>
		<stop  offset="0.5922" style="stop-color:#671BB1"/>
		<stop  offset="0.6638" style="stop-color:#6516B5"/>
	</linearGradient>
	<path fill-rule="evenodd" clip-rule="evenodd" fill="url(#SVGID_4_)" d="M266.55,162.6l-180.97-0.03c-6.77,0-12.3,5.54-12.3,12.3
		c0,6.77,5.54,12.3,12.3,12.3l167.55-0.03L266.55,162.6z"/>
	
		<linearGradient id="SVGID_5_" gradientUnits="userSpaceOnUse" x1="3316.6631" y1="17.5542" x2="3297.8848" y2="42.5921" gradientTransform="matrix(0.896 -0.2559 0.0185 0.8381 -2816.2834 950.8456)">
		<stop  offset="0" style="stop-color:#C8FF00"/>
		<stop  offset="0.1018" style="stop-color:#AFC52D"/>
		<stop  offset="0.2078" style="stop-color:#999056"/>
		<stop  offset="0.3118" style="stop-color:#866478"/>
		<stop  offset="0.4115" style="stop-color:#784293"/>
		<stop  offset="0.5057" style="stop-color:#6D2AA6"/>
		<stop  offset="0.5922" style="stop-color:#671BB1"/>
		<stop  offset="0.6638" style="stop-color:#6516B5"/>
	</linearGradient>
	<path fill-rule="evenodd" clip-rule="evenodd" fill="url(#SVGID_5_)" d="M124.84,101.23l-1.05,0.97
		c-3.65,3.36-3.88,9.09-0.52,12.74l36.23,39.34c3.36,3.65,9.09,3.88,12.74,0.52l1.05-0.97c3.65-3.36,3.88-9.09,0.52-12.74
		l-36.23-39.34C134.22,98.11,128.48,97.87,124.84,101.23z"/>
	
		<linearGradient id="SVGID_6_" gradientUnits="userSpaceOnUse" x1="3165.5688" y1="-1016.8091" x2="3186.2322" y2="-1014.9494" gradientTransform="matrix(-1.400000e-14 -1 -1 1.400000e-14 -827.2543 3324.0825)">
		<stop  offset="0" style="stop-color:#C8FF00"/>
		<stop  offset="0.1018" style="stop-color:#AFC52D"/>
		<stop  offset="0.2078" style="stop-color:#999056"/>
		<stop  offset="0.3118" style="stop-color:#866478"/>
		<stop  offset="0.4115" style="stop-color:#784293"/>
		<stop  offset="0.5057" style="stop-color:#6D2AA6"/>
		<stop  offset="0.5922" style="stop-color:#671BB1"/>
		<stop  offset="0.6638" style="stop-color:#6516B5"/>
	</linearGradient>
	<path fill-rule="evenodd" clip-rule="evenodd" fill="url(#SVGID_6_)" d="M210.46,157.19l8.05-19.46H167.5
		c-5.35,0-9.73,4.38-9.73,9.73v0c0,5.35,4.38,9.73,9.73,9.73H210.46z"/>
	<radialGradient id="SVGID_7_" cx="102.5748" cy="102.5748" r="93.0119" gradientUnits="userSpaceOnUse">
		<stop  offset="0" style="stop-color:#C8FF00"/>
		<stop  offset="1" style="stop-color:#C8FF00;stop-opacity:0"/>
	</radialGradient>
	<circle fill-rule="evenodd" clip-rule="evenodd" fill="url(#SVGID_7_)" cx="102.57" cy="102.57" r="102.57"/>
	
		<linearGradient id="SVGID_8_" gradientUnits="userSpaceOnUse" x1="670.0513" y1="3925.9558" x2="645.4415" y2="3925.9558" gradientTransform="matrix(-0.6564 0.7544 0.604 0.5256 -1824.0172 -2354.1711)">
		<stop  offset="0" style="stop-color:#C8FF00"/>
		<stop  offset="0.1018" style="stop-color:#AFC52D"/>
		<stop  offset="0.2078" style="stop-color:#999056"/>
		<stop  offset="0.3118" style="stop-color:#866478"/>
		<stop  offset="0.4115" style="stop-color:#784293"/>
		<stop  offset="0.5057" style="stop-color:#6D2AA6"/>
		<stop  offset="0.5922" style="stop-color:#671BB1"/>
		<stop  offset="0.6638" style="stop-color:#6516B5"/>
	</linearGradient>
	<path fill-rule="evenodd" clip-rule="evenodd" fill="url(#SVGID_8_)" d="M162.68,247.54l1.19-1.37c4.12-4.73,3.61-11.97-1.12-16.08
		l-78.16-68.01c-4.73-4.12-11.97-3.61-16.08,1.12l-1.19,1.37c-4.12,4.73-3.61,11.97,1.12,16.08l78.16,68.01
		C151.33,252.78,158.56,252.27,162.68,247.54z"/>
	<g>
		
			<linearGradient id="SVGID_9_" gradientUnits="userSpaceOnUse" x1="1599.9822" y1="678.782" x2="1626.698" y2="720.7641" gradientTransform="matrix(-0.9923 0.1235 0.1235 0.9923 1550.8152 -654.0869)">
			<stop  offset="0" style="stop-color:#C8FF00"/>
			<stop  offset="0.1018" style="stop-color:#AFC52D"/>
			<stop  offset="0.2078" style="stop-color:#999056"/>
			<stop  offset="0.3118" style="stop-color:#866478"/>
			<stop  offset="0.4115" style="stop-color:#784293"/>
			<stop  offset="0.5057" style="stop-color:#6D2AA6"/>
			<stop  offset="0.5922" style="stop-color:#671BB1"/>
			<stop  offset="0.6638" style="stop-color:#6516B5"/>
		</linearGradient>
		<path fill-rule="evenodd" clip-rule="evenodd" fill="url(#SVGID_9_)" d="M65.4,225.82H24.3l-20.28,33.7l2.61,1.5
			c6.17,3.53,13.99,1.97,18.33-3.66l4.74-6.58c4.68-5.76,9.92-6.94,18.68-6.94C53.83,243.84,65.4,225.82,65.4,225.82z"/>
		
			<linearGradient id="SVGID_10_" gradientUnits="userSpaceOnUse" x1="1620.6742" y1="682.4062" x2="1648.1282" y2="719.0117" gradientTransform="matrix(-0.9923 0.1235 0.1235 0.9923 1550.8152 -654.0869)">
			<stop  offset="0" style="stop-color:#C8FF00"/>
			<stop  offset="0.1018" style="stop-color:#AFC52D"/>
			<stop  offset="0.2078" style="stop-color:#999056"/>
			<stop  offset="0.3118" style="stop-color:#866478"/>
			<stop  offset="0.4115" style="stop-color:#784293"/>
			<stop  offset="0.5057" style="stop-color:#6D2AA6"/>
			<stop  offset="0.5922" style="stop-color:#671BB1"/>
			<stop  offset="0.6638" style="stop-color:#6516B5"/>
		</linearGradient>
		<path fill-rule="evenodd" clip-rule="evenodd" fill="url(#SVGID_10_)" d="M7.84,262.44l20.67-35.81c1.18-2.04-0.29-4.59-2.65-4.59
			h0c-1.09,0-2.1,0.58-2.64,1.52L2.42,259.3c-0.85,1.46-0.35,3.34,1.11,4.19l0.13,0.08C5.12,264.41,7,263.91,7.84,262.44z"/>
		
			<linearGradient id="SVGID_11_" gradientUnits="userSpaceOnUse" x1="4656.5645" y1="2245.645" x2="4671.6104" y2="2256.5334" gradientTransform="matrix(-0.4182 0.9084 0.9084 0.4182 8.0547 -4944.3774)">
			<stop  offset="0" style="stop-color:#C8FF00"/>
			<stop  offset="0.1018" style="stop-color:#AFC52D"/>
			<stop  offset="0.2078" style="stop-color:#999056"/>
			<stop  offset="0.3118" style="stop-color:#866478"/>
			<stop  offset="0.4115" style="stop-color:#784293"/>
			<stop  offset="0.5057" style="stop-color:#6D2AA6"/>
			<stop  offset="0.5922" style="stop-color:#671BB1"/>
			<stop  offset="0.6638" style="stop-color:#6516B5"/>
		</linearGradient>
		<path fill-rule="evenodd" clip-rule="evenodd" fill="url(#SVGID_11_)" d="M165.78,238.6L165.78,238.6
			c0.03-6.77-5.48-12.33-12.24-12.37l-96.82-0.76l-13.55,24.61l110.24,0.76C160.18,250.88,165.74,245.37,165.78,238.6z"/>
	</g>
	
		<linearGradient id="SVGID_12_" gradientUnits="userSpaceOnUse" x1="4473.7915" y1="2585.1323" x2="4512.1802" y2="2639.7698" gradientTransform="matrix(-0.8533 0.7595 0.5858 0.6505 2407.0266 -4980.52)">
		<stop  offset="0" style="stop-color:#C8FF00"/>
		<stop  offset="0.0355" style="stop-color:#C1EE0D"/>
		<stop  offset="0.2015" style="stop-color:#A0A248"/>
		<stop  offset="0.3497" style="stop-color:#876677"/>
		<stop  offset="0.4748" style="stop-color:#753B99"/>
		<stop  offset="0.5719" style="stop-color:#6920AD"/>
		<stop  offset="0.6292" style="stop-color:#6516B5"/>
	</linearGradient>
	<path fill-rule="evenodd" clip-rule="evenodd" fill="url(#SVGID_12_)" d="M85.76,188.19L85.76,188.19
		c-9.05,0.4-16.62-3.83-20.08-10.85c-2.18-4.43-2.35-9.58-0.77-14.26l16.69-49.58c0.36-1.08,0.61-2.19,0.8-3.32
		c1.52-9.26,10.84-17.53,19.95-17.33l29.96,0.98c9.2,0.2,13.69,9,9.42,18.48l-25.19,53.55C110.89,178.38,98.13,187.63,85.76,188.19z
		"/>
	<g>
		<polygon fill-rule="evenodd" clip-rule="evenodd" fill="#C8FF00" points="170.24,77.78 175.34,88.77 167.34,89.75 		"/>
		
			<linearGradient id="SVGID_13_" gradientUnits="userSpaceOnUse" x1="12015.1338" y1="2687.8909" x2="11980.0557" y2="2688.1521" gradientTransform="matrix(0.9775 -0.211 0.211 0.9775 -12141.0107 -11.1444)">
			<stop  offset="0" style="stop-color:#C8FF00"/>
			<stop  offset="0.4706" style="stop-color:#6516B5"/>
		</linearGradient>
		<circle fill-rule="evenodd" clip-rule="evenodd" fill="url(#SVGID_13_)" cx="156.74" cy="83.82" r="14.85"/>
		<path fill-rule="evenodd" clip-rule="evenodd" fill="#6516B5" d="M164.27,81.59l-0.16,0.03c-0.54,0.12-1.07-0.23-1.19-0.77
			l-0.53-2.45c-0.12-0.54,0.23-1.07,0.77-1.19l0.16-0.03c0.54-0.12,1.07,0.23,1.19,0.77l0.53,2.45
			C165.15,80.94,164.81,81.48,164.27,81.59z"/>
		<path fill-rule="evenodd" clip-rule="evenodd" fill="#C8FF00" d="M100.92,57.16h24.35c16.65,0,34.23,1.12,42.54,15.55l0,0H95.07
			L100.92,57.16z"/>
		<polygon fill-rule="evenodd" clip-rule="evenodd" fill="#C8FF00" points="149.94,75.39 143.56,90.83 135.84,74.72 		"/>
		<polygon fill-rule="evenodd" clip-rule="evenodd" fill="#6516B5" points="169.57,76.25 136.68,76.25 134.67,72.23 167.55,72.23 		
			"/>
		<path fill="#6516B5" d="M98.72,82.94l1.34-4.03c9.66,0,13.71-1.89,20.22-3.72c5.49-1.54,10.68-3,16.86-3v4.03
			c-5.62,0-10.33,1.32-15.77,2.85C114.91,80.89,108.93,82.94,98.72,82.94z"/>
	</g>
	<linearGradient id="SVGID_14_" gradientUnits="userSpaceOnUse" x1="68.8322" y1="112.6761" x2="81.7248" y2="144.3421">
		<stop  offset="0" style="stop-color:#C8FF00"/>
		<stop  offset="0.1018" style="stop-color:#AFC52D"/>
		<stop  offset="0.2078" style="stop-color:#999056"/>
		<stop  offset="0.3118" style="stop-color:#866478"/>
		<stop  offset="0.4115" style="stop-color:#784293"/>
		<stop  offset="0.5057" style="stop-color:#6D2AA6"/>
		<stop  offset="0.5922" style="stop-color:#671BB1"/>
		<stop  offset="0.6638" style="stop-color:#6516B5"/>
	</linearGradient>
	<path fill-rule="evenodd" clip-rule="evenodd" fill="url(#SVGID_14_)" d="M100.75,101.87l-0.98-1.05
		c-3.39-3.62-9.13-3.8-12.74-0.41L48.01,137c-3.62,3.39-3.8,9.13-0.41,12.74l0.98,1.05c3.39,3.62,9.13,3.8,12.74,0.41l39.01-36.58
		C103.96,111.22,104.14,105.49,100.75,101.87z"/>
	<linearGradient id="SVGID_15_" gradientUnits="userSpaceOnUse" x1="221.3384" y1="145.3682" x2="270.3344" y2="189.4981">
		<stop  offset="0" style="stop-color:#C8FF00"/>
		<stop  offset="0.1018" style="stop-color:#AFC52D"/>
		<stop  offset="0.2078" style="stop-color:#999056"/>
		<stop  offset="0.3118" style="stop-color:#866478"/>
		<stop  offset="0.4115" style="stop-color:#784293"/>
		<stop  offset="0.5057" style="stop-color:#6D2AA6"/>
		<stop  offset="0.5922" style="stop-color:#671BB1"/>
		<stop  offset="0.6638" style="stop-color:#6516B5"/>
	</linearGradient>
	<polygon fill-rule="evenodd" clip-rule="evenodd" fill="url(#SVGID_15_)" points="273.94,133.56 104.13,133.56 116.54,108.05 
		284,108.05 	"/>
	<polygon fill-rule="evenodd" clip-rule="evenodd" fill="#C8FF00" points="221.58,159.06 209.5,159.06 221.14,131.77 233.22,131.77 
			"/>
	<linearGradient id="SVGID_16_" gradientUnits="userSpaceOnUse" x1="183.5668" y1="135.1911" x2="315.0991" y2="145.2233">
		<stop  offset="0" style="stop-color:#C8FF00"/>
		<stop  offset="0.1018" style="stop-color:#AFC52D"/>
		<stop  offset="0.2078" style="stop-color:#999056"/>
		<stop  offset="0.3118" style="stop-color:#866478"/>
		<stop  offset="0.4115" style="stop-color:#784293"/>
		<stop  offset="0.5057" style="stop-color:#6D2AA6"/>
		<stop  offset="0.5922" style="stop-color:#671BB1"/>
		<stop  offset="0.6638" style="stop-color:#6516B5"/>
	</linearGradient>
	<polygon fill-rule="evenodd" clip-rule="evenodd" fill="url(#SVGID_16_)" points="123.59,153.69 113.52,153.69 133.21,108.28 
		143.28,108.28 	"/>
	<linearGradient id="SVGID_17_" gradientUnits="userSpaceOnUse" x1="227.624" y1="147.4283" x2="207.8769" y2="147.4283">
		<stop  offset="0" style="stop-color:#C8FF00"/>
		<stop  offset="0.1018" style="stop-color:#AFC52D"/>
		<stop  offset="0.2078" style="stop-color:#999056"/>
		<stop  offset="0.3118" style="stop-color:#866478"/>
		<stop  offset="0.4115" style="stop-color:#784293"/>
		<stop  offset="0.5057" style="stop-color:#6D2AA6"/>
		<stop  offset="0.5922" style="stop-color:#671BB1"/>
		<stop  offset="0.6638" style="stop-color:#6516B5"/>
	</linearGradient>
	<path fill-rule="evenodd" clip-rule="evenodd" fill="url(#SVGID_17_)" d="M232.04,144.41l-5.37,12.75h-8.16
		c-1.31,0-2.18-1.35-1.64-2.55l4.38-9.65c0.31-0.68,0.99-1.1,1.73-1.06C225.72,144.05,232.04,144.41,232.04,144.41z M219.92,137.7
		h-9.02v5.31h9.02c1.05,0,2-0.62,2.43-1.58l0,0C223.12,139.67,221.84,137.7,219.92,137.7z"/>
	
		<linearGradient id="SVGID_18_" gradientUnits="userSpaceOnUse" x1="-1584.9099" y1="31.5282" x2="-1563.6057" y2="33.4456" gradientTransform="matrix(-3.000000e-15 -1 -1 3.000000e-15 113.1124 -1429.8046)">
		<stop  offset="0" style="stop-color:#C8FF00"/>
		<stop  offset="0.1018" style="stop-color:#AFC52D"/>
		<stop  offset="0.2078" style="stop-color:#999056"/>
		<stop  offset="0.3118" style="stop-color:#866478"/>
		<stop  offset="0.4115" style="stop-color:#784293"/>
		<stop  offset="0.5057" style="stop-color:#6D2AA6"/>
		<stop  offset="0.5922" style="stop-color:#671BB1"/>
		<stop  offset="0.6638" style="stop-color:#6516B5"/>
	</linearGradient>
	<path fill-rule="evenodd" clip-rule="evenodd" fill="url(#SVGID_18_)" d="M106.15,153.47l6.54-14.58l0.33-0.73l1.87-4.16H55.14
		c-5.35,0-9.73,4.38-9.73,9.73v0c0,5.35,4.38,9.73,9.73,9.73H106.15z"/>
	<linearGradient id="SVGID_19_" gradientUnits="userSpaceOnUse" x1="118.2661" y1="150.7436" x2="116.8772" y2="135.3103">
		<stop  offset="0" style="stop-color:#C8FF00"/>
		<stop  offset="0.1018" style="stop-color:#AFC52D"/>
		<stop  offset="0.2078" style="stop-color:#999056"/>
		<stop  offset="0.3118" style="stop-color:#866478"/>
		<stop  offset="0.4115" style="stop-color:#784293"/>
		<stop  offset="0.5057" style="stop-color:#6D2AA6"/>
		<stop  offset="0.5922" style="stop-color:#671BB1"/>
		<stop  offset="0.6638" style="stop-color:#6516B5"/>
	</linearGradient>
	<path fill-rule="evenodd" clip-rule="evenodd" fill="url(#SVGID_19_)" d="M109.55,136.89h6.99l1.85-3.19h3.92l-1.29,2.74h9.91
		c1.9,0,3.17,1.96,2.39,3.69l-3.91,8.69c-0.42,0.94-1.36,1.54-2.39,1.54h-25.13l6.71-13.65L109.55,136.89z"/>
	<path fill-rule="evenodd" clip-rule="evenodd" fill="none" stroke="#C8FF00" stroke-width="5" stroke-miterlimit="10" d="
		M132.2,138.7h9.47c2.93,0,5.77-0.97,8.09-2.77l8.4-6.52"/>
	<linearGradient id="SVGID_20_" gradientUnits="userSpaceOnUse" x1="139.3716" y1="117.5546" x2="295.0862" y2="116.0445">
		<stop  offset="0" style="stop-color:#C8FF00"/>
		<stop  offset="0.1018" style="stop-color:#AFC52D"/>
		<stop  offset="0.2078" style="stop-color:#999056"/>
		<stop  offset="0.3118" style="stop-color:#866478"/>
		<stop  offset="0.4115" style="stop-color:#784293"/>
		<stop  offset="0.5057" style="stop-color:#6D2AA6"/>
		<stop  offset="0.5922" style="stop-color:#671BB1"/>
		<stop  offset="0.6638" style="stop-color:#6516B5"/>
	</linearGradient>
	<path fill-rule="evenodd" clip-rule="evenodd" fill="url(#SVGID_20_)" d="M137.35,117.79l1.34-1.97H268.9l3.36,2.17
		C272.26,118,137.6,117.64,137.35,117.79z"/>
	<linearGradient id="SVGID_21_" gradientUnits="userSpaceOnUse" x1="138.8682" y1="122.9326" x2="294.5828" y2="121.4224">
		<stop  offset="0" style="stop-color:#C8FF00"/>
		<stop  offset="0.1018" style="stop-color:#AFC52D"/>
		<stop  offset="0.2078" style="stop-color:#999056"/>
		<stop  offset="0.3118" style="stop-color:#866478"/>
		<stop  offset="0.4115" style="stop-color:#784293"/>
		<stop  offset="0.5057" style="stop-color:#6D2AA6"/>
		<stop  offset="0.5922" style="stop-color:#671BB1"/>
		<stop  offset="0.6638" style="stop-color:#6516B5"/>
	</linearGradient>
	<path fill-rule="evenodd" clip-rule="evenodd" fill="url(#SVGID_21_)" d="M136.85,123.17l1.34-1.97H268.4l3.36,2.17
		C271.75,123.38,137.1,123.02,136.85,123.17z"/>
	<path fill-rule="evenodd" clip-rule="evenodd" fill="#C8FF00" d="M113.56,86.26l-14.91,33.46H83.78
		c-17.02,0-27.98-18.04-20.14-33.15l0,0L113.56,86.26z"/>
	<polygon fill-rule="evenodd" clip-rule="evenodd" fill="#C8FF00" points="86.27,134.28 91.88,134.28 104.05,107.69 98.44,107.69 	
		"/>
</g>
</svg>
