<svg id="Layer_1" data-name="Layer 1" xmlns="http://www.w3.org/2000/svg" xmlns:xlink="http://www.w3.org/1999/xlink" width="619.75884" height="451.74583" viewBox="0 0 619.75884 451.74583"><defs><linearGradient id="linear-gradient" x1="-6.11172" y1="385.81397" x2="247.58586" y2="188.80858" gradientUnits="userSpaceOnUse"><stop offset="0" stop-color="#fff"/><stop offset="0.12841" stop-color="#f8ffdf"/><stop offset="0.32549" stop-color="#efffb3"/><stop offset="0.51645" stop-color="#e7ff91"/><stop offset="0.69691" stop-color="#e2ff79"/><stop offset="0.86269" stop-color="#dfff6a"/><stop offset="1" stop-color="#deff65"/></linearGradient><linearGradient id="linear-gradient-2" x1="84.76168" y1="371.37116" x2="275.18065" y2="223.50391" gradientUnits="userSpaceOnUse"><stop offset="0" stop-color="#c8ff00"/><stop offset="0.13975" stop-color="#cdff17"/><stop offset="0.38197" stop-color="#d4ff39"/><stop offset="0.61257" stop-color="#daff51"/><stop offset="0.82444" stop-color="#ddff60"/><stop offset="1" stop-color="#deff65"/></linearGradient><linearGradient id="linear-gradient-3" x1="-532.4593" y1="886.7738" x2="-175.10839" y2="609.27784" gradientTransform="matrix(1.11404, 0.60459, -0.84557, 0.79654, 1385.34707, -174.96854)" gradientUnits="userSpaceOnUse"><stop offset="0" stop-color="#c8ff00"/><stop offset="0.1534" stop-color="#afc52d"/><stop offset="0.31301" stop-color="#999056"/><stop offset="0.46974" stop-color="#866478"/><stop offset="0.6199" stop-color="#784293"/><stop offset="0.76178" stop-color="#6d2aa6"/><stop offset="0.89208" stop-color="#671bb1"/><stop offset="1" stop-color="#6516b5"/></linearGradient><linearGradient id="linear-gradient-4" x1="455.74145" y1="222.81022" x2="469.24145" y2="230.47689" gradientUnits="userSpaceOnUse"><stop offset="0" stop-color="#c8ff00"/><stop offset="0.10183" stop-color="#afc52d"/><stop offset="0.20779" stop-color="#999056"/><stop offset="0.31183" stop-color="#866478"/><stop offset="0.41151" stop-color="#784293"/><stop offset="0.50569" stop-color="#6d2aa6"/><stop offset="0.59219" stop-color="#671bb1"/><stop offset="0.66383" stop-color="#6516b5"/></linearGradient><linearGradient id="linear-gradient-5" x1="381.12744" y1="253.04595" x2="378.37744" y2="280.96262" xlink:href="#linear-gradient-4"/><linearGradient id="linear-gradient-6" x1="422.53922" y1="242.20898" x2="433.87256" y2="261.70898" xlink:href="#linear-gradient-4"/><linearGradient id="linear-gradient-7" x1="894.20884" y1="327.10453" x2="909.25475" y2="337.99302" gradientTransform="matrix(-0.75806, 0.65219, 0.65219, 0.75806, 749.34565, -434.41161)" xlink:href="#linear-gradient-4"/><linearGradient id="linear-gradient-8" x1="325.07381" y1="385.88479" x2="322.07381" y2="446.38479" xlink:href="#linear-gradient-4"/><linearGradient id="linear-gradient-9" x1="843.48853" y1="7300.60722" x2="870.94256" y2="7337.21259" gradientTransform="matrix(-0.66684, 0.7452, 0.7452, 0.66684, -4571.11935, -5090.88646)" xlink:href="#linear-gradient-4"/><linearGradient id="linear-gradient-10" x1="9278.61483" y1="5710.29591" x2="9293.06576" y2="5720.75382" gradientTransform="matrix(0.28176, 0.95948, 0.95948, -0.28176, -7731.43182, -6933.05397)" xlink:href="#linear-gradient-4"/><linearGradient id="linear-gradient-11" x1="2804.75529" y1="3617.90133" x2="2842.96583" y2="3672.28564" gradientTransform="matrix(-0.85328, 0.75949, 0.58582, 0.65052, 607.62178, -4222.03555)" gradientUnits="userSpaceOnUse"><stop offset="0" stop-color="#c8ff00"/><stop offset="0.03554" stop-color="#c1ee0d"/><stop offset="0.20145" stop-color="#a1a248"/><stop offset="0.34966" stop-color="#876677"/><stop offset="0.47478" stop-color="#753b99"/><stop offset="0.5719" stop-color="#6920ad"/><stop offset="0.62923" stop-color="#6516b5"/></linearGradient><linearGradient id="linear-gradient-12" x1="12224.74246" y1="3081.27541" x2="12189.66463" y2="3081.5367" gradientTransform="translate(-11826.87528 -2844.978)" gradientUnits="userSpaceOnUse"><stop offset="0" stop-color="#c8ff00"/><stop offset="0.47056" stop-color="#6516b5"/></linearGradient><linearGradient id="linear-gradient-13" x1="-1035.95078" y1="-2668.73644" x2="-1023.05821" y2="-2637.07047" gradientTransform="translate(2946.08488 1341.03318) rotate(-46.84234)" xlink:href="#linear-gradient-4"/><linearGradient id="linear-gradient-14" x1="362.49364" y1="318.66603" x2="353.49364" y2="351.3327" gradientTransform="translate(20.07389 694.10708) rotate(-89.94222)" xlink:href="#linear-gradient-4"/></defs><title>gamedev</title><path d="M247.567,187.4626l0,0a22.17491,22.17491,0,0,1-3.91967,30.76821L15.65753,398.6977A9.66117,9.66117,0,0,1,2.01658,397.0298h0a9.66117,9.66117,0,0,1,1.01989-12.93934L214.67867,184.70337A22.17491,22.17491,0,0,1,247.567,187.4626Z" fill-rule="evenodd" fill="url(#linear-gradient)"/><path d="M102.94466,357.40236l107.65438-168.21a22.90415,22.90415,0,0,1,28.82248-8.48036l0,0a22.90415,22.90415,0,0,1,11.10571,30.7631L163.89,391.41414A34.96024,34.96024,0,0,1,115.76,406.999l-.00007,0A34.96025,34.96025,0,0,1,102.94466,357.40236Z" fill-rule="evenodd" fill="url(#linear-gradient-2)"/><path d="M79.11151,169.25077h559.8838a37.71828,37.71828,0,0,1,37.71828,37.71828v.00008a37.71829,37.71829,0,0,1-37.71829,37.71829H79.11152a37.71829,37.71829,0,0,1-37.71829-37.71829v-.00008a37.71828,37.71828,0,0,1,37.71828-37.71828Z" transform="translate(-52.07762 259.18821) rotate(-37.199)" fill="url(#linear-gradient-3)"/><path d="M445.32438,224.67042l23.16814-17.82164a2.04325,2.04325,0,0,1,2.84127.34309h0a2.04325,2.04325,0,0,1-.33218,2.88233l-8.60816,7.049,4.17407-1.682a3.88163,3.88163,0,0,1,3.571.13755l4.4418,2.52474a2.29612,2.29612,0,0,1,1.2561,2.29826l-.25328,2.36413-.20765,1.31511a2.29612,2.29612,0,0,1-3.01639,1.81263l-5.02833-1.71707L444.68966,241.175Z" fill="url(#linear-gradient-4)"/><path d="M341.93036,265.03143l.02718,2.818a9.0418,9.0418,0,0,0,9.10184,8.92792l55.47875-.51587c4.95819-.04783,11.2827-4.14366,11.23486-9.10184l-.02719-2.818c-.04783-4.95818-6.45061-8.97575-11.40879-8.92792H350.85828C345.9001,255.46154,341.88253,260.07324,341.93036,265.03143Z" fill-rule="evenodd" fill="url(#linear-gradient-5)"/><path d="M455.35859,241.40419l-5.23168-20.405-48.15942,37.38189a9.76067,9.76067,0,0,0-1.94832,13.62461v0A9.76067,9.76067,0,0,0,413.6438,273.954Z" fill-rule="evenodd" fill="url(#linear-gradient-6)"/><path d="M367.40047,255.41372,354.01721,288.873h9.18386c10.505,0,29.44776-18.03964,34.806-33.14661v-.31265Z" fill="#c8ff00" fill-rule="evenodd"/><path d="M316.95529,330.20724h1.81252a11.39866,11.39866,0,0,1,11.39866,11.39866v91.49921a11.39866,11.39866,0,0,1-11.39866,11.39866h-1.81252a11.39865,11.39865,0,0,1-11.39865-11.39865V341.60589a11.39865,11.39865,0,0,1,11.39865-11.39865Z" transform="translate(722.23971 683.25846) rotate(165.56682)" fill="#6516b5"/><path d="M252.20367,383.21588l-37.37949-17.09312-32.46332,22.21668,1.75333,2.44671a14.21973,14.21973,0,0,0,18.19068,4.29547l7.0463-4.01543c6.6492-3.2917,11.90726-2.18977,19.87473,1.45365C234.18287,394.7866,252.20367,383.21588,252.20367,383.21588Z" fill="#6516b5" fill-rule="evenodd"/><path d="M184.63076,392.58231l33.69115-23.96854a3.05937,3.05937,0,0,0-.5012-5.27516h0a3.05937,3.05937,0,0,0-3.03664.2829l-33.77874,23.84494a3.05937,3.05937,0,0,0-.73171,4.26841l.0876.12361A3.05937,3.05937,0,0,0,184.63076,392.58231Z" fill="#6516b5" fill-rule="evenodd"/><path d="M338.1718,436.58291v0a12.34108,12.34108,0,0,0-5.99082-16.338l-87.73107-40.95378L221.89376,396.037l99.94,46.53676A12.34108,12.34108,0,0,0,338.1718,436.58291Z" fill-rule="evenodd" fill="url(#linear-gradient-7)"/><path d="M337.94006,383.09134l-31.26507,26.562,6.86119,38.73464,2.95189-.589a14.21973,14.21973,0,0,0,11.41135-14.80314l-.75417-8.075c-.25846-7.41487,6.52463-16.07206,13.12814-21.82955C344.38179,399.50931,337.94006,383.09134,337.94006,383.09134Z" fill-rule="evenodd" fill="url(#linear-gradient-8)"/><path d="M318.33748,448.06868l-7.95124-40.57539a3.05937,3.05937,0,0,0-5.01281-1.71764h0a3.05937,3.05937,0,0,0-.99387,2.8833l7.80252,40.60425a3.05937,3.05937,0,0,0,3.58738,2.426l.14873-.02887A3.05937,3.05937,0,0,0,318.33748,448.06868Z" fill-rule="evenodd" fill="url(#linear-gradient-9)"/><path d="M417.71188,329.31286l0,0a12.34108,12.34108,0,0,0-17.35493-1.27585L330.88327,388.7558l5.96022,27.45326L416.436,346.66779A12.34108,12.34108,0,0,0,417.71188,329.31286Z" fill-rule="evenodd" fill="url(#linear-gradient-10)"/><path d="M320.273,349.09164l-5,.66667c-9.04871.40437-17.37906.18857-20.84359-6.83279a18.75872,18.75872,0,0,1-.77441-14.26363l18.69393-53.58418a21.08484,21.08484,0,0,0,.79551-3.31765c1.52064-9.25583,10.8415-16.54609,19.94835-16.34633l29.96331-.00049c9.20437.20189,13.68793,8.999,9.41716,18.47713l-27.18693,57.55217C339.64474,343.963,332.64583,348.53872,320.273,349.09164Z" fill-rule="evenodd" fill="url(#linear-gradient-11)"/><polygon points="396.998 230.369 402.103 241.356 394.096 242.337 396.998 230.369" fill="#c8ff00" fill-rule="evenodd"/><circle cx="383.49474" cy="236.40447" r="14.85" transform="translate(-41.25173 86.25213) rotate(-12.18263)" fill="url(#linear-gradient-12)"/><rect x="389.39762" y="229.73981" width="2.15562" height="4.50721" rx="0.99843" ry="0.99843" transform="translate(-40.16368 87.62596) rotate(-12.18263)" fill="#6516b5"/><path d="M338.67992,209.74139H352.028c16.64926,0,34.231,1.119,42.53665,15.54858v0H317.82416Z" fill="#c8ff00" fill-rule="evenodd"/><polygon points="376.695 227.975 370.318 243.412 362.6 227.303 376.695 227.975" fill="#c8ff00" fill-rule="evenodd"/><polygon points="396.327 228.841 363.439 228.841 361.425 224.814 394.313 224.814 396.327 228.841" fill="#6516b5" fill-rule="evenodd"/><path d="M325.47551,235.52538l1.34249-4.02706c9.6603,0,13.711-1.889,20.22485-3.71638,5.49231-1.5403,10.68017-2.99539,16.85743-2.99539v4.02706c-5.62308,0-10.32525,1.31876-15.76972,2.84595C341.66982,233.47186,335.69,235.52538,325.47551,235.52538Z" fill="#6516b5"/><rect x="294.2128" y="240.61989" width="19.46414" height="71.51163" rx="9.0153" ry="9.0153" transform="translate(439.61553 -111.38645) rotate(67.00387)" fill="url(#linear-gradient-13)"/><path d="M231.11775,312.09039l3.91735,15.487.19507.77119,1.11831,4.42119,46.85088-37.05712a9.76067,9.76067,0,0,0,1.59561-13.67041v0a9.76067,9.76067,0,0,0-13.67041-1.59561Z" fill="#6516b5" fill-rule="evenodd"/><path d="M238.73965,327.2112l-5.48349,4.33722h0a6.76741,6.76741,0,0,1-2.24373,6.06961l-1.94846,1.70279-.69123-2.94758-6.11709,4.44663a2.61907,2.61907,0,0,1-4.16467-1.41506l-2.32492-9.23925a2.61907,2.61907,0,0,1,.91512-2.69331l19.70622-15.58681,3.20209,14.8675Z" fill="#6516b5" fill-rule="evenodd"/><path d="M348.06984,247.85044l-14.90565,33.45968h-14.879A22.69443,22.69443,0,0,1,298.141,248.16351l0,0Z" fill="#c8ff00" fill-rule="evenodd"/><path d="M338.56141,269.27246H332.9452l-12.16992,26.59546h.0166c-3.48389,6.08887-10.07617,9.64038-19.43555,9.64038l-1.75,5.125c11.88232,0,22.9375-5.5,27.3125-15.8125l-.04785-.001Z" fill="#c8ff00"/><path d="M357.44065,273.5061h0a12.3049,12.3049,0,0,1,12.3049,12.3049V388.20194a12.3049,12.3049,0,0,1-12.3049,12.3049h0a12.3049,12.3049,0,0,1-12.3049-12.3049V285.811a12.30491,12.30491,0,0,1,12.30491-12.30491Z" transform="translate(694.08649 -20.77387) rotate(89.94222)" fill="url(#linear-gradient-14)"/></svg>