<?xml version="1.0" encoding="utf-8"?>
<!-- Generator: Adobe Illustrator 21.0.2, SVG Export Plug-In . SVG Version: 6.00 Build 0)  -->
<svg version="1.1" id="Layer_1" xmlns="http://www.w3.org/2000/svg" xmlns:xlink="http://www.w3.org/1999/xlink" x="0px" y="0px"
	 viewBox="0 0 120.35 70.2" enable-background="new 0 0 120.35 70.2" xml:space="preserve">
<g>
	<rect x="58.96" y="32.44" fill="#6516B5" width="49.69" height="4.33"/>
	<path fill="#6516B5" d="M0,35.1L0,35.1c0-10.91,8.84-19.75,19.75-19.75h40.86c0.6,0,1.08,0.48,1.08,1.08v37.35
		c0,0.6-0.48,1.08-1.08,1.08H19.75C8.84,54.86,0,46.01,0,35.1z M73.55,15.27h-4.56v39.66h4.56V15.27z M84.79,20.74h-4.56v28.72h4.56
		V20.74z M96.04,25.76h-4.56v18.69h4.56V25.76z M110.85,25.6c-5.25,0-9.5,4.25-9.5,9.5s4.25,9.5,9.5,9.5s9.5-4.25,9.5-9.5
		S116.1,25.6,110.85,25.6z M61.09,4.33L61.09,4.33c0-2.38-1.95-4.33-4.33-4.33L29.63,0c-2.38,0-4.33,1.95-4.33,4.33v0
		c0,2.38,1.95,4.33,4.33,4.33h27.12C59.14,8.66,61.09,6.71,61.09,4.33z M61.09,65.87L61.09,65.87c0-2.38-1.95-4.33-4.33-4.33H29.63
		c-2.38,0-4.33,1.95-4.33,4.33v0c0,2.38,1.95,4.33,4.33,4.33h27.12C59.14,70.2,61.09,68.26,61.09,65.87z"/>
	<path fill="#FFFFFF" d="M44.37,42.11l-1.83-1.64l5.07-5.64l-4.92-5.57l1.84-1.63l6.37,7.21L44.37,42.11z M22.06,42.11l-6.53-7.26
		l6.37-7.21l1.84,1.63l-4.92,5.57l5.07,5.64L22.06,42.11z M29.59,41.99l-2.01-1.42l9.09-12.84l2.01,1.42L29.59,41.99z"/>
</g>
</svg>
