<?xml version="1.0" encoding="utf-8"?>
<!-- Generator: Adobe Illustrator 21.0.2, SVG Export Plug-In . SVG Version: 6.00 Build 0)  -->
<svg version="1.1" id="Layer_1" xmlns="http://www.w3.org/2000/svg" xmlns:xlink="http://www.w3.org/1999/xlink" x="0px" y="0px"
	 viewBox="0 0 790.94 492.74" enable-background="new 0 0 790.94 492.74" xml:space="preserve">
<g>
	
		<radialGradient id="SVGID_1_" cx="409.5238" cy="218.0694" r="200.7198" gradientTransform="matrix(0.9997 0.0237 -0.0222 0.9369 4.9582 3.8428)" gradientUnits="userSpaceOnUse">
		<stop  offset="0" style="stop-color:#C8FF00"/>
		<stop  offset="1" style="stop-color:#C8FF00;stop-opacity:0"/>
	</radialGradient>
	<rect x="412.6" y="25.71" fill-rule="evenodd" clip-rule="evenodd" fill="url(#SVGID_1_)" width="296.5" height="386.43"/>
	<g>
		<g>
			<g>
				
					<linearGradient id="SVGID_2_" gradientUnits="userSpaceOnUse" x1="562.7034" y1="4419.8667" x2="523.4456" y2="4419.0752" gradientTransform="matrix(0.648 -0.7617 0.7617 0.648 -3135.4617 -2316.6084)">
					<stop  offset="0" style="stop-color:#C8FF00"/>
					<stop  offset="0.1378" style="stop-color:#B6D421"/>
					<stop  offset="0.3708" style="stop-color:#999155"/>
					<stop  offset="0.5819" style="stop-color:#835C7F"/>
					<stop  offset="0.7638" style="stop-color:#73369C"/>
					<stop  offset="0.9092" style="stop-color:#691FAE"/>
					<stop  offset="1" style="stop-color:#6516B5"/>
				</linearGradient>
				<path fill-rule="evenodd" clip-rule="evenodd" fill="url(#SVGID_2_)" d="M590.01,112.65l9.44,8.03
					c1.66,1.42,1.87,3.91,0.45,5.58l0,0c-1.42,1.66-3.91,1.87-5.58,0.45l-3.01-2.56l1.29,8.58l-12.39,6.09l-4.8-9.35L590.01,112.65z
					"/>
				<path fill-rule="evenodd" clip-rule="evenodd" fill="#C8FF00" d="M591.31,109.23L591.31,109.23c1.55,1.32,1.74,3.64,0.42,5.19
					l-9,10.58l2.7,6.73l13.48-6.96c1.95-1.01,4.35-0.22,5.32,1.75v0c0.94,1.91,0.2,4.22-1.68,5.21l-30.28,16.07l-5.74,6.75
					l2.48-24.48l17.11-20.41C587.44,108.1,589.76,107.91,591.31,109.23z"/>
			</g>
			<path fill-rule="evenodd" clip-rule="evenodd" fill="#C8FF00" d="M608.67,108.38l-18.41,6.56c-1.8,0.64-3.81-0.31-4.45-2.11l0,0
				c-0.64-1.8,0.31-3.81,2.11-4.45l18.41-6.56c1.8-0.64,3.81,0.31,4.45,2.11v0C611.42,105.73,610.47,107.73,608.67,108.38z"/>
		</g>
		<path fill-rule="evenodd" clip-rule="evenodd" fill="#6516B5" d="M346.98,291.48l-59.1,26.85l-27.57,64.02l0,0
			c12.87,5.7,27.91-0.12,33.61-12.98l9.11-20.57c1.98-4.46,5.52-8.05,9.96-10.08l43.05-19.63L346.98,291.48z"/>
		<path fill-rule="evenodd" clip-rule="evenodd" fill="#6516B5" d="M109.58,246.75l-34.9-22.27L0,241.71
			c4.69,13.69,18.73,21.85,32.95,19.13l18.72-3.57c4.91-0.94,9.99,0.04,14.2,2.73l28.94,18.46L109.58,246.75z"/>
		
			<linearGradient id="SVGID_3_" gradientUnits="userSpaceOnUse" x1="-4668.2944" y1="115.1605" x2="-4665.1982" y2="115.1605" gradientTransform="matrix(-1 0 0 1 -4256.8379 0)">
			<stop  offset="0" style="stop-color:#C8FF00"/>
			<stop  offset="0.0355" style="stop-color:#C1EE0D"/>
			<stop  offset="0.2015" style="stop-color:#A0A248"/>
			<stop  offset="0.3497" style="stop-color:#876677"/>
			<stop  offset="0.4748" style="stop-color:#753B99"/>
			<stop  offset="0.5719" style="stop-color:#6920AD"/>
			<stop  offset="0.6292" style="stop-color:#6516B5"/>
		</linearGradient>
		<polygon fill-rule="evenodd" clip-rule="evenodd" fill="url(#SVGID_3_)" points="495.11,105.63 503.68,122.77 491.07,124.69 		"/>
		
			<linearGradient id="SVGID_4_" gradientUnits="userSpaceOnUse" x1="-4753.2144" y1="115.6761" x2="-4722.1641" y2="115.6761" gradientTransform="matrix(-1 0 0 1 -4256.8379 0)">
			<stop  offset="0" style="stop-color:#C8FF00"/>
			<stop  offset="0.0355" style="stop-color:#C1EE0D"/>
			<stop  offset="0.2015" style="stop-color:#A0A248"/>
			<stop  offset="0.3497" style="stop-color:#876677"/>
			<stop  offset="0.4748" style="stop-color:#753B99"/>
			<stop  offset="0.5719" style="stop-color:#6920AD"/>
			<stop  offset="0.6292" style="stop-color:#6516B5"/>
		</linearGradient>
		<circle fill-rule="evenodd" clip-rule="evenodd" fill="url(#SVGID_4_)" cx="474.04" cy="115.68" r="23.49"/>
		
			<linearGradient id="SVGID_5_" gradientUnits="userSpaceOnUse" x1="-4668.2944" y1="108.5003" x2="-4665.1982" y2="108.5003" gradientTransform="matrix(-1 0 0 1 -4256.8379 0)">
			<stop  offset="0" style="stop-color:#C8FF00"/>
			<stop  offset="0.0355" style="stop-color:#C1EE0D"/>
			<stop  offset="0.2015" style="stop-color:#A0A248"/>
			<stop  offset="0.3497" style="stop-color:#876677"/>
			<stop  offset="0.4748" style="stop-color:#753B99"/>
			<stop  offset="0.5719" style="stop-color:#6920AD"/>
			<stop  offset="0.6292" style="stop-color:#6516B5"/>
		</linearGradient>
		<path fill-rule="evenodd" clip-rule="evenodd" fill="url(#SVGID_5_)" d="M484.97,112.06h-0.2c-0.88,0-1.61-0.72-1.61-1.61v-3.92
			c0-0.88,0.72-1.61,1.61-1.61h0.2c0.88,0,1.61,0.72,1.61,1.61v3.92C486.58,111.34,485.85,112.06,484.97,112.06z"/>
		
			<linearGradient id="SVGID_6_" gradientUnits="userSpaceOnUse" x1="-4668.2944" y1="100.7753" x2="-4665.1982" y2="100.7753" gradientTransform="matrix(-1 0 0 1 -4256.8379 0)">
			<stop  offset="0" style="stop-color:#C8FF00"/>
			<stop  offset="0.0355" style="stop-color:#C1EE0D"/>
			<stop  offset="0.2015" style="stop-color:#A0A248"/>
			<stop  offset="0.3497" style="stop-color:#876677"/>
			<stop  offset="0.4748" style="stop-color:#753B99"/>
			<stop  offset="0.5719" style="stop-color:#6920AD"/>
			<stop  offset="0.6292" style="stop-color:#6516B5"/>
		</linearGradient>
		<path fill-rule="evenodd" clip-rule="evenodd" fill="url(#SVGID_6_)" d="M458.35,117.23c2.39-13.62,15.22-22.77,28.82-20.73
			c-6.05-8.43-15.83-11.37-27.49-13.42c-13.06-2.29-16.82,3.63-29.88,1.34c-13.06-2.29-12.13-7.59-25.19-9.88
			c-13.06-2.29-13.99,3.01-27.05,0.72c-11.47-2.01-18.8-10.03-27.81-10.26v51.63c9.41,5.65,10.03,6.2,22.27,8.34
			c13.06,2.29,13.99-3.01,27.04-0.72c13.06,2.29,12.13,7.59,25.19,9.88c13.06,2.29,13.99-3.01,27.05-0.72
			c5.43,0.95,8.66,2.19,11.52,3.13C458.92,131.17,457.11,124.29,458.35,117.23z"/>
		<circle fill-rule="evenodd" clip-rule="evenodd" fill="#6516B5" cx="460.02" cy="116.11" r="7.03"/>
		<path fill-rule="evenodd" clip-rule="evenodd" fill="#6516B5" d="M221.67,342.75L221.67,342.75c5.73-9.04,3.01-21.13-6.03-26.85
			L94.66,237.56l-20.82,32.88l120.97,78.33C203.86,354.5,215.94,351.79,221.67,342.75z"/>
		<path fill-rule="evenodd" clip-rule="evenodd" fill="#6516B5" d="M325.19,203.3l-1.67-1.52c-7.45-6.8-19.1-6.27-25.9,1.18
			L189.65,321.23c-6.8,7.45-6.27,19.1,1.18,25.9l1.67,1.52c7.45,6.8,19.1,6.27,25.9-1.18L326.37,229.2
			C333.17,221.75,332.64,210.09,325.19,203.3z"/>
		<path fill-rule="evenodd" clip-rule="evenodd" fill="#6516B5" d="M392.02,149.09l0-1.78c-0.02-7.97-6.56-14.49-14.53-14.47
			l-84.1,0.19c-7.97,0.02-14.49,6.56-14.47,14.53l0,1.78c0.02,7.97,6.56,14.49,14.53,14.47l84.1-0.19
			C385.53,163.6,392.04,157.06,392.02,149.09z"/>
		<path fill-rule="evenodd" clip-rule="evenodd" fill="#6516B5" d="M235.27,189.33l14.08,30.19l54.52-59.46
			c5.72-6.24,5.3-16.03-0.94-21.75v0c-6.24-5.72-16.03-5.3-21.75,0.94L235.27,189.33z"/>
		
			<linearGradient id="SVGID_7_" gradientUnits="userSpaceOnUse" x1="-4673.9551" y1="127.8909" x2="-4649.8945" y2="165.3972" gradientTransform="matrix(-1 0 0 1 -4256.8379 0)">
			<stop  offset="0" style="stop-color:#C8FF00"/>
			<stop  offset="0.0355" style="stop-color:#C1EE0D"/>
			<stop  offset="0.2015" style="stop-color:#A0A248"/>
			<stop  offset="0.3497" style="stop-color:#876677"/>
			<stop  offset="0.4748" style="stop-color:#753B99"/>
			<stop  offset="0.5719" style="stop-color:#6920AD"/>
			<stop  offset="0.6292" style="stop-color:#6516B5"/>
		</linearGradient>
		<path fill-rule="evenodd" clip-rule="evenodd" fill="url(#SVGID_7_)" d="M451.87,131.77h-78.24c-5.16,0-10.1,2.11-13.67,5.83
			l-60.76,63.39c-16.92,17.65-14.57,46.12,5.01,60.77l0,0c15.35,11.48,36.64,10.7,51.11-1.89l109-94.87
			C477.52,153.5,469.38,131.77,451.87,131.77z"/>
		
			<linearGradient id="SVGID_8_" gradientUnits="userSpaceOnUse" x1="-4758.2959" y1="173.493" x2="-4739.0732" y2="187.198" gradientTransform="matrix(-1 0 0 1 -4256.8379 0)">
			<stop  offset="0" style="stop-color:#C8FF00"/>
			<stop  offset="0.1018" style="stop-color:#AFC52D"/>
			<stop  offset="0.2078" style="stop-color:#999056"/>
			<stop  offset="0.3118" style="stop-color:#866478"/>
			<stop  offset="0.4115" style="stop-color:#784293"/>
			<stop  offset="0.5057" style="stop-color:#6D2AA6"/>
			<stop  offset="0.5922" style="stop-color:#671BB1"/>
			<stop  offset="0.6638" style="stop-color:#6516B5"/>
		</linearGradient>
		<path fill-rule="evenodd" clip-rule="evenodd" fill="url(#SVGID_8_)" d="M451.35,140.52l-1.26,1.26
			c-5.65,5.63-5.66,14.86-0.04,20.51l59.36,59.57c5.63,5.65,14.86,5.66,20.51,0.04l1.26-1.26c5.65-5.63,5.66-14.86,0.04-20.51
			l-59.36-59.57C466.23,134.91,457,134.89,451.35,140.52z"/>
		<path fill-rule="evenodd" clip-rule="evenodd" fill="#6516B5" d="M227.11,228.15l-9.13-19.89l8.73-9.52
			c1.4-1.53,3.91-1.1,4.73,0.81l6.57,15.41c0.46,1.08,0.21,2.33-0.62,3.15C234.28,221.16,227.11,228.15,227.11,228.15z
			 M247.89,221.19l9.64-10.51l-6.19-5.68l-9.64,10.51c-1.12,1.23-1.42,3-0.75,4.52v0C242.16,222.82,245.84,223.43,247.89,221.19z"/>
		
			<linearGradient id="SVGID_9_" gradientUnits="userSpaceOnUse" x1="-4806.896" y1="179.7544" x2="-4735.2446" y2="154.6322" gradientTransform="matrix(-1 0 0 1 -4256.8379 0)">
			<stop  offset="0" style="stop-color:#C8FF00"/>
			<stop  offset="0.1018" style="stop-color:#AFC52D"/>
			<stop  offset="0.2078" style="stop-color:#999056"/>
			<stop  offset="0.3118" style="stop-color:#866478"/>
			<stop  offset="0.4115" style="stop-color:#784293"/>
			<stop  offset="0.5057" style="stop-color:#6D2AA6"/>
			<stop  offset="0.5922" style="stop-color:#671BB1"/>
			<stop  offset="0.6638" style="stop-color:#6516B5"/>
		</linearGradient>
		<path fill-rule="evenodd" clip-rule="evenodd" fill="url(#SVGID_9_)" d="M584.44,159.31l-10.91-22.79l-0.54-1.13l-3.11-6.51
			l-61.06,72.09c-5.47,6.46-4.66,16.22,1.8,21.69l0,0c6.46,5.47,16.22,4.66,21.69-1.8L584.44,159.31z"/>
		
			<linearGradient id="SVGID_10_" gradientUnits="userSpaceOnUse" x1="-4683.9141" y1="301.0334" x2="-4665.8687" y2="278.7419" gradientTransform="matrix(-1 0 0 1 -4256.8379 0)">
			<stop  offset="0" style="stop-color:#C8FF00"/>
			<stop  offset="0.1534" style="stop-color:#AFC52D"/>
			<stop  offset="0.313" style="stop-color:#999056"/>
			<stop  offset="0.4697" style="stop-color:#866478"/>
			<stop  offset="0.6199" style="stop-color:#784293"/>
			<stop  offset="0.7618" style="stop-color:#6D2AA6"/>
			<stop  offset="0.8921" style="stop-color:#671BB1"/>
			<stop  offset="1" style="stop-color:#6516B5"/>
		</linearGradient>
		<path fill-rule="evenodd" clip-rule="evenodd" fill="url(#SVGID_10_)" d="M498.52,242.4L498.52,242.4
			c-4.49-9.71-16.12-13.98-25.83-9.49L321.2,302.94l16.34,35.32l151.49-70.03C498.75,263.74,503.02,252.11,498.52,242.4z"/>
		
			<linearGradient id="SVGID_11_" gradientUnits="userSpaceOnUse" x1="-4669.6777" y1="239.2279" x2="-4614.707" y2="280.8561" gradientTransform="matrix(-1 0 0 1 -4256.8379 0)">
			<stop  offset="0" style="stop-color:#C8FF00"/>
			<stop  offset="0.1018" style="stop-color:#AFC52D"/>
			<stop  offset="0.2078" style="stop-color:#999056"/>
			<stop  offset="0.3118" style="stop-color:#866478"/>
			<stop  offset="0.4115" style="stop-color:#784293"/>
			<stop  offset="0.5057" style="stop-color:#6D2AA6"/>
			<stop  offset="0.5922" style="stop-color:#671BB1"/>
			<stop  offset="0.6638" style="stop-color:#6516B5"/>
		</linearGradient>
		<path fill-rule="evenodd" clip-rule="evenodd" fill="url(#SVGID_11_)" d="M500.13,252.16l0.05-2.25
			c0.23-10.08-7.83-18.52-17.91-18.74l-163.2-3.69c-10.08-0.23-18.52,7.83-18.74,17.91l-0.05,2.25
			c-0.23,10.08,7.83,18.52,17.91,18.74l163.2,3.69C491.47,270.31,499.9,262.25,500.13,252.16z"/>
	</g>
	<path fill-rule="evenodd" clip-rule="evenodd" fill="#C8FF00" d="M413,492.68h-0.37c-1.65,0-3-1.35-3-3V3c0-1.65,1.35-3,3-3L413,0
		c1.65,0,3,1.35,3,3v486.68C416,491.33,414.65,492.68,413,492.68z"/>
</g>
</svg>
