<?xml version="1.0" encoding="utf-8"?>
<!-- Generator: Adobe Illustrator 21.0.2, SVG Export Plug-In . SVG Version: 6.00 Build 0)  -->
<svg version="1.1" id="Layer_1" xmlns="http://www.w3.org/2000/svg" xmlns:xlink="http://www.w3.org/1999/xlink" x="0px" y="0px"
	 viewBox="0 0 1261.97 196.6" enable-background="new 0 0 1261.97 196.6" xml:space="preserve">
<g>
	<path fill="#FFFFFF" d="M445.52,38.38V3.88c6.28-2.19,13.14-3.38,20.41-3.38c22.68,0,37.27,9.51,47.1,23l-23.15,17.92
		c-6.34-7.77-13.64-13-24.26-13C457.25,28.41,450.24,32.29,445.52,38.38z M513.83,90.89L490.67,74.4
		c-6.66,8.09-13.48,13.48-25.06,13.48c-8.37,0-15.38-3.79-20.09-9.87v34.76c6.03,2.07,12.52,3.18,19.3,3.18
		C489.24,115.95,503.36,105.32,513.83,90.89z M551.56,71.54h39.49v42.18h30.76V2.72h-30.76v41.55h-39.49V2.72h-30.76v111.01h30.76
		V71.54z M703.15,1.93l47.26,111.8h-32.98l-7.93-19.98h-42.98l-7.93,19.98H626.4l47.1-111.8H703.15z M700.46,69.8l-12.37-31.4
		l-12.53,31.4H700.46z M829.22,61.39L783.55,2.72h-28.7v111.01h30.45V52.83l47.57,60.89h26.8V2.72h-30.45V61.39z M926.9,71.38h21.73
		v13.48c-4.44,3.01-10.15,4.6-17.76,4.6c-17.6,0-30.13-12.85-30.13-30.92v-0.32c0-16.97,12.37-30.29,28.39-30.29
		c11.1,0,18.87,3.81,26.8,10.47l18.08-21.88C962.26,6.37,948.46,0.5,928.96,0.5c-34.25,0-59.63,25.37-59.63,57.72v0.32
		c0,33.62,25.69,57.41,60.26,57.41c20.3,0,36.47-7.45,48.21-17.29V48.87h-50.9V71.38z M1025.06,2.22h-30.73v111.01h30.73V2.22z
		 M1113.39,60.89l-45.67-58.67h-28.7v111.01h30.45V52.33l47.57,60.89h26.8V2.22h-30.45V60.89z M1211.07,70.89h21.72v13.48
		c-4.44,3.01-10.15,4.6-17.76,4.6c-17.6,0-30.13-12.85-30.13-30.92v-0.32c0-16.97,12.37-30.29,28.39-30.29
		c11.1,0,18.87,3.81,26.8,10.47l18.08-21.88C1246.43,5.87,1232.63,0,1213.13,0c-34.25,0-59.63,25.37-59.63,57.72v0.32
		c0,33.62,25.69,57.41,60.26,57.41c20.3,0,36.47-7.45,48.21-17.29V48.37h-50.9V70.89z"/>
	<path fill="#FFFFFF" d="M57.56,129.52h50.9v49.79c-11.73,9.83-27.91,17.28-48.21,17.28C25.69,196.6,0,172.81,0,139.19v-0.32
		c0-32.35,25.37-57.72,59.62-57.72c19.5,0,33.3,5.87,45.03,16.01l-18.08,21.88c-7.93-6.66-15.7-10.47-26.8-10.47
		c-16.02,0-28.38,13.32-28.38,30.29v0.32c0,18.08,12.53,30.92,30.13,30.92c7.61,0,13.32-1.59,17.76-4.6v-13.48H57.56V129.52z
		 M187.27,82.58l47.25,111.79h-32.98l-7.93-19.98h-42.97l-7.93,19.98h-32.19l47.1-111.79H187.27z M184.58,150.45l-12.37-31.4
		l-12.53,31.4H184.58z M297.96,126.35l-26.48-42.97h-32.51v111h30.13v-63.59l28.23,43.29h0.63l28.38-43.45v63.75h30.6v-111h-32.51
		L297.96,126.35z M400.71,168.21v-17.6h44.74v-24.26h-44.74v-16.97h44.74V83.38h-75.19v111h75.19v-26.17H400.71z"/>
</g>
</svg>
