<?xml version="1.0" encoding="utf-8"?>
<!-- Generator: Adobe Illustrator 21.0.2, SVG Export Plug-In . SVG Version: 6.00 Build 0)  -->
<svg version="1.1" id="Layer_1" xmlns="http://www.w3.org/2000/svg" xmlns:xlink="http://www.w3.org/1999/xlink" x="0px" y="0px"
	 viewBox="0 0 188.63 238.33" enable-background="new 0 0 188.63 238.33" xml:space="preserve">
<g>
	<linearGradient id="SVGID_1_" gradientUnits="userSpaceOnUse" x1="51.6553" y1="135.7002" x2="52.1553" y2="152.9502">
		<stop  offset="0" style="stop-color:#C8FF00"/>
		<stop  offset="0.1018" style="stop-color:#AFC52D"/>
		<stop  offset="0.2078" style="stop-color:#999056"/>
		<stop  offset="0.3118" style="stop-color:#866478"/>
		<stop  offset="0.4115" style="stop-color:#784293"/>
		<stop  offset="0.5057" style="stop-color:#6D2AA6"/>
		<stop  offset="0.5922" style="stop-color:#671BB1"/>
		<stop  offset="0.6638" style="stop-color:#6516B5"/>
	</linearGradient>
	<path fill-rule="evenodd" clip-rule="evenodd" fill="url(#SVGID_1_)" d="M103.82,153.49l-0.03,0.2c-0.74,5.13-5.54,8.71-10.66,7.98
		L8.07,149.41c-5.13-0.74-8.71-5.54-7.98-10.66l0.03-0.2c0.74-5.13,5.54-8.71,10.66-7.98l85.05,12.26
		C100.97,143.56,104.56,148.36,103.82,153.49z"/>
	<g>
		<linearGradient id="SVGID_2_" gradientUnits="userSpaceOnUse" x1="17.9354" y1="221.1145" x2="52.1854" y2="224.7395">
			<stop  offset="0" style="stop-color:#C8FF00"/>
			<stop  offset="0.1018" style="stop-color:#AFC52D"/>
			<stop  offset="0.2078" style="stop-color:#999056"/>
			<stop  offset="0.3118" style="stop-color:#866478"/>
			<stop  offset="0.4115" style="stop-color:#784293"/>
			<stop  offset="0.5057" style="stop-color:#6D2AA6"/>
			<stop  offset="0.5922" style="stop-color:#671BB1"/>
			<stop  offset="0.6638" style="stop-color:#6516B5"/>
		</linearGradient>
		<path fill-rule="evenodd" clip-rule="evenodd" fill="url(#SVGID_2_)" d="M47.63,209.55l0.66,25.28l-33.53,0.66l-0.02-2.36
			c-0.05-5.58,4.02-10.34,9.54-11.15l3.1-0.45c5.74-0.99,6.24-6.26,6.19-9.31C33.5,207.94,47.63,209.55,47.63,209.55z"/>
		<g>
			<path fill="#6516B5" d="M26.03,229.56c-1.41-2.58-2.14-5.04-2.25-7.83l1.53-0.3c0.16,1.76,0.4,3.63,2.03,6.26L26.03,229.56z"/>
			<path fill="#6516B5" d="M30.17,225.16c-0.03,0.02-0.15,0.12-0.3,0.25c5.66-4.21,14.67-5.01,18.31-5.15l0.08,2.12
				c-10.71,0.42-22.03,4.05-21.68,12.99l-1.61,0.06c-0.15-3.95,1.36-6.87,3.71-9.03c-0.88-1.6-1.46-3.28-1.76-5.17l0.75-0.31
				c0.26,0,0.51-0.08,0.75-0.21C28.7,222.07,29.06,223.49,30.17,225.16z"/>
			<path fill="#6516B5" d="M24.05,233.72c-2.19-2.8-3.65-8.55-3.75-10.48c0,0,1.21-0.63,1.46-0.72c0.4,2.64,1.48,6.75,3.29,9.49
				C24.95,232.05,24.19,233.58,24.05,233.72z"/>
		</g>
		<linearGradient id="SVGID_3_" gradientUnits="userSpaceOnUse" x1="-5.4619" y1="149.1108" x2="36.7881" y2="186.8608">
			<stop  offset="0" style="stop-color:#C8FF00"/>
			<stop  offset="0.1018" style="stop-color:#AFC52D"/>
			<stop  offset="0.2078" style="stop-color:#999056"/>
			<stop  offset="0.3118" style="stop-color:#866478"/>
			<stop  offset="0.4115" style="stop-color:#784293"/>
			<stop  offset="0.5057" style="stop-color:#6D2AA6"/>
			<stop  offset="0.5922" style="stop-color:#671BB1"/>
			<stop  offset="0.6638" style="stop-color:#6516B5"/>
		</linearGradient>
		<path fill-rule="evenodd" clip-rule="evenodd" fill="url(#SVGID_3_)" d="M6.07,131.13L6.07,131.13
			c4.82-2.03,10.43,0.25,12.47,5.07l31.73,75.2l-17.54,7.39L0.99,143.6C-1.04,138.78,1.24,133.17,6.07,131.13z"/>
	</g>
	
		<linearGradient id="SVGID_4_" gradientUnits="userSpaceOnUse" x1="9729.0117" y1="-5086.6904" x2="9750.6719" y2="-5080.0781" gradientTransform="matrix(0.8954 0.4453 -0.4453 0.8954 -10922.3887 237.3183)">
		<stop  offset="0" style="stop-color:#C8FF00"/>
		<stop  offset="0.1018" style="stop-color:#AFC52D"/>
		<stop  offset="0.2078" style="stop-color:#999056"/>
		<stop  offset="0.3118" style="stop-color:#866478"/>
		<stop  offset="0.4115" style="stop-color:#784293"/>
		<stop  offset="0.5057" style="stop-color:#6D2AA6"/>
		<stop  offset="0.5922" style="stop-color:#671BB1"/>
		<stop  offset="0.6638" style="stop-color:#6516B5"/>
	</linearGradient>
	<path fill-rule="evenodd" clip-rule="evenodd" fill="url(#SVGID_4_)" d="M75.76,21.78l-5.97,1.62l-0.02-0.01l7.35-14.78
		c0.53-1.07,0.09-2.37-0.97-2.9c-1.07-0.53-2.37-0.09-2.9,0.97l-3.71,7.46l-6.8-3.38l3.79-7.63c0.53-1.07,0.09-2.37-0.97-2.9
		c-1.07-0.53-2.37-0.09-2.9,0.97l-5.09,10.23c-0.05,0.1-0.08,0.2-0.12,0.31c-0.11,0.19-0.22,0.37-0.32,0.57l-1.36,2.73l0,0
		l-1.76,3.54l-3.84,7.73L45,36.7l10.63,5.29l5.17-10.4l0.06,0.03l7.09-2.18c0.17-0.05,0.33-0.11,0.49-0.17
		c0.13-0.02,0.26-0.05,0.39-0.09l8.45-2.84C81.37,24.98,79.83,20.41,75.76,21.78z"/>
	
		<radialGradient id="SVGID_5_" cx="-11890.4082" cy="93.0842" r="71.9459" gradientTransform="matrix(-1 0 0 1 -11781.1172 0)" gradientUnits="userSpaceOnUse">
		<stop  offset="0" style="stop-color:#C8FF00"/>
		<stop  offset="1" style="stop-color:#C8FF00;stop-opacity:0"/>
	</radialGradient>
	<circle fill-rule="evenodd" clip-rule="evenodd" fill="url(#SVGID_5_)" cx="109.29" cy="93.08" r="79.34"/>
	
		<linearGradient id="SVGID_6_" gradientUnits="userSpaceOnUse" x1="7843.7661" y1="-6937.083" x2="7824.73" y2="-6937.083" gradientTransform="matrix(0.6564 0.7544 -0.604 0.5256 -9251.7188 -2077.6812)">
		<stop  offset="0" style="stop-color:#C8FF00"/>
		<stop  offset="0.1018" style="stop-color:#AFC52D"/>
		<stop  offset="0.2078" style="stop-color:#999056"/>
		<stop  offset="0.3118" style="stop-color:#866478"/>
		<stop  offset="0.4115" style="stop-color:#784293"/>
		<stop  offset="0.5057" style="stop-color:#6D2AA6"/>
		<stop  offset="0.5922" style="stop-color:#671BB1"/>
		<stop  offset="0.6638" style="stop-color:#6516B5"/>
	</linearGradient>
	<path fill-rule="evenodd" clip-rule="evenodd" fill="url(#SVGID_6_)" d="M44.11,218.79l-0.14-0.16c-3.4-3.91-2.98-9.88,0.92-13.28
		l59.55-51.82c3.91-3.4,9.88-2.98,13.28,0.92l0.14,0.16c3.4,3.91,2.98,9.88-0.92,13.28l-59.55,51.82
		C53.49,223.11,47.51,222.69,44.11,218.79z"/>
	<g>
		
			<linearGradient id="SVGID_7_" gradientUnits="userSpaceOnUse" x1="9125.5371" y1="-8311.7402" x2="9137.9004" y2="-8302.793" gradientTransform="matrix(0.4182 0.9084 -0.9084 0.4182 -11273.1143 -4613.8315)">
			<stop  offset="0" style="stop-color:#C8FF00"/>
			<stop  offset="0.1018" style="stop-color:#AFC52D"/>
			<stop  offset="0.2078" style="stop-color:#999056"/>
			<stop  offset="0.3118" style="stop-color:#866478"/>
			<stop  offset="0.4115" style="stop-color:#784293"/>
			<stop  offset="0.5057" style="stop-color:#6D2AA6"/>
			<stop  offset="0.5922" style="stop-color:#671BB1"/>
			<stop  offset="0.6638" style="stop-color:#6516B5"/>
		</linearGradient>
		<path fill-rule="evenodd" clip-rule="evenodd" fill="url(#SVGID_7_)" d="M42.11,212.32L42.11,212.32
			c-0.03-5.23,4.24-9.54,9.47-9.57l85.79-0.59l0.1,19.04l-85.79,0.59C46.44,221.82,42.13,217.56,42.11,212.32z"/>
		
			<linearGradient id="SVGID_8_" gradientUnits="userSpaceOnUse" x1="9909.5488" y1="-5283.6729" x2="9925.2969" y2="-5258.9263" gradientTransform="matrix(0.7912 0.6116 -0.6116 0.7912 -10925.4277 -1678.8091)">
			<stop  offset="0" style="stop-color:#C8FF00"/>
			<stop  offset="0.1018" style="stop-color:#AFC52D"/>
			<stop  offset="0.2078" style="stop-color:#999056"/>
			<stop  offset="0.3118" style="stop-color:#866478"/>
			<stop  offset="0.4115" style="stop-color:#784293"/>
			<stop  offset="0.5057" style="stop-color:#6D2AA6"/>
			<stop  offset="0.5922" style="stop-color:#671BB1"/>
			<stop  offset="0.6638" style="stop-color:#6516B5"/>
		</linearGradient>
		<path fill-rule="evenodd" clip-rule="evenodd" fill="url(#SVGID_8_)" d="M132.02,202.46l25.29-0.07l-0.13,33.53l-2.36-0.03
			c-5.58-0.08-10.24-4.26-10.92-9.8l-0.38-3.11c-0.86-5.76-6.12-6.39-9.16-6.41C130.08,216.55,132.02,202.46,132.02,202.46z"/>
		
			<linearGradient id="SVGID_9_" gradientUnits="userSpaceOnUse" x1="9918.9922" y1="-5288.7461" x2="9939.7588" y2="-5261.0576" gradientTransform="matrix(0.7912 0.6116 -0.6116 0.7912 -10925.4277 -1678.8091)">
			<stop  offset="0" style="stop-color:#C8FF00"/>
			<stop  offset="0.1018" style="stop-color:#AFC52D"/>
			<stop  offset="0.2078" style="stop-color:#999056"/>
			<stop  offset="0.3118" style="stop-color:#866478"/>
			<stop  offset="0.4115" style="stop-color:#784293"/>
			<stop  offset="0.5057" style="stop-color:#6D2AA6"/>
			<stop  offset="0.5922" style="stop-color:#671BB1"/>
			<stop  offset="0.6638" style="stop-color:#6516B5"/>
		</linearGradient>
		<polygon fill-rule="evenodd" clip-rule="evenodd" fill="url(#SVGID_9_)" points="153.91,238.29 154.23,202.41 159.17,202.45 
			158.84,238.33 		"/>
	</g>
	
		<linearGradient id="SVGID_10_" gradientUnits="userSpaceOnUse" x1="11346.3535" y1="-5929.875" x2="11379.0615" y2="-5883.3232" gradientTransform="matrix(0.6505 0.7595 -0.7595 0.6505 -11784.6924 -4673.3823)">
		<stop  offset="0" style="stop-color:#C8FF00"/>
		<stop  offset="0.0355" style="stop-color:#C1EE0D"/>
		<stop  offset="0.2015" style="stop-color:#A0A248"/>
		<stop  offset="0.3497" style="stop-color:#876677"/>
		<stop  offset="0.4748" style="stop-color:#753B99"/>
		<stop  offset="0.5719" style="stop-color:#6920AD"/>
		<stop  offset="0.6292" style="stop-color:#6516B5"/>
	</linearGradient>
	<path fill-rule="evenodd" clip-rule="evenodd" fill="url(#SVGID_10_)" d="M94.55,162.42L94.55,162.42
		c9.96,0.45,19.53-6.54,21.51-16.69l8.39-47.36c1.48-7.61-4.22-14.71-11.68-14.54l-34.8,0.76c-7.16,0.16-12.45,6.96-11.1,14.29
		l8.5,46.27C77.14,154.83,85.1,161.99,94.55,162.42z"/>
	
		<linearGradient id="SVGID_11_" gradientUnits="userSpaceOnUse" x1="3.7852" y1="-11307.3965" x2="-10.6004" y2="-11288.2158" gradientTransform="matrix(0.0535 -0.9303 -0.8218 0.1654 -9232.2588 1948.411)">
		<stop  offset="0" style="stop-color:#C8FF00"/>
		<stop  offset="0.1018" style="stop-color:#AFC52D"/>
		<stop  offset="0.2078" style="stop-color:#999056"/>
		<stop  offset="0.3118" style="stop-color:#866478"/>
		<stop  offset="0.4115" style="stop-color:#784293"/>
		<stop  offset="0.5057" style="stop-color:#6D2AA6"/>
		<stop  offset="0.5922" style="stop-color:#671BB1"/>
		<stop  offset="0.6638" style="stop-color:#6516B5"/>
	</linearGradient>
	<path fill-rule="evenodd" clip-rule="evenodd" fill="url(#SVGID_11_)" d="M77.38,95.17l-0.08,0.14c-2.05,3.55-6.63,4.77-10.17,2.73
		L32.12,77.83c-3.55-2.05-4.77-6.63-2.73-10.17l0.08-0.14c2.05-3.55,6.63-4.77,10.17-2.73L74.66,85
		C78.21,87.05,79.43,91.63,77.38,95.17z"/>
	
		<linearGradient id="SVGID_12_" gradientUnits="userSpaceOnUse" x1="9729.2676" y1="-5045.5073" x2="9745.7529" y2="-5044.0234" gradientTransform="matrix(0.8954 0.4453 -0.4453 0.8954 -10922.3887 237.3183)">
		<stop  offset="0" style="stop-color:#C8FF00"/>
		<stop  offset="0.1018" style="stop-color:#AFC52D"/>
		<stop  offset="0.2078" style="stop-color:#999056"/>
		<stop  offset="0.3118" style="stop-color:#866478"/>
		<stop  offset="0.4115" style="stop-color:#784293"/>
		<stop  offset="0.5057" style="stop-color:#6D2AA6"/>
		<stop  offset="0.5922" style="stop-color:#671BB1"/>
		<stop  offset="0.6638" style="stop-color:#6516B5"/>
	</linearGradient>
	<path fill-rule="evenodd" clip-rule="evenodd" fill="url(#SVGID_12_)" d="M47.13,32.48l13.48,6.7l-17.6,35.4
		c-1.82,3.67-6.32,5.18-9.98,3.35l-0.15-0.07c-3.67-1.82-5.18-6.32-3.35-9.98L47.13,32.48z"/>
	<g>
		
			<linearGradient id="SVGID_13_" gradientUnits="userSpaceOnUse" x1="-6713.6924" y1="-16869.4277" x2="-6765.0415" y2="-16816.8066" gradientTransform="matrix(-0.887 -0.4617 -0.4617 0.887 -13637.1504 11991.2559)">
			<stop  offset="0" style="stop-color:#C8FF00"/>
			<stop  offset="0.1534" style="stop-color:#AFC52D"/>
			<stop  offset="0.313" style="stop-color:#999056"/>
			<stop  offset="0.4697" style="stop-color:#866478"/>
			<stop  offset="0.6199" style="stop-color:#784293"/>
			<stop  offset="0.7618" style="stop-color:#6D2AA6"/>
			<stop  offset="0.8921" style="stop-color:#671BB1"/>
			<stop  offset="1" style="stop-color:#6516B5"/>
		</linearGradient>
		<path fill-rule="evenodd" clip-rule="evenodd" fill="url(#SVGID_13_)" d="M109.7,130.13c0.05,0.02,0.09,0.05,0.13,0.07l0.05-0.09
			l44.59,22.93c2.44,1.27,2.24,4.91-0.34,5.87l-21.54,6.79c-2.69,0.9-3.09,2.73-2.51,5.06l6.66,21.12c0.73,2.67-2.07,4.93-4.52,3.65
			l-44.49-22.87l0,0c-0.05-0.02-0.09-0.04-0.14-0.07c-11.72-6.1-16.28-20.55-10.18-32.28S97.97,124.03,109.7,130.13z"/>
		
			<ellipse transform="matrix(0.4617 -0.887 0.887 0.4617 -59.4888 214.0808)" fill-rule="evenodd" clip-rule="evenodd" fill="#C8FF00" cx="146.65" cy="156.06" rx="2.25" ry="2.25"/>
		
			<ellipse transform="matrix(0.4617 -0.887 0.887 0.4617 -64.4374 207.8181)" fill-rule="evenodd" clip-rule="evenodd" fill="#C8FF00" cx="139.01" cy="157" rx="2.25" ry="2.25"/>
		
			<linearGradient id="SVGID_14_" gradientUnits="userSpaceOnUse" x1="11078.3799" y1="108.2244" x2="11103.1475" y2="110.4536" gradientTransform="matrix(1 0 0 1 -11074.9707 0)">
			<stop  offset="0" style="stop-color:#C8FF00"/>
			<stop  offset="0.1018" style="stop-color:#AFC52D"/>
			<stop  offset="0.2078" style="stop-color:#999056"/>
			<stop  offset="0.3118" style="stop-color:#866478"/>
			<stop  offset="0.4115" style="stop-color:#784293"/>
			<stop  offset="0.5057" style="stop-color:#6D2AA6"/>
			<stop  offset="0.5922" style="stop-color:#671BB1"/>
			<stop  offset="0.6638" style="stop-color:#6516B5"/>
		</linearGradient>
		<polygon fill-rule="evenodd" clip-rule="evenodd" fill="url(#SVGID_14_)" points="2.99,105.44 7.66,96.79 31.02,105.18 
			21.94,121.71 		"/>
		
			<rect x="2.93" y="132.96" transform="matrix(0.887 0.4617 -0.4617 0.887 68.484 -12.9001)" fill-rule="evenodd" clip-rule="evenodd" fill="#C8FF00" width="115.35" height="1.07"/>
		
			<rect x="4.15" y="130.71" transform="matrix(0.887 0.4617 -0.4617 0.887 67.587 -13.7192)" fill-rule="evenodd" clip-rule="evenodd" fill="#C8FF00" width="115.35" height="1.07"/>
		
			<rect x="5.35" y="128.46" transform="matrix(0.887 0.4617 -0.4617 0.887 66.6828 -14.5274)" fill-rule="evenodd" clip-rule="evenodd" fill="#C8FF00" width="115.35" height="1.07"/>
	</g>
	
		<linearGradient id="SVGID_15_" gradientUnits="userSpaceOnUse" x1="-8518.834" y1="10253.624" x2="-8533.2197" y2="10272.8047" gradientTransform="matrix(-0.8053 0.4688 0.5915 0.594 -12815.6172 -1981.4033)">
		<stop  offset="0" style="stop-color:#C8FF00"/>
		<stop  offset="0.1018" style="stop-color:#AFC52D"/>
		<stop  offset="0.2078" style="stop-color:#999056"/>
		<stop  offset="0.3118" style="stop-color:#866478"/>
		<stop  offset="0.4115" style="stop-color:#784293"/>
		<stop  offset="0.5057" style="stop-color:#6D2AA6"/>
		<stop  offset="0.5922" style="stop-color:#671BB1"/>
		<stop  offset="0.6638" style="stop-color:#6516B5"/>
	</linearGradient>
	<path fill-rule="evenodd" clip-rule="evenodd" fill="url(#SVGID_15_)" d="M118.13,90.07l0.16-0.01c4.09-0.25,7.64,2.89,7.89,6.98
		l2.47,40.35c0.25,4.09-2.89,7.64-6.98,7.89l-0.16,0.01c-4.09,0.25-7.64-2.89-7.89-6.98l-2.47-40.35
		C110.9,93.87,114.04,90.32,118.13,90.07z"/>
	
		<linearGradient id="SVGID_16_" gradientUnits="userSpaceOnUse" x1="-11461.4863" y1="5844.6733" x2="-11449.3447" y2="5848.3799" gradientTransform="matrix(-0.9069 -0.4213 0.4213 -0.9069 -12751.5186 657.869)">
		<stop  offset="0" style="stop-color:#C8FF00"/>
		<stop  offset="0.1018" style="stop-color:#AFC52D"/>
		<stop  offset="0.2078" style="stop-color:#999056"/>
		<stop  offset="0.3118" style="stop-color:#866478"/>
		<stop  offset="0.4115" style="stop-color:#784293"/>
		<stop  offset="0.5057" style="stop-color:#6D2AA6"/>
		<stop  offset="0.5922" style="stop-color:#671BB1"/>
		<stop  offset="0.6638" style="stop-color:#6516B5"/>
	</linearGradient>
	<path fill-rule="evenodd" clip-rule="evenodd" fill="url(#SVGID_16_)" d="M98.34,189.34c3.11,1.44,6.79,0.09,8.24-3.01l0.1-0.3l0,0
		l3.98-8.57c0.09-0.19,0.01-0.41-0.18-0.49l-7.97-3.7c-0.09-0.04-0.18-0.05-0.28-0.02l-5.19,1.75c-2.11,0.71-3.84,2.26-4.78,4.28
		l-1.12,2.41c-0.92,1.95-0.08,4.28,1.88,5.19L98.34,189.34z"/>
	
		<linearGradient id="SVGID_17_" gradientUnits="userSpaceOnUse" x1="-11766.3574" y1="6878.7368" x2="-11749.8721" y2="6880.2202" gradientTransform="matrix(-0.9009 -0.434 0.434 -0.9009 -13465.2578 1251.5619)">
		<stop  offset="0" style="stop-color:#C8FF00"/>
		<stop  offset="0.1018" style="stop-color:#AFC52D"/>
		<stop  offset="0.2078" style="stop-color:#999056"/>
		<stop  offset="0.3118" style="stop-color:#866478"/>
		<stop  offset="0.4115" style="stop-color:#784293"/>
		<stop  offset="0.5057" style="stop-color:#6D2AA6"/>
		<stop  offset="0.5922" style="stop-color:#671BB1"/>
		<stop  offset="0.6638" style="stop-color:#6516B5"/>
	</linearGradient>
	<path fill-rule="evenodd" clip-rule="evenodd" fill="url(#SVGID_17_)" d="M109.44,180.17l-13.56-6.53l17.16-35.62
		c1.78-3.69,6.25-5.25,9.94-3.48l0.15,0.07c3.69,1.78,5.25,6.25,3.48,9.94L109.44,180.17z"/>
	
		<ellipse transform="matrix(0.5244 -0.8515 0.8515 0.5244 -48.8491 103.4275)" fill-rule="evenodd" clip-rule="evenodd" fill="#6516B5" cx="68.16" cy="95.44" rx="3.28" ry="3.28"/>
	<g>
		<g>
			<path fill-rule="evenodd" clip-rule="evenodd" fill="#C8FF00" d="M102.77,61.05l-26.37,43.38L56.85,92.54l26.37-43.38
				c3.25-5.34,10.21-7.04,15.55-3.79l0.21,0.13C104.32,48.74,106.02,55.7,102.77,61.05z"/>
			<polygon fill-rule="evenodd" clip-rule="evenodd" fill="#C8FF00" points="57.62,103.96 62.6,111.89 66.61,107.11 			"/>
			
				<linearGradient id="SVGID_18_" gradientUnits="userSpaceOnUse" x1="1839.4216" y1="9584.3184" x2="1812.2885" y2="9584.5205" gradientTransform="matrix(-0.7087 0.7055 0.7055 0.7087 -5398.6099 -7984.855)">
				<stop  offset="0" style="stop-color:#C8FF00"/>
				<stop  offset="0.4706" style="stop-color:#6516B5"/>
			</linearGradient>
			<circle fill-rule="evenodd" clip-rule="evenodd" fill="url(#SVGID_18_)" cx="67.22" cy="97.73" r="11.49"/>
			<path fill-rule="evenodd" clip-rule="evenodd" fill="#6516B5" d="M62.64,101.65l0.01-0.01c0.32-0.32,0.32-0.84,0-1.17l-1.3-1.3
				c-0.32-0.32-0.84-0.32-1.17,0l-0.01,0.01c-0.32,0.32-0.32,0.84,0,1.17l1.3,1.3C61.79,101.97,62.32,101.97,62.64,101.65z"/>
		</g>
		<path fill-rule="evenodd" clip-rule="evenodd" fill="#C8FF00" d="M78.03,93.88c-5.02-4.91-7.51,0.47-7.51,0.47l-6.34-3.57
			c-2.49-1.4-5.65-0.71-7.28,1.64c-0.07,0.1-0.09,0.14-0.06,0.12c0.28-0.21,8.06-10.49,8.06-10.49l12.62,4.91L78.03,93.88z"/>
	</g>
	<g>
		
			<linearGradient id="SVGID_19_" gradientUnits="userSpaceOnUse" x1="-11921.4756" y1="221.2533" x2="-11936.6172" y2="229.5599" gradientTransform="matrix(-1 0 0 1 -11781.1172 0)">
			<stop  offset="0" style="stop-color:#C8FF00"/>
			<stop  offset="0.1018" style="stop-color:#AFC52D"/>
			<stop  offset="0.2078" style="stop-color:#999056"/>
			<stop  offset="0.3118" style="stop-color:#866478"/>
			<stop  offset="0.4115" style="stop-color:#784293"/>
			<stop  offset="0.5057" style="stop-color:#6D2AA6"/>
			<stop  offset="0.5922" style="stop-color:#671BB1"/>
			<stop  offset="0.6638" style="stop-color:#6516B5"/>
		</linearGradient>
		<path fill="url(#SVGID_19_)" d="M149.63,224.12c-1.93,1.27-3.76,1.88-5.8,1.88l-0.17-1.49c1.3-0.09,2.68-0.25,4.65-1.73
			L149.63,224.12z"/>
		
			<linearGradient id="SVGID_20_" gradientUnits="userSpaceOnUse" x1="-11926.0078" y1="212.9909" x2="-11941.1504" y2="221.2976" gradientTransform="matrix(-1 0 0 1 -11781.1172 0)">
			<stop  offset="0" style="stop-color:#C8FF00"/>
			<stop  offset="0.1018" style="stop-color:#AFC52D"/>
			<stop  offset="0.2078" style="stop-color:#999056"/>
			<stop  offset="0.3118" style="stop-color:#866478"/>
			<stop  offset="0.4115" style="stop-color:#784293"/>
			<stop  offset="0.5057" style="stop-color:#6D2AA6"/>
			<stop  offset="0.5922" style="stop-color:#671BB1"/>
			<stop  offset="0.6638" style="stop-color:#6516B5"/>
		</linearGradient>
		<path fill="url(#SVGID_20_)" d="M146.52,219.95c0.01,0.03,0.08,0.15,0.17,0.3c-2.93-5.64-3.25-14.37-3.25-17.9H145
			c0,10.37,2.34,21.46,8.91,21.46v1.56c-2.9,0-5-1.58-6.52-3.93c-1.2,0.79-2.45,1.29-3.84,1.51l-0.2-0.73
			c0.01-0.25-0.04-0.5-0.14-0.73C144.21,221.26,145.27,220.96,146.52,219.95z"/>
		
			<linearGradient id="SVGID_21_" gradientUnits="userSpaceOnUse" x1="-11920.7197" y1="222.6301" x2="-11935.8623" y2="230.9367" gradientTransform="matrix(-1 0 0 1 -11781.1172 0)">
			<stop  offset="0" style="stop-color:#C8FF00"/>
			<stop  offset="0.1018" style="stop-color:#AFC52D"/>
			<stop  offset="0.2078" style="stop-color:#999056"/>
			<stop  offset="0.3118" style="stop-color:#866478"/>
			<stop  offset="0.4115" style="stop-color:#784293"/>
			<stop  offset="0.5057" style="stop-color:#6D2AA6"/>
			<stop  offset="0.5922" style="stop-color:#671BB1"/>
			<stop  offset="0.6638" style="stop-color:#6516B5"/>
		</linearGradient>
		<path fill="url(#SVGID_21_)" d="M152.62,226.19c-2.12,2.01-6.38,3.21-7.8,3.23c0,0-0.43-1.2-0.49-1.44c1.95-0.29,5-1.18,7.05-2.82
			C151.42,225.26,152.53,226.05,152.62,226.19z"/>
	</g>
	<path fill="#C8FF00" d="M72.42,126.26l25.96-10.77c0.18-0.08,0.31-0.25,0.32-0.45c0.01-0.2-0.09-0.38-0.26-0.48L88,107.74
		l9.33,0.77c0.16,0.02,0.32-0.03,0.44-0.14c0.12-0.11,0.17-0.27,0.16-0.43l-2.6-22.45l-1.03,0.12l2.52,21.78l-10.88-0.8
		c-0.25-0.04-0.49,0.11-0.57,0.34c-0.08,0.24,0.01,0.5,0.23,0.62l11.42,7.39L72.03,125.3L72.42,126.26z"/>
</g>
</svg>
