<?xml version="1.0" encoding="utf-8"?>
<!-- Generator: Adobe Illustrator 21.0.2, SVG Export Plug-In . SVG Version: 6.00 Build 0)  -->
<svg version="1.1" id="Layer_1" xmlns="http://www.w3.org/2000/svg" xmlns:xlink="http://www.w3.org/1999/xlink" x="0px" y="0px"
	 viewBox="0 0 76.72 76.71" enable-background="new 0 0 76.72 76.71" xml:space="preserve">
<g>
	<path fill-rule="evenodd" clip-rule="evenodd" fill="#6516B5" d="M59.9,59.97c-12.02,12.02-31.52,12.02-43.54,0
		s-12.02-31.52,0-43.54s31.52-12.02,43.54,0S71.92,47.94,59.9,59.97z M75.61,57.73L75.61,57.73c1.37,1.37,1.37,3.6,0,4.97
		L62.63,75.68c-1.37,1.37-3.6,1.37-4.97,0l0,0c-1.37-1.37-1.37-3.6,0-4.97l12.98-12.98C72.01,56.35,74.24,56.35,75.61,57.73z
		 M1.03,19.06L1.03,19.06c-1.38-1.38-1.38-3.61,0-4.98L14,1.1c1.38-1.38,3.61-1.38,4.98,0l0,0c1.38,1.38,1.38,3.61,0,4.98
		L6.02,19.06C4.64,20.43,2.41,20.43,1.03,19.06z M19.1,75.57L19.1,75.57c-1.31,1.31-3.44,1.31-4.75,0l-13.2-13.2
		c-1.31-1.31-1.31-3.44,0-4.75l0,0c1.31-1.31,3.44-1.31,4.75,0l13.2,13.2C20.41,72.13,20.41,74.26,19.1,75.57z M57.71,1.05
		L57.71,1.05c1.4-1.4,3.68-1.4,5.08,0l12.87,12.87c1.4,1.4,1.4,3.68,0,5.08v0c-1.4,1.4-3.68,1.4-5.08,0L57.71,6.14
		C56.31,4.73,56.31,2.46,57.71,1.05z"/>
	<circle fill-rule="evenodd" clip-rule="evenodd" fill="#6516B5" cx="38.32" cy="38.39" r="25.98"/>
	<path fill-rule="evenodd" clip-rule="evenodd" fill="#FFFFFF" d="M40.64,27.44H21.53v-2.22h19.11V27.44z M40.64,30.77H29.4V33
		h11.24V30.77z M54.57,30.77H43.01V33h11.57V30.77z M54.57,36.26H29.4v2.22h25.17V36.26z M33.05,41.74H29.4v2.22h3.65V41.74z
		 M54.57,41.74H35.64v2.22h18.94V41.74z M32.97,47.22H21.53v2.22h11.44V47.22z"/>
</g>
</svg>
