<?xml version="1.0" encoding="utf-8"?>
<!-- Generator: Adobe Illustrator 21.0.2, SVG Export Plug-In . SVG Version: 6.00 Build 0)  -->
<svg version="1.1" id="Layer_1" xmlns="http://www.w3.org/2000/svg" xmlns:xlink="http://www.w3.org/1999/xlink" x="0px" y="0px"
	 viewBox="0 0 174.4 254.2" enable-background="new 0 0 174.4 254.2" xml:space="preserve">
<g>
	<linearGradient id="SVGID_1_" gradientUnits="userSpaceOnUse" x1="87.3623" y1="315.9171" x2="87.3623" y2="-41.6892">
		<stop  offset="0" style="stop-color:#8c8c8f"/>
		<stop  offset="1" style="stop-color:#8c8c8f;stop-opacity:0"/>
	</linearGradient>
	<rect x="36.36" fill="url(#SVGID_1_)" width="102" height="106.18"/>
	<rect x="83.9" y="166.82" fill-rule="evenodd" clip-rule="evenodd" fill="#303034" width="27.14" height="17.45"/>
	<linearGradient id="SVGID_2_" gradientUnits="userSpaceOnUse" x1="87.6844" y1="263.9668" x2="87.6844" y2="-5.0629">
		<stop  offset="0" style="stop-color:#8c8c8f"/>
		<stop  offset="1" style="stop-color:#8c8c8f;stop-opacity:0"/>
	</linearGradient>
	<path fill="url(#SVGID_2_)" d="M7.55,2.3v154.97h9.25c1.36-3.06,2.75-6.11,4.19-9.13c3.54-7.43,7.32-14.77,11.75-21.62
		c1.85-2.85,3.77-5.9,6.16-8.25c1.98-1.94-0.48-8.78,2.05-9.66c11.83-4.14,29.15,6.4,41.15,6.28c8.69-0.08,17.47-1.1,25.94-3.29
		c5.9-1.53,12.19-4.62,18.22-2.07c4.71,1.99,8.64,5.92,12.01,9.9c3.99,4.72,7.45,9.99,10.51,15.47c2.53,4.53,4.9,9.27,6.58,14.26
		c0.87,2.59,1.67,5.33,2.25,8.12h10.19V2.3H7.55z"/>
	
		<linearGradient id="SVGID_3_" gradientUnits="userSpaceOnUse" x1="-4187.5601" y1="-387.3169" x2="-4187.0034" y2="-404.1209" gradientTransform="matrix(0.778 -0.6282 -0.6282 -0.778 3036.1838 -2816.9109)">
		<stop  offset="0" style="stop-color:#8c8c8f"/>
		<stop  offset="0.1534" style="stop-color:#AFC52D"/>
		<stop  offset="0.313" style="stop-color:#999056"/>
		<stop  offset="0.4697" style="stop-color:#866478"/>
		<stop  offset="0.6199" style="stop-color:#784293"/>
		<stop  offset="0.7618" style="stop-color:#6D2AA6"/>
		<stop  offset="0.8921" style="stop-color:#671BB1"/>
		<stop  offset="1" style="stop-color:#303034"/>
	</linearGradient>
	<path fill-rule="evenodd" clip-rule="evenodd" fill="url(#SVGID_3_)" d="M7.94,144.97l13.57,7.84l25.94-44.93
		c2.16-3.73,0.86-8.55-2.87-10.71l0,0c-3.73-2.16-8.55-0.86-10.71,2.87L7.94,144.97z"/>
	
		<linearGradient id="SVGID_4_" gradientUnits="userSpaceOnUse" x1="1778.5239" y1="-5203.1445" x2="1779.0803" y2="-5219.9487" gradientTransform="matrix(-0.778 -0.6282 0.6282 -0.778 4805.9214 -2816.9109)">
		<stop  offset="0" style="stop-color:#8c8c8f"/>
		<stop  offset="0.1534" style="stop-color:#AFC52D"/>
		<stop  offset="0.313" style="stop-color:#999056"/>
		<stop  offset="0.4697" style="stop-color:#866478"/>
		<stop  offset="0.6199" style="stop-color:#784293"/>
		<stop  offset="0.7618" style="stop-color:#6D2AA6"/>
		<stop  offset="0.8921" style="stop-color:#671BB1"/>
		<stop  offset="1" style="stop-color:#303034"/>
	</linearGradient>
	<path fill-rule="evenodd" clip-rule="evenodd" fill="url(#SVGID_4_)" d="M166.93,143.8l-13.57,7.84l-25.94-44.93
		c-2.16-3.73-0.86-8.55,2.87-10.71l0,0c3.73-2.16,8.55-0.86,10.71,2.87L166.93,143.8z"/>
	<path fill-rule="evenodd" clip-rule="evenodd" fill="#303034" d="M72.22,244.17h4.23c4.29,0,7.79-3.51,7.79-7.79l0-92.55
		c0-2.58-2.11-4.69-4.69-4.69H69.11c-2.58,0-4.69,2.11-4.69,4.69l0,92.55C64.43,240.67,67.93,244.17,72.22,244.17z"/>
	
		<linearGradient id="SVGID_5_" gradientUnits="userSpaceOnUse" x1="-2675.1167" y1="-5291.5488" x2="-2691.6941" y2="-5289.9238" gradientTransform="matrix(0.076 -0.9971 0.9971 0.076 5593.3345 -2165.5781)">
		<stop  offset="0" style="stop-color:#8c8c8f"/>
		<stop  offset="0.1534" style="stop-color:#AFC52D"/>
		<stop  offset="0.313" style="stop-color:#999056"/>
		<stop  offset="0.4697" style="stop-color:#866478"/>
		<stop  offset="0.6199" style="stop-color:#784293"/>
		<stop  offset="0.7618" style="stop-color:#6D2AA6"/>
		<stop  offset="0.8921" style="stop-color:#671BB1"/>
		<stop  offset="1" style="stop-color:#303034"/>
	</linearGradient>
	<path fill-rule="evenodd" clip-rule="evenodd" fill="url(#SVGID_5_)" d="M86.52,117.5L86.52,117.5c-1.28-4.12,1.04-8.53,5.16-9.81
		l40.02-12.44c4.12-1.28,8.53,1.04,9.81,5.16l0,0c1.28,4.12-1.04,8.53-5.16,9.81l-40.02,12.44C92.22,123.93,87.8,121.61,86.52,117.5
		z"/>
	
		<linearGradient id="SVGID_6_" gradientUnits="userSpaceOnUse" x1="-1182.1469" y1="2224.3652" x2="-1198.7241" y2="2225.9905" gradientTransform="matrix(-0.0727 -0.9974 -0.9974 0.0727 2193.7561 -1240.6821)">
		<stop  offset="0" style="stop-color:#8c8c8f"/>
		<stop  offset="0.1534" style="stop-color:#AFC52D"/>
		<stop  offset="0.313" style="stop-color:#999056"/>
		<stop  offset="0.4697" style="stop-color:#866478"/>
		<stop  offset="0.6199" style="stop-color:#784293"/>
		<stop  offset="0.7618" style="stop-color:#6D2AA6"/>
		<stop  offset="0.8921" style="stop-color:#671BB1"/>
		<stop  offset="1" style="stop-color:#303034"/>
	</linearGradient>
	<path fill-rule="evenodd" clip-rule="evenodd" fill="url(#SVGID_6_)" d="M88.42,117.85L88.42,117.85c1.29-4.11-1.01-8.53-5.12-9.83
		L43.31,95.44c-4.11-1.29-8.53,1.01-9.83,5.12l0,0c-1.29,4.11,1.01,8.53,5.12,9.83l39.98,12.58
		C82.7,124.27,87.12,121.96,88.42,117.85z"/>
	
		<linearGradient id="SVGID_7_" gradientUnits="userSpaceOnUse" x1="3829.8164" y1="-3392.5103" x2="3859.0496" y2="-3350.9033" gradientTransform="matrix(-0.6399 0.8833 0.7689 0.7181 5141.8828 -839.2814)">
		<stop  offset="0" style="stop-color:#8c8c8f"/>
		<stop  offset="0.0355" style="stop-color:#C1EE0D"/>
		<stop  offset="0.2015" style="stop-color:#A0A248"/>
		<stop  offset="0.3497" style="stop-color:#876677"/>
		<stop  offset="0.4748" style="stop-color:#753B99"/>
		<stop  offset="0.5719" style="stop-color:#6920AD"/>
		<stop  offset="0.6292" style="stop-color:#303034"/>
	</linearGradient>
	<path fill-rule="evenodd" clip-rule="evenodd" fill="url(#SVGID_7_)" d="M88.61,184.23L88.61,184.23
		c-10.36,0.72-20.44-6.02-22.66-16.13l-1.46-16.35l-8.02-30.82c-1.66-7.57,4.17-14.83,11.93-14.86l36.25-0.17
		c7.46-0.03,13.07,6.63,11.78,14l-7.28,32.23l-0.84,14.3C106.62,176.17,98.45,183.55,88.61,184.23z"/>
	<linearGradient id="SVGID_8_" gradientUnits="userSpaceOnUse" x1="64.3837" y1="162.4894" x2="108.5896" y2="162.4894">
		<stop  offset="0" style="stop-color:#8c8c8f"/>
		<stop  offset="0.1534" style="stop-color:#AFC52D"/>
		<stop  offset="0.313" style="stop-color:#999056"/>
		<stop  offset="0.4697" style="stop-color:#866478"/>
		<stop  offset="0.6199" style="stop-color:#784293"/>
		<stop  offset="0.7618" style="stop-color:#6D2AA6"/>
		<stop  offset="0.8921" style="stop-color:#671BB1"/>
		<stop  offset="1" style="stop-color:#303034"/>
	</linearGradient>
	<path fill-rule="evenodd" clip-rule="evenodd" fill="url(#SVGID_8_)" d="M64.38,158.64c0,13.95,44.21,13.95,44.21,0v-2.77
		c-4.5,10.28-39.39,8.64-44.21,0V158.64z"/>
	
		<linearGradient id="SVGID_9_" gradientUnits="userSpaceOnUse" x1="4622.7627" y1="49.5015" x2="4644.2554" y2="87.7512" gradientTransform="matrix(-1 6.676767e-05 -6.676809e-05 1.077 4748.0962 116.9228)">
		<stop  offset="0" style="stop-color:#8c8c8f"/>
		<stop  offset="0.1018" style="stop-color:#AFC52D"/>
		<stop  offset="0.2078" style="stop-color:#999056"/>
		<stop  offset="0.3118" style="stop-color:#866478"/>
		<stop  offset="0.4115" style="stop-color:#784293"/>
		<stop  offset="0.5057" style="stop-color:#6D2AA6"/>
		<stop  offset="0.5922" style="stop-color:#671BB1"/>
		<stop  offset="0.6638" style="stop-color:#303034"/>
	</linearGradient>
	<path fill-rule="evenodd" clip-rule="evenodd" fill="url(#SVGID_9_)" d="M109.46,156.54L109.46,156.54c-5.45,0-9.91,3.66-9.92,8.15
		l-0.09,74.38l19.82,0.02l0.09-74.38C119.37,160.22,114.91,156.54,109.46,156.54z"/>
	
		<linearGradient id="SVGID_10_" gradientUnits="userSpaceOnUse" x1="4636.936" y1="231.9546" x2="4636.936" y2="260.9747" gradientTransform="matrix(-1 0 0 1 4748.1978 0)">
		<stop  offset="0" style="stop-color:#8c8c8f"/>
		<stop  offset="0.1018" style="stop-color:#AFC52D"/>
		<stop  offset="0.2078" style="stop-color:#999056"/>
		<stop  offset="0.3118" style="stop-color:#866478"/>
		<stop  offset="0.4115" style="stop-color:#784293"/>
		<stop  offset="0.5057" style="stop-color:#6D2AA6"/>
		<stop  offset="0.5922" style="stop-color:#671BB1"/>
		<stop  offset="0.6638" style="stop-color:#303034"/>
	</linearGradient>
	<path fill-rule="evenodd" clip-rule="evenodd" fill="url(#SVGID_10_)" d="M119.04,246.94l4.8,0.69v-4.12
		c0-6.32-4.54-11.43-10.14-11.43h-4.89c-5.6,0-10.14,5.12-10.14,11.43v4.12L119.04,246.94z"/>
	<ellipse fill-rule="evenodd" clip-rule="evenodd" fill="#303034" cx="111.31" cy="247.43" rx="12.62" ry="6.77"/>
	<path fill-rule="evenodd" clip-rule="evenodd" fill="#303034" d="M166.05,142.41l-9.62-0.61l-2.63,5.01l-0.13,0.64
		c-0.99,4.87-0.14,9.93,2.37,14.21l0,0l3.18-2.19l2.56,4.1l12.63-7.75L166.05,142.41z"/>
	<path fill-rule="evenodd" clip-rule="evenodd" fill="#303034" d="M8.71,143.35l10.03-0.64l2.74,5.22l0.14,0.67
		c1.03,5.07,0.15,10.35-2.47,14.81h0l-3.31-2.28l-2.67,4.27L0,157.32L8.71,143.35z"/>
	<linearGradient id="SVGID_11_" gradientUnits="userSpaceOnUse" x1="64.4657" y1="108.2648" x2="64.4657" y2="171.4718">
		<stop  offset="0" style="stop-color:#8c8c8f"/>
		<stop  offset="0.1534" style="stop-color:#AFC52D"/>
		<stop  offset="0.313" style="stop-color:#999056"/>
		<stop  offset="0.4697" style="stop-color:#866478"/>
		<stop  offset="0.6199" style="stop-color:#784293"/>
		<stop  offset="0.7618" style="stop-color:#6D2AA6"/>
		<stop  offset="0.8921" style="stop-color:#671BB1"/>
		<stop  offset="1" style="stop-color:#303034"/>
	</linearGradient>
	<path fill-rule="evenodd" clip-rule="evenodd" fill="url(#SVGID_11_)" d="M51.79,98.38v29.14c0,4.77,2.68,9.14,6.93,11.3
		l18.42,9.37V105.7L51.79,98.38z"/>
	
		<linearGradient id="SVGID_12_" gradientUnits="userSpaceOnUse" x1="-11665.1768" y1="108.2648" x2="-11665.1768" y2="171.4718" gradientTransform="matrix(-1 0 0 1 -11555.6416 0)">
		<stop  offset="0" style="stop-color:#8c8c8f"/>
		<stop  offset="0.1534" style="stop-color:#AFC52D"/>
		<stop  offset="0.313" style="stop-color:#999056"/>
		<stop  offset="0.4697" style="stop-color:#866478"/>
		<stop  offset="0.6199" style="stop-color:#784293"/>
		<stop  offset="0.7618" style="stop-color:#6D2AA6"/>
		<stop  offset="0.8921" style="stop-color:#671BB1"/>
		<stop  offset="1" style="stop-color:#303034"/>
	</linearGradient>
	<path fill-rule="evenodd" clip-rule="evenodd" fill="url(#SVGID_12_)" d="M122.21,98.38v29.14c0,4.77-2.68,9.14-6.93,11.3
		l-18.42,9.37l0-42.49L122.21,98.38z"/>
	<g>
		<linearGradient id="SVGID_13_" gradientUnits="userSpaceOnUse" x1="74.2925" y1="115.3393" x2="96.9757" y2="102.5522">
			<stop  offset="0" style="stop-color:#8c8c8f"/>
			<stop  offset="0.1534" style="stop-color:#AFC52D"/>
			<stop  offset="0.313" style="stop-color:#999056"/>
			<stop  offset="0.4697" style="stop-color:#866478"/>
			<stop  offset="0.6199" style="stop-color:#784293"/>
			<stop  offset="0.7618" style="stop-color:#6D2AA6"/>
			<stop  offset="0.8921" style="stop-color:#671BB1"/>
			<stop  offset="1" style="stop-color:#303034"/>
		</linearGradient>
		<circle fill-rule="evenodd" clip-rule="evenodd" fill="url(#SVGID_13_)" cx="75.31" cy="114.77" r="3.74"/>
		<linearGradient id="SVGID_14_" gradientUnits="userSpaceOnUse" x1="80.1597" y1="125.7471" x2="102.8428" y2="112.96">
			<stop  offset="0" style="stop-color:#8c8c8f"/>
			<stop  offset="0.1534" style="stop-color:#AFC52D"/>
			<stop  offset="0.313" style="stop-color:#999056"/>
			<stop  offset="0.4697" style="stop-color:#866478"/>
			<stop  offset="0.6199" style="stop-color:#784293"/>
			<stop  offset="0.7618" style="stop-color:#6D2AA6"/>
			<stop  offset="0.8921" style="stop-color:#671BB1"/>
			<stop  offset="1" style="stop-color:#303034"/>
		</linearGradient>
		<circle fill-rule="evenodd" clip-rule="evenodd" fill="url(#SVGID_14_)" cx="99.64" cy="114.77" r="3.74"/>
		<linearGradient id="SVGID_15_" gradientUnits="userSpaceOnUse" x1="77.4743" y1="120.9835" x2="100.1575" y2="108.1964">
			<stop  offset="0" style="stop-color:#8c8c8f"/>
			<stop  offset="0.1534" style="stop-color:#AFC52D"/>
			<stop  offset="0.313" style="stop-color:#999056"/>
			<stop  offset="0.4697" style="stop-color:#866478"/>
			<stop  offset="0.6199" style="stop-color:#784293"/>
			<stop  offset="0.7618" style="stop-color:#6D2AA6"/>
			<stop  offset="0.8921" style="stop-color:#671BB1"/>
			<stop  offset="1" style="stop-color:#303034"/>
		</linearGradient>
		<circle fill-rule="evenodd" clip-rule="evenodd" fill="url(#SVGID_15_)" cx="87.57" cy="115.29" r="12.87"/>
		<path fill-rule="evenodd" clip-rule="evenodd" fill="#8c8c8f" d="M100.48,115.29c-4.79-6.33-21.27-5.73-25.7,0l0-29.12
			c0-7.1,5.75-12.85,12.85-12.85h0c7.1,0,12.85,5.75,12.85,12.85L100.48,115.29z"/>
		<path fill-rule="evenodd" clip-rule="evenodd" fill="#303034" d="M92.11,122.06L92.11,122.06c0.49,0,0.89-0.4,0.89-0.89v-1.62
			c0-0.49-0.4-0.89-0.89-0.89l0,0c-0.49,0-0.89,0.4-0.89,0.89v1.62C91.21,121.65,91.61,122.06,92.11,122.06z"/>
		<path fill-rule="evenodd" clip-rule="evenodd" fill="#303034" d="M82.59,122.06L82.59,122.06c0.49,0,0.89-0.4,0.89-0.89v-1.62
			c0-0.49-0.4-0.89-0.89-0.89l0,0c-0.49,0-0.89,0.4-0.89,0.89v1.62C81.7,121.65,82.1,122.06,82.59,122.06z"/>
		<linearGradient id="SVGID_16_" gradientUnits="userSpaceOnUse" x1="82.2065" y1="129.378" x2="104.8897" y2="116.5909">
			<stop  offset="0" style="stop-color:#8c8c8f"/>
			<stop  offset="0.1534" style="stop-color:#AFC52D"/>
			<stop  offset="0.313" style="stop-color:#999056"/>
			<stop  offset="0.4697" style="stop-color:#866478"/>
			<stop  offset="0.6199" style="stop-color:#784293"/>
			<stop  offset="0.7618" style="stop-color:#6D2AA6"/>
			<stop  offset="0.8921" style="stop-color:#671BB1"/>
			<stop  offset="1" style="stop-color:#303034"/>
		</linearGradient>
		<polygon fill-rule="evenodd" clip-rule="evenodd" fill="url(#SVGID_16_)" points="87.47,122.45 84.39,127.84 87.56,130.32 
			90.7,127.79 		"/>
	</g>
</g>
</svg>
