<?xml version="1.0" encoding="utf-8"?>
<!-- Generator: Adobe Illustrator 21.0.2, SVG Export Plug-In . SVG Version: 6.00 Build 0)  -->
<svg version="1.1" id="Layer_1" xmlns="http://www.w3.org/2000/svg" xmlns:xlink="http://www.w3.org/1999/xlink" x="0px" y="0px"
	 viewBox="0 0 198.77 252.78" enable-background="new 0 0 198.77 252.78" xml:space="preserve">
<g>
	<radialGradient id="SVGID_1_" cx="82.9454" cy="120.7219" r="75.2125" gradientUnits="userSpaceOnUse">
		<stop  offset="0" style="stop-color:#C8FF00"/>
		<stop  offset="1" style="stop-color:#C8FF00;stop-opacity:0"/>
	</radialGradient>
	<circle fill-rule="evenodd" clip-rule="evenodd" fill="url(#SVGID_1_)" cx="82.95" cy="120.72" r="82.95"/>
	
		<linearGradient id="SVGID_2_" gradientUnits="userSpaceOnUse" x1="1020.599" y1="-5378.5229" x2="1021.2183" y2="-5397.2251" gradientTransform="matrix(-0.8402 -0.5423 0.5423 -0.8402 3945.2515 -3860.3621)">
		<stop  offset="0" style="stop-color:#C8FF00"/>
		<stop  offset="0.1534" style="stop-color:#AFC52D"/>
		<stop  offset="0.313" style="stop-color:#999056"/>
		<stop  offset="0.4697" style="stop-color:#866478"/>
		<stop  offset="0.6199" style="stop-color:#784293"/>
		<stop  offset="0.7618" style="stop-color:#6D2AA6"/>
		<stop  offset="0.8921" style="stop-color:#671BB1"/>
		<stop  offset="1" style="stop-color:#6516B5"/>
	</linearGradient>
	<path fill-rule="evenodd" clip-rule="evenodd" fill="url(#SVGID_2_)" d="M189.64,139.18l-12.35,9l-36.61-51.06
		c-2.31-3.17-1.6-7.65,1.56-9.95l0.84-0.61c3.17-2.31,7.65-1.6,9.95,1.56L189.64,139.18z"/>
	
		<linearGradient id="SVGID_3_" gradientUnits="userSpaceOnUse" x1="-4345.0239" y1="-5832.9375" x2="-4361.5239" y2="-5831.3198" gradientTransform="matrix(-0.1877 -1.0138 1.1259 -0.3653 5875.98 -6437.2041)">
		<stop  offset="0" style="stop-color:#C8FF00"/>
		<stop  offset="0.1534" style="stop-color:#AFC52D"/>
		<stop  offset="0.313" style="stop-color:#999056"/>
		<stop  offset="0.4697" style="stop-color:#866478"/>
		<stop  offset="0.6199" style="stop-color:#784293"/>
		<stop  offset="0.7618" style="stop-color:#6D2AA6"/>
		<stop  offset="0.8921" style="stop-color:#671BB1"/>
		<stop  offset="1" style="stop-color:#6516B5"/>
	</linearGradient>
	<path fill-rule="evenodd" clip-rule="evenodd" fill="url(#SVGID_3_)" d="M99.37,127.59L99.37,127.59c-2.48-3.4-1.73-8.2,1.67-10.68
		l42.54-31.05c3.4-2.48,8.2-1.73,10.68,1.67v0c2.48,3.4,1.73,8.2-1.67,10.68l-42.54,31.05C106.66,131.74,101.85,130.98,99.37,127.59
		z"/>
	<linearGradient id="SVGID_4_" gradientUnits="userSpaceOnUse" x1="63.3208" y1="122.3864" x2="62.5193" y2="136.2805">
		<stop  offset="0" style="stop-color:#C8FF00"/>
		<stop  offset="0.1534" style="stop-color:#AFC52D"/>
		<stop  offset="0.313" style="stop-color:#999056"/>
		<stop  offset="0.4697" style="stop-color:#866478"/>
		<stop  offset="0.6199" style="stop-color:#784293"/>
		<stop  offset="0.7618" style="stop-color:#6D2AA6"/>
		<stop  offset="0.8921" style="stop-color:#671BB1"/>
		<stop  offset="1" style="stop-color:#6516B5"/>
	</linearGradient>
	<path fill-rule="evenodd" clip-rule="evenodd" fill="url(#SVGID_4_)" d="M89.67,138.29L89.67,138.29c1.26-4.01-0.99-8.32-5-9.58
		l-38.99-12.27c-4.01-1.26-8.32,0.99-9.58,5l0,0c-1.26,4.01,0.99,8.32,5,9.58l38.99,12.27C84.1,144.55,88.41,142.3,89.67,138.29z"/>
	<linearGradient id="SVGID_5_" gradientUnits="userSpaceOnUse" x1="105.9972" y1="111.3615" x2="108.1535" y2="139.6637">
		<stop  offset="0" style="stop-color:#C8FF00"/>
		<stop  offset="0.1534" style="stop-color:#AFC52D"/>
		<stop  offset="0.313" style="stop-color:#999056"/>
		<stop  offset="0.4697" style="stop-color:#866478"/>
		<stop  offset="0.6199" style="stop-color:#784293"/>
		<stop  offset="0.7618" style="stop-color:#6D2AA6"/>
		<stop  offset="0.8921" style="stop-color:#671BB1"/>
		<stop  offset="1" style="stop-color:#6516B5"/>
	</linearGradient>
	<path fill-rule="evenodd" clip-rule="evenodd" fill="url(#SVGID_5_)" d="M131.54,190.14L131.54,190.14
		c9.41-4.19,15.02-15.08,12.15-25.38l-14.17-47.64c-2.15-7.71-10.71-11.63-17.52-8.03L80.19,125.9c-6.54,3.46-8.28,12.19-3.64,18.34
		l29.26,38.82C111.93,191.19,122.6,194.12,131.54,190.14z"/>
	<path fill="#6516B5" d="M108.97,108.97l-2.16-1.11l2.43-4.72c2.21-4.29,2.67-6.94-2.1-14.28c-4.98-7.67-3.88-16.31,3.29-25.66
		l1.93,1.48c-6.56,8.57-7.6,16.05-3.18,22.86c5.16,7.95,4.86,11.58,2.22,16.71L108.97,108.97z"/>
	<path fill-rule="evenodd" clip-rule="evenodd" fill="#6516B5" d="M189.29,137.44l-9.4,0.4l-2.03,5.13l-0.06,0.63
		c-0.46,4.82,0.89,9.64,3.77,13.54v0l2.86-2.45l2.9,3.71l11.45-8.82L189.29,137.44z"/>
	
		<linearGradient id="SVGID_6_" gradientUnits="userSpaceOnUse" x1="149.4261" y1="-28.2724" x2="120.15" y2="-23.5951" gradientTransform="matrix(1 -1.126554e-04 -1.126557e-04 1.1298 -0.1165 134.2162)">
		<stop  offset="0" style="stop-color:#C8FF00"/>
		<stop  offset="0.1018" style="stop-color:#AFC52D"/>
		<stop  offset="0.2078" style="stop-color:#999056"/>
		<stop  offset="0.3118" style="stop-color:#866478"/>
		<stop  offset="0.4115" style="stop-color:#784293"/>
		<stop  offset="0.5057" style="stop-color:#6D2AA6"/>
		<stop  offset="0.5922" style="stop-color:#671BB1"/>
		<stop  offset="0.6638" style="stop-color:#6516B5"/>
	</linearGradient>
	<path fill-rule="evenodd" clip-rule="evenodd" fill="url(#SVGID_6_)" d="M134.36,182.58L134.36,182.58c5.31,0,9.67-4.04,9.67-8.98
		l0.11-144.69l-19.33-0.02l-0.11,144.69C124.7,178.53,129.05,182.58,134.36,182.58z"/>
	<path fill-rule="evenodd" clip-rule="evenodd" fill="#6516B5" d="M127.71,182.5L127.71,182.5c-0.47-5.29-5.19-9.24-10.48-8.77
		l-47.3,4.2c-5.29,0.47-9.24,5.19-8.77,10.48v0c0.47,5.29,5.19,9.24,10.48,8.77l47.3-4.2C124.24,192.51,128.19,187.79,127.71,182.5z
		"/>
	
		<linearGradient id="SVGID_7_" gradientUnits="userSpaceOnUse" x1="-9897.7051" y1="255.2763" x2="-9896.9346" y2="232.0154" gradientTransform="matrix(-0.5793 -0.8235 -0.8339 0.6296 -5431.918 -8091.6367)">
		<stop  offset="0" style="stop-color:#C8FF00"/>
		<stop  offset="0.1534" style="stop-color:#AFC52D"/>
		<stop  offset="0.313" style="stop-color:#999056"/>
		<stop  offset="0.4697" style="stop-color:#866478"/>
		<stop  offset="0.6199" style="stop-color:#784293"/>
		<stop  offset="0.7618" style="stop-color:#6D2AA6"/>
		<stop  offset="0.8921" style="stop-color:#671BB1"/>
		<stop  offset="1" style="stop-color:#6516B5"/>
	</linearGradient>
	<path fill-rule="evenodd" clip-rule="evenodd" fill="url(#SVGID_7_)" d="M133.94,240.8l10.4-16.12L75.7,180.54
		c-4.43-2.86-10.4-1.57-13.26,2.86l0,0c-2.86,4.43-1.57,10.4,2.86,13.26L133.94,240.8z"/>
	<g>
		<path fill-rule="evenodd" clip-rule="evenodd" fill="#C8FF00" d="M111.42,117.78c-4.67-6.18-20.75-5.59-25.06,0l0-12.23
			c0-6.92,5.61-12.53,12.53-12.53h0c6.92,0,12.53,5.61,12.53,12.53L111.42,117.78z"/>
		<linearGradient id="SVGID_8_" gradientUnits="userSpaceOnUse" x1="85.8833" y1="117.8214" x2="108.0046" y2="105.3511">
			<stop  offset="0" style="stop-color:#C8FF00"/>
			<stop  offset="0.1534" style="stop-color:#AFC52D"/>
			<stop  offset="0.313" style="stop-color:#999056"/>
			<stop  offset="0.4697" style="stop-color:#866478"/>
			<stop  offset="0.6199" style="stop-color:#784293"/>
			<stop  offset="0.7618" style="stop-color:#6D2AA6"/>
			<stop  offset="0.8921" style="stop-color:#671BB1"/>
			<stop  offset="1" style="stop-color:#6516B5"/>
		</linearGradient>
		<circle fill-rule="evenodd" clip-rule="evenodd" fill="url(#SVGID_8_)" cx="86.87" cy="117.26" r="3.65"/>
		<linearGradient id="SVGID_9_" gradientUnits="userSpaceOnUse" x1="91.6051" y1="127.9714" x2="113.7263" y2="115.501">
			<stop  offset="0" style="stop-color:#C8FF00"/>
			<stop  offset="0.1534" style="stop-color:#AFC52D"/>
			<stop  offset="0.313" style="stop-color:#999056"/>
			<stop  offset="0.4697" style="stop-color:#866478"/>
			<stop  offset="0.6199" style="stop-color:#784293"/>
			<stop  offset="0.7618" style="stop-color:#6D2AA6"/>
			<stop  offset="0.8921" style="stop-color:#671BB1"/>
			<stop  offset="1" style="stop-color:#6516B5"/>
		</linearGradient>
		<circle fill-rule="evenodd" clip-rule="evenodd" fill="url(#SVGID_9_)" cx="110.6" cy="117.26" r="3.65"/>
		<linearGradient id="SVGID_10_" gradientUnits="userSpaceOnUse" x1="88.9862" y1="123.3258" x2="111.1075" y2="110.8555">
			<stop  offset="0" style="stop-color:#C8FF00"/>
			<stop  offset="0.1534" style="stop-color:#AFC52D"/>
			<stop  offset="0.313" style="stop-color:#999056"/>
			<stop  offset="0.4697" style="stop-color:#866478"/>
			<stop  offset="0.6199" style="stop-color:#784293"/>
			<stop  offset="0.7618" style="stop-color:#6D2AA6"/>
			<stop  offset="0.8921" style="stop-color:#671BB1"/>
			<stop  offset="1" style="stop-color:#6516B5"/>
		</linearGradient>
		<circle fill-rule="evenodd" clip-rule="evenodd" fill="url(#SVGID_10_)" cx="98.83" cy="117.78" r="12.55"/>
		<path fill-rule="evenodd" clip-rule="evenodd" fill="#6516B5" d="M103.26,115.47L103.26,115.47c0.48,0,0.87-0.39,0.87-0.87v-1.58
			c0-0.48-0.39-0.87-0.87-0.87l0,0c-0.48,0-0.87,0.39-0.87,0.87v1.58C102.38,115.08,102.78,115.47,103.26,115.47z"/>
		<path fill-rule="evenodd" clip-rule="evenodd" fill="#6516B5" d="M93.98,115.47L93.98,115.47c0.48,0,0.87-0.39,0.87-0.87v-1.58
			c0-0.48-0.39-0.87-0.87-0.87l0,0c-0.48,0-0.87,0.39-0.87,0.87v1.58C93.11,115.08,93.5,115.47,93.98,115.47z"/>
		<linearGradient id="SVGID_11_" gradientUnits="userSpaceOnUse" x1="93.6012" y1="120.1904" x2="115.7225" y2="107.72">
			<stop  offset="0" style="stop-color:#C8FF00"/>
			<stop  offset="0.1534" style="stop-color:#AFC52D"/>
			<stop  offset="0.313" style="stop-color:#999056"/>
			<stop  offset="0.4697" style="stop-color:#866478"/>
			<stop  offset="0.6199" style="stop-color:#784293"/>
			<stop  offset="0.7618" style="stop-color:#6D2AA6"/>
			<stop  offset="0.8921" style="stop-color:#671BB1"/>
			<stop  offset="1" style="stop-color:#6516B5"/>
		</linearGradient>
		<polygon fill-rule="evenodd" clip-rule="evenodd" fill="url(#SVGID_11_)" points="98.74,113.44 95.73,118.7 98.82,121.11 
			101.88,118.64 		"/>
	</g>
	<linearGradient id="SVGID_12_" gradientUnits="userSpaceOnUse" x1="43.9305" y1="98.4779" x2="62.2091" y2="103.0476">
		<stop  offset="0" style="stop-color:#C8FF00"/>
		<stop  offset="0.1534" style="stop-color:#AFC52D"/>
		<stop  offset="0.313" style="stop-color:#999056"/>
		<stop  offset="0.4697" style="stop-color:#866478"/>
		<stop  offset="0.6199" style="stop-color:#784293"/>
		<stop  offset="0.7618" style="stop-color:#6D2AA6"/>
		<stop  offset="0.8921" style="stop-color:#671BB1"/>
		<stop  offset="1" style="stop-color:#6516B5"/>
	</linearGradient>
	<path fill-rule="evenodd" clip-rule="evenodd" fill="url(#SVGID_12_)" d="M80.05,79.15L67.2,70.88l-31.1,49.02
		c-2.12,3.29-1.16,7.73,2.13,9.85l0.87,0.56c3.29,2.12,7.73,1.16,9.85-2.13L80.05,79.15z"/>
	<path fill="#6516B5" d="M134.53,11.78L134.53,11.78c-5.39,0-9.8,4.41-9.8,9.8v15.84c0,5.39,4.41,9.8,9.8,9.8h0
		c5.39,0,9.8-4.41,9.8-9.8V21.58C144.33,16.19,139.92,11.78,134.53,11.78z"/>
	<linearGradient id="SVGID_13_" gradientUnits="userSpaceOnUse" x1="123.1873" y1="236.8318" x2="140.1396" y2="238.6574">
		<stop  offset="0" style="stop-color:#C8FF00"/>
		<stop  offset="0.1534" style="stop-color:#AFC52D"/>
		<stop  offset="0.313" style="stop-color:#999056"/>
		<stop  offset="0.4697" style="stop-color:#866478"/>
		<stop  offset="0.6199" style="stop-color:#784293"/>
		<stop  offset="0.7618" style="stop-color:#6D2AA6"/>
		<stop  offset="0.8921" style="stop-color:#671BB1"/>
		<stop  offset="1" style="stop-color:#6516B5"/>
	</linearGradient>
	<path fill-rule="evenodd" clip-rule="evenodd" fill="url(#SVGID_13_)" d="M150.62,228.79l-15.71,23.99l-3.55-2.33
		c-5.41-3.54-6.93-10.86-3.39-16.27l3.54-5.41c3.15-4.81,9.67-6.17,14.48-3.02L150.62,228.79z"/>
	<g>
		
			<linearGradient id="SVGID_14_" gradientUnits="userSpaceOnUse" x1="-2725.8652" y1="2726.7229" x2="-2633.8555" y2="2733.7407" gradientTransform="matrix(0.5449 -0.8385 0.8385 0.5449 -732.2492 -3717.6902)">
			<stop  offset="0" style="stop-color:#C8FF00"/>
			<stop  offset="0.1018" style="stop-color:#AFC52D"/>
			<stop  offset="0.2078" style="stop-color:#999056"/>
			<stop  offset="0.3118" style="stop-color:#866478"/>
			<stop  offset="0.4115" style="stop-color:#784293"/>
			<stop  offset="0.5057" style="stop-color:#6D2AA6"/>
			<stop  offset="0.5922" style="stop-color:#671BB1"/>
			<stop  offset="0.6638" style="stop-color:#6516B5"/>
		</linearGradient>
		<polygon fill-rule="evenodd" clip-rule="evenodd" fill="url(#SVGID_14_)" points="107.84,7.21 86.79,39.6 82.07,31.76 102.71,0 		
			"/>
		<path fill="#C8FF00" d="M54.14,54.91l-0.31-11.67c-0.04-1.54,0.38-3.04,1.22-4.33L74.57,8.88c0.68-1.04,1.82-1.68,3.06-1.71
			c1.24-0.02,2.41,0.56,3.14,1.57l3.73,5.2l-3.29,2.35l-3.48-4.86L58.44,41.12c-0.39,0.6-0.59,1.3-0.57,2.01l0.31,11.67L54.14,54.91
			z"/>
		
			<linearGradient id="SVGID_15_" gradientUnits="userSpaceOnUse" x1="-2706.8872" y1="2739.708" x2="-2678.252" y2="2765.4995" gradientTransform="matrix(0.5449 -0.8385 0.8385 0.5449 -732.2492 -3717.6902)">
			<stop  offset="0" style="stop-color:#C8FF00"/>
			<stop  offset="0.1018" style="stop-color:#AFC52D"/>
			<stop  offset="0.2078" style="stop-color:#999056"/>
			<stop  offset="0.3118" style="stop-color:#866478"/>
			<stop  offset="0.4115" style="stop-color:#784293"/>
			<stop  offset="0.5057" style="stop-color:#6D2AA6"/>
			<stop  offset="0.5922" style="stop-color:#671BB1"/>
			<stop  offset="0.6638" style="stop-color:#6516B5"/>
		</linearGradient>
		<polygon fill-rule="evenodd" clip-rule="evenodd" fill="url(#SVGID_15_)" points="101.96,18.91 49.18,100.14 37.35,80.48 
			89.11,0.84 		"/>
		
			<linearGradient id="SVGID_16_" gradientUnits="userSpaceOnUse" x1="-2699.9238" y1="2744.9207" x2="-2607.4277" y2="2751.9756" gradientTransform="matrix(0.5449 -0.8385 0.8385 0.5449 -732.2492 -3717.6902)">
			<stop  offset="0" style="stop-color:#C8FF00"/>
			<stop  offset="0.1018" style="stop-color:#AFC52D"/>
			<stop  offset="0.2078" style="stop-color:#999056"/>
			<stop  offset="0.3118" style="stop-color:#866478"/>
			<stop  offset="0.4115" style="stop-color:#784293"/>
			<stop  offset="0.5057" style="stop-color:#6D2AA6"/>
			<stop  offset="0.5922" style="stop-color:#671BB1"/>
			<stop  offset="0.6638" style="stop-color:#6516B5"/>
		</linearGradient>
		<polygon fill-rule="evenodd" clip-rule="evenodd" fill="url(#SVGID_16_)" points="83.68,81.13 79.24,87.96 65.52,64.49 
			69.96,57.67 		"/>
		
			<linearGradient id="SVGID_17_" gradientUnits="userSpaceOnUse" x1="-2747.5898" y1="2722.4031" x2="-2668.3472" y2="2721.6345" gradientTransform="matrix(0.5449 -0.8385 0.8385 0.5449 -732.2492 -3717.6902)">
			<stop  offset="0" style="stop-color:#C8FF00"/>
			<stop  offset="0.1018" style="stop-color:#AFC52D"/>
			<stop  offset="0.2078" style="stop-color:#999056"/>
			<stop  offset="0.3118" style="stop-color:#866478"/>
			<stop  offset="0.4115" style="stop-color:#784293"/>
			<stop  offset="0.5057" style="stop-color:#6D2AA6"/>
			<stop  offset="0.5922" style="stop-color:#671BB1"/>
			<stop  offset="0.6638" style="stop-color:#6516B5"/>
		</linearGradient>
		<path fill-rule="evenodd" clip-rule="evenodd" fill="url(#SVGID_17_)" d="M53.13,70.67l-0.74-1.78l35.34-54.38l2.95-1.32
			C90.68,13.19,53.13,70.43,53.13,70.67z"/>
		
			<linearGradient id="SVGID_18_" gradientUnits="userSpaceOnUse" x1="-2747.9968" y1="2726.752" x2="-2668.7542" y2="2725.9834" gradientTransform="matrix(0.5449 -0.8385 0.8385 0.5449 -732.2492 -3717.6902)">
			<stop  offset="0" style="stop-color:#C8FF00"/>
			<stop  offset="0.1018" style="stop-color:#AFC52D"/>
			<stop  offset="0.2078" style="stop-color:#999056"/>
			<stop  offset="0.3118" style="stop-color:#866478"/>
			<stop  offset="0.4115" style="stop-color:#784293"/>
			<stop  offset="0.5057" style="stop-color:#6D2AA6"/>
			<stop  offset="0.5922" style="stop-color:#671BB1"/>
			<stop  offset="0.6638" style="stop-color:#6516B5"/>
		</linearGradient>
		<path fill-rule="evenodd" clip-rule="evenodd" fill="url(#SVGID_18_)" d="M56.55,73.38l-0.74-1.78l35.34-54.38l2.95-1.32
			C94.1,15.9,56.56,73.14,56.55,73.38z"/>
	</g>
	
		<linearGradient id="SVGID_19_" gradientUnits="userSpaceOnUse" x1="-2772.3145" y1="2765.2627" x2="-2788.2827" y2="2765.2627" gradientTransform="matrix(0.5402 -0.8416 0.8416 0.5402 -751.4103 -3758.2146)">
		<stop  offset="0" style="stop-color:#C8FF00"/>
		<stop  offset="0.1018" style="stop-color:#AFC52D"/>
		<stop  offset="0.2078" style="stop-color:#999056"/>
		<stop  offset="0.3118" style="stop-color:#866478"/>
		<stop  offset="0.4115" style="stop-color:#784293"/>
		<stop  offset="0.5057" style="stop-color:#6D2AA6"/>
		<stop  offset="0.5922" style="stop-color:#671BB1"/>
		<stop  offset="0.6638" style="stop-color:#6516B5"/>
	</linearGradient>
	<path fill-rule="evenodd" clip-rule="evenodd" fill="url(#SVGID_19_)" d="M78.04,64.24l6.33,9.22l-3.57,5.56
		c-0.57,0.89-1.88,0.89-2.45,0l-4.65-7.19c-0.33-0.5-0.31-1.15,0.04-1.64C75.03,68.38,78.04,64.24,78.04,64.24z M68.17,69.55
		l-3.94,6.14l3.62,2.32l3.94-6.14c0.46-0.72,0.45-1.64-0.02-2.34l0,0C70.92,68.23,69.01,68.25,68.17,69.55z"/>
	<path fill-rule="evenodd" clip-rule="evenodd" fill="#6516B5" d="M86.36,118.49c0-6.92,5.61-12.53,12.53-12.53h0
		c6.92,0,12.53,5.61,12.53,12.53v-2.43c0-6.92-5.61-12.53-12.53-12.53h0c-6.92,0-12.53,5.61-12.53,12.53V118.49z"/>
	<path fill="#C8FF00" d="M108.17,175.46l-4.93-30.56c-1.2-0.89-9.35-7.76-9.55-15.69l0.82,0.27c0.19,7.99,9.24,14.81,9.33,14.87
		l0.14,0.1l4.98,30.89L108.17,175.46z"/>
	<path fill="#C8FF00" d="M76.35,144.26l-0.48-0.81c1.87-2.46,4.98-9.03,4.25-18.04l0.8-0.1C81.94,136.6,76.88,143.56,76.35,144.26z"
		/>
	<path fill="#C8FF00" d="M125.85,158.18l-11.8-18.85l0.06-0.18c0.03-0.09,3-8.71-3.64-16.66l0.34-0.91
		c6.4,7.65,4.5,16.26,4.13,17.63l10.82,17.23L125.85,158.18z"/>
	<path fill="#C8FF00" d="M124.77,118.64c-0.18-0.05-4.44-1.25-6.49-10.68l0.79-0.17c1.93,8.88,5.65,9.94,5.69,9.95L124.77,118.64z"
		/>
</g>
</svg>
