<?xml version="1.0" encoding="utf-8"?>
<!-- Generator: Adobe Illustrator 21.0.2, SVG Export Plug-In . SVG Version: 6.00 Build 0)  -->
<svg version="1.1" id="Layer_1" xmlns="http://www.w3.org/2000/svg" xmlns:xlink="http://www.w3.org/1999/xlink" x="0px" y="0px"
	 viewBox="0 0 193.89 271.72" enable-background="new 0 0 193.89 271.72" xml:space="preserve">
<g>
	<linearGradient id="SVGID_1_" gradientUnits="userSpaceOnUse" x1="155.9755" y1="36.1658" x2="164.7966" y2="60.1204">
		<stop  offset="0" style="stop-color:#C8FF00"/>
		<stop  offset="0.1018" style="stop-color:#AFC52D"/>
		<stop  offset="0.2078" style="stop-color:#999056"/>
		<stop  offset="0.3118" style="stop-color:#866478"/>
		<stop  offset="0.4115" style="stop-color:#784293"/>
		<stop  offset="0.5057" style="stop-color:#6D2AA6"/>
		<stop  offset="0.5922" style="stop-color:#671BB1"/>
		<stop  offset="0.6638" style="stop-color:#6516B5"/>
	</linearGradient>
	<path fill-rule="evenodd" clip-rule="evenodd" fill="url(#SVGID_1_)" d="M169.01,55.91l-6.93,3.31c-0.45,0.22-1,0.02-1.21-0.43
		l-13.88-29.02c-0.22-0.45-0.02-1,0.43-1.21l6.93-3.31c0.45-0.22,1-0.02,1.21,0.43l13.88,29.02
		C169.65,55.14,169.46,55.69,169.01,55.91z"/>
	
		<radialGradient id="SVGID_2_" cx="-7618.1128" cy="49.2828" r="44.6883" gradientTransform="matrix(-1 0 0 1 -7473.5103 0)" gradientUnits="userSpaceOnUse">
		<stop  offset="0" style="stop-color:#C8FF00"/>
		<stop  offset="1" style="stop-color:#C8FF00;stop-opacity:0"/>
	</radialGradient>
	<circle fill-rule="evenodd" clip-rule="evenodd" fill="url(#SVGID_2_)" cx="144.6" cy="49.28" r="49.28"/>
	<g>
		<polygon fill-rule="evenodd" clip-rule="evenodd" fill="#C8FF00" points="144.23,85.51 151.19,90.57 146.55,93.94 		"/>
		
			<linearGradient id="SVGID_3_" gradientUnits="userSpaceOnUse" x1="17946.4297" y1="3215.3936" x2="17921.5176" y2="3215.5791" gradientTransform="matrix(0.971 -0.2392 0.2392 0.971 -18047.209 1261.3175)">
			<stop  offset="0" style="stop-color:#C8FF00"/>
			<stop  offset="0.4706" style="stop-color:#6516B5"/>
		</linearGradient>
		<circle fill-rule="evenodd" clip-rule="evenodd" fill="url(#SVGID_3_)" cx="137.47" cy="93.03" r="10.55"/>
		<path fill-rule="evenodd" clip-rule="evenodd" fill="#6516B5" d="M143.52,88.06L143.52,88.06c-0.26,0.33-0.74,0.4-1.07,0.14
			l-1.32-1.02c-0.33-0.26-0.4-0.74-0.14-1.07l0,0c0.26-0.33,0.74-0.4,1.07-0.14l1.32,1.02C143.71,87.25,143.78,87.73,143.52,88.06z"
			/>
		<path fill-rule="evenodd" clip-rule="evenodd" fill="#C8FF00" d="M138.16,82.52c0.03-0.03,0.06-0.06,0.08-0.1H94.09
			c-5.41,0-9.8,4.39-9.8,9.8v0.32c0,5.41,4.39,9.8,9.8,9.8h37.82C126.42,96.21,128.52,84.08,138.16,82.52z"/>
		
			<ellipse transform="matrix(1 -5.894412e-03 5.894412e-03 1 -0.5531 0.7613)" fill-rule="evenodd" clip-rule="evenodd" fill="#6516B5" cx="128.87" cy="94.21" rx="3.02" ry="3.02"/>
	</g>
	
		<linearGradient id="SVGID_4_" gradientUnits="userSpaceOnUse" x1="-4906.1406" y1="-2892.4492" x2="-4891.6821" y2="-2869.729" gradientTransform="matrix(-0.6019 -0.7986 -0.7986 0.6019 -5226.4497 -2071.0098)">
		<stop  offset="0" style="stop-color:#C8FF00"/>
		<stop  offset="0.1018" style="stop-color:#AFC52D"/>
		<stop  offset="0.2078" style="stop-color:#999056"/>
		<stop  offset="0.3118" style="stop-color:#866478"/>
		<stop  offset="0.4115" style="stop-color:#784293"/>
		<stop  offset="0.5057" style="stop-color:#6D2AA6"/>
		<stop  offset="0.5922" style="stop-color:#671BB1"/>
		<stop  offset="0.6638" style="stop-color:#6516B5"/>
	</linearGradient>
	<path fill-rule="evenodd" clip-rule="evenodd" fill="url(#SVGID_4_)" d="M35.14,119.15l0.35-23.22L4.71,95.67l0,2.17
		c0.01,5.12,3.8,9.45,8.88,10.14l2.85,0.39c5.28,0.85,5.8,5.69,5.78,8.48C22.19,120.77,35.14,119.15,35.14,119.15z"/>
	
		<linearGradient id="SVGID_5_" gradientUnits="userSpaceOnUse" x1="-4897.48" y1="-2897.1216" x2="-4878.4141" y2="-2871.7004" gradientTransform="matrix(-0.6019 -0.7986 -0.7986 0.6019 -5226.4497 -2071.0098)">
		<stop  offset="0" style="stop-color:#C8FF00"/>
		<stop  offset="0.1018" style="stop-color:#AFC52D"/>
		<stop  offset="0.2078" style="stop-color:#999056"/>
		<stop  offset="0.3118" style="stop-color:#866478"/>
		<stop  offset="0.4115" style="stop-color:#784293"/>
		<stop  offset="0.5057" style="stop-color:#6D2AA6"/>
		<stop  offset="0.5922" style="stop-color:#671BB1"/>
		<stop  offset="0.6638" style="stop-color:#6516B5"/>
	</linearGradient>
	<polygon fill-rule="evenodd" clip-rule="evenodd" fill="url(#SVGID_5_)" points="2.5,98.65 35.44,98.75 35.45,94.23 2.51,94.12 	
		"/>
	
		<linearGradient id="SVGID_6_" gradientUnits="userSpaceOnUse" x1="-4216.1816" y1="-4153.0381" x2="-4209.1909" y2="-4127.6172" gradientTransform="matrix(-0.6047 -0.7965 -0.7965 0.6047 -5812.8716 -699.0652)">
		<stop  offset="0" style="stop-color:#C8FF00"/>
		<stop  offset="0.1534" style="stop-color:#AFC52D"/>
		<stop  offset="0.313" style="stop-color:#999056"/>
		<stop  offset="0.4697" style="stop-color:#866478"/>
		<stop  offset="0.6199" style="stop-color:#784293"/>
		<stop  offset="0.7618" style="stop-color:#6D2AA6"/>
		<stop  offset="0.8921" style="stop-color:#671BB1"/>
		<stop  offset="1" style="stop-color:#6516B5"/>
	</linearGradient>
	<path fill-rule="evenodd" clip-rule="evenodd" fill="url(#SVGID_6_)" d="M26.42,198.18L26.42,198.18c4.81,0.01,8.75-3.91,8.76-8.71
		l0.24-74.94l-17.48-0.05l-0.24,74.94C17.69,194.22,21.62,198.16,26.42,198.18z"/>
	
		<linearGradient id="SVGID_7_" gradientUnits="userSpaceOnUse" x1="-6934.0464" y1="229.9525" x2="-6941.6401" y2="237.5465" gradientTransform="matrix(-1 0 -0.5262 1 -6741.5591 0)">
		<stop  offset="0" style="stop-color:#C8FF00"/>
		<stop  offset="0.1534" style="stop-color:#AFC52D"/>
		<stop  offset="0.313" style="stop-color:#999056"/>
		<stop  offset="0.4697" style="stop-color:#866478"/>
		<stop  offset="0.6199" style="stop-color:#784293"/>
		<stop  offset="0.7618" style="stop-color:#6D2AA6"/>
		<stop  offset="0.8921" style="stop-color:#671BB1"/>
		<stop  offset="1" style="stop-color:#6516B5"/>
	</linearGradient>
	<path fill-rule="evenodd" clip-rule="evenodd" fill="url(#SVGID_7_)" d="M80.5,220.76l-0.8,0.48c-8.68,5.16-15.69,12.7-20.2,21.74
		l-1.13,2.26l38.48,0.31l0.08-2.17c0.2-5.12-3.42-9.46-8.47-10.15L83,232.83c-4.82-0.86-1.32-4.91,0.17-7.7
		C85.28,221.2,80.5,220.76,80.5,220.76z"/>
	
		<linearGradient id="SVGID_8_" gradientUnits="userSpaceOnUse" x1="-7645.0488" y1="93.8322" x2="-7655.2173" y2="107.4961" gradientTransform="matrix(-0.9998 0.0175 0.0175 0.9998 -7536.8906 239.5558)">
		<stop  offset="0" style="stop-color:#C8FF00"/>
		<stop  offset="0.1018" style="stop-color:#AFC52D"/>
		<stop  offset="0.2078" style="stop-color:#999056"/>
		<stop  offset="0.3118" style="stop-color:#866478"/>
		<stop  offset="0.4115" style="stop-color:#784293"/>
		<stop  offset="0.5057" style="stop-color:#6D2AA6"/>
		<stop  offset="0.5922" style="stop-color:#671BB1"/>
		<stop  offset="0.6638" style="stop-color:#6516B5"/>
	</linearGradient>
	<path fill-rule="evenodd" clip-rule="evenodd" fill="url(#SVGID_8_)" d="M149.75,184.11L149.75,184.11
		c-2.44-4.14-7.82-5.53-11.96-3.09L73.2,219.03l8.87,15.06l64.58-38.02C150.8,193.64,152.19,188.25,149.75,184.11z"/>
	
		<linearGradient id="SVGID_9_" gradientUnits="userSpaceOnUse" x1="2502.0522" y1="-18385.4277" x2="2502.0894" y2="-18385.4805" gradientTransform="matrix(-4.489700e-11 -1 -1 4.489700e-11 -18346.2363 2650.4341)">
		<stop  offset="0" style="stop-color:#C8FF00"/>
		<stop  offset="0.1018" style="stop-color:#AFC52D"/>
		<stop  offset="0.2078" style="stop-color:#999056"/>
		<stop  offset="0.3118" style="stop-color:#866478"/>
		<stop  offset="0.4115" style="stop-color:#784293"/>
		<stop  offset="0.5057" style="stop-color:#6D2AA6"/>
		<stop  offset="0.5922" style="stop-color:#671BB1"/>
		<stop  offset="0.6638" style="stop-color:#6516B5"/>
	</linearGradient>
	<path fill-rule="evenodd" clip-rule="evenodd" fill="url(#SVGID_9_)" d="M39.18,148.36h0.08C39.23,148.39,39.2,148.39,39.18,148.36
		z"/>
	<linearGradient id="SVGID_10_" gradientUnits="userSpaceOnUse" x1="43.4907" y1="105.5725" x2="62.8966" y2="116.2457">
		<stop  offset="0" style="stop-color:#C8FF00"/>
		<stop  offset="0.1534" style="stop-color:#AFC52D"/>
		<stop  offset="0.313" style="stop-color:#999056"/>
		<stop  offset="0.4697" style="stop-color:#866478"/>
		<stop  offset="0.6199" style="stop-color:#784293"/>
		<stop  offset="0.7618" style="stop-color:#6D2AA6"/>
		<stop  offset="0.8921" style="stop-color:#671BB1"/>
		<stop  offset="1" style="stop-color:#6516B5"/>
	</linearGradient>
	<path fill-rule="evenodd" clip-rule="evenodd" fill="url(#SVGID_10_)" d="M34.96,127.32l9.77,9.77l33.28-33.28
		c2.69-2.69,2.69-7.09,0-9.77l0,0c-2.69-2.69-7.09-2.69-9.77,0L34.96,127.32z"/>
	<linearGradient id="SVGID_11_" gradientUnits="userSpaceOnUse" x1="117.1628" y1="157.7784" x2="107.4656" y2="182.3447">
		<stop  offset="0" style="stop-color:#C8FF00"/>
		<stop  offset="0.1534" style="stop-color:#AFC52D"/>
		<stop  offset="0.313" style="stop-color:#999056"/>
		<stop  offset="0.4697" style="stop-color:#866478"/>
		<stop  offset="0.6199" style="stop-color:#784293"/>
		<stop  offset="0.7618" style="stop-color:#6D2AA6"/>
		<stop  offset="0.8921" style="stop-color:#671BB1"/>
		<stop  offset="1" style="stop-color:#6516B5"/>
	</linearGradient>
	<path fill-rule="evenodd" clip-rule="evenodd" fill="url(#SVGID_11_)" d="M150.15,193.94L150.15,193.94
		c2.63-4.02,1.49-9.47-2.53-12.1L87.1,142.3c-4.02-2.63-9.47-1.49-12.1,2.53l0,0c-2.63,4.02-1.49,9.47,2.53,12.1l60.51,39.55
		C142.08,199.11,147.52,197.97,150.15,193.94z"/>
	<linearGradient id="SVGID_12_" gradientUnits="userSpaceOnUse" x1="42.6501" y1="133.514" x2="51.4001" y2="166.014">
		<stop  offset="0" style="stop-color:#C8FF00"/>
		<stop  offset="0.1534" style="stop-color:#AFC52D"/>
		<stop  offset="0.313" style="stop-color:#999056"/>
		<stop  offset="0.4697" style="stop-color:#866478"/>
		<stop  offset="0.6199" style="stop-color:#784293"/>
		<stop  offset="0.7618" style="stop-color:#6D2AA6"/>
		<stop  offset="0.8921" style="stop-color:#671BB1"/>
		<stop  offset="1" style="stop-color:#6516B5"/>
	</linearGradient>
	<path fill-rule="evenodd" clip-rule="evenodd" fill="url(#SVGID_12_)" d="M82.52,134.31L82.52,134.31c-3.4-3.4-8.96-3.4-12.36,0
		l-50.14,50.14c-3.4,3.4-3.4,8.96,0,12.36l0,0c3.4,3.4,8.96,3.4,12.36,0l50.14-50.14C85.92,143.27,85.92,137.71,82.52,134.31z"/>
	
		<linearGradient id="SVGID_13_" gradientUnits="userSpaceOnUse" x1="9167.0293" y1="14924.4736" x2="9153.8438" y2="14942.0537" gradientTransform="matrix(-0.1381 -0.9215 0.8335 0.0899 -11031.252 7218.0723)">
		<stop  offset="0" style="stop-color:#C8FF00"/>
		<stop  offset="0.1018" style="stop-color:#AFC52D"/>
		<stop  offset="0.2078" style="stop-color:#999056"/>
		<stop  offset="0.3118" style="stop-color:#866478"/>
		<stop  offset="0.4115" style="stop-color:#784293"/>
		<stop  offset="0.5057" style="stop-color:#6D2AA6"/>
		<stop  offset="0.5922" style="stop-color:#671BB1"/>
		<stop  offset="0.6638" style="stop-color:#6516B5"/>
	</linearGradient>
	<path fill-rule="evenodd" clip-rule="evenodd" fill="url(#SVGID_13_)" d="M128.64,132.39L128.64,132.39
		c2.19,3.11,6.53,3.85,9.63,1.66l30.19-21.32c3.11-2.19,3.85-6.53,1.66-9.63v0c-2.19-3.11-6.53-3.85-9.63-1.66l-30.19,21.32
		C127.2,124.95,126.45,129.29,128.64,132.39z"/>
	
		<linearGradient id="SVGID_14_" gradientUnits="userSpaceOnUse" x1="-7644.377" y1="17.5543" x2="-7628.4888" y2="18.9842" gradientTransform="matrix(-0.9999 -0.0111 -0.0111 0.9999 -7469.4136 -17.1615)">
		<stop  offset="0" style="stop-color:#C8FF00"/>
		<stop  offset="0.1018" style="stop-color:#AFC52D"/>
		<stop  offset="0.2078" style="stop-color:#999056"/>
		<stop  offset="0.3118" style="stop-color:#866478"/>
		<stop  offset="0.4115" style="stop-color:#784293"/>
		<stop  offset="0.5057" style="stop-color:#6D2AA6"/>
		<stop  offset="0.5922" style="stop-color:#671BB1"/>
		<stop  offset="0.6638" style="stop-color:#6516B5"/>
	</linearGradient>
	<path fill-rule="evenodd" clip-rule="evenodd" fill="url(#SVGID_14_)" d="M172.74,60.08l-13.82-0.15l-0.51,45.76
		c-0.04,3.8,3.03,6.95,6.83,6.99h0c3.8,0.04,6.95-3.03,6.99-6.83L172.74,60.08z"/>
	<linearGradient id="SVGID_15_" gradientUnits="userSpaceOnUse" x1="94.8475" y1="91.2115" x2="87.702" y2="108.2882">
		<stop  offset="0" style="stop-color:#C8FF00"/>
		<stop  offset="0.1534" style="stop-color:#AFC52D"/>
		<stop  offset="0.313" style="stop-color:#999056"/>
		<stop  offset="0.4697" style="stop-color:#866478"/>
		<stop  offset="0.6199" style="stop-color:#784293"/>
		<stop  offset="0.7618" style="stop-color:#6D2AA6"/>
		<stop  offset="0.8921" style="stop-color:#671BB1"/>
		<stop  offset="1" style="stop-color:#6516B5"/>
	</linearGradient>
	<path fill-rule="evenodd" clip-rule="evenodd" fill="url(#SVGID_15_)" d="M116.97,99.02L116.97,99.02c0-3.8-3.11-6.91-6.91-6.91
		H73.1c-3.8,0-6.91,3.11-6.91,6.91v0c0,3.8,3.11,6.91,6.91,6.91h36.96C113.86,105.93,116.97,102.82,116.97,99.02z"/>
	<linearGradient id="SVGID_16_" gradientUnits="userSpaceOnUse" x1="99.5863" y1="118.185" x2="108.3363" y2="150.685">
		<stop  offset="0" style="stop-color:#C8FF00"/>
		<stop  offset="0.0355" style="stop-color:#C1EE0D"/>
		<stop  offset="0.2015" style="stop-color:#A0A248"/>
		<stop  offset="0.3497" style="stop-color:#876677"/>
		<stop  offset="0.4748" style="stop-color:#753B99"/>
		<stop  offset="0.5719" style="stop-color:#6920AD"/>
		<stop  offset="0.6292" style="stop-color:#6516B5"/>
	</linearGradient>
	<path fill-rule="evenodd" clip-rule="evenodd" fill="url(#SVGID_16_)" d="M73.55,155.61L73.55,155.61
		c-6.26-6.68-7.11-17.52-1.21-24.97l28.02-34.14c4.42-5.57,12.78-5.84,17.12-0.54l20.26,24.72c4.17,5.09,2.58,12.84-3.34,16.28
		l-37.34,21.71C89.25,163.22,79.5,161.95,73.55,155.61z"/>
	<path fill="#6516B5" d="M22.53,250.35h112.32c6.92,0,13.55-2.75,18.44-7.64l3.57-3.57c1.12-1.12,1.12-2.93,0-4.04l0,0
		c-1.12-1.12-2.93-1.12-4.04,0l-2.73,2.73c-4.35,4.35-10.26,6.8-16.42,6.8H22.53c-5.44,0-10.55-2.12-14.39-5.96l-3.25-3.25
		c-1.12-1.12-2.93-1.12-4.04,0l0,0c-1.12,1.12-1.12,2.93,0,4.04l3.25,3.25C9.02,247.64,15.56,250.35,22.53,250.35z"/>
	<circle fill-rule="evenodd" clip-rule="evenodd" fill="#6516B5" cx="128.78" cy="263.5" r="7.75"/>
	<circle fill-rule="evenodd" clip-rule="evenodd" fill="#6516B5" cx="26.54" cy="263.98" r="7.75"/>
	<path fill="none" d="M67.37,136.2l0.23-0.92c30.62,7.77,53.89,4.36,71.14-10.44l0.62,0.72c-11.46,9.82-25.51,14.71-42.53,14.71
		C87.86,140.27,78.06,138.91,67.37,136.2z M95.62,132.44c15.6,0,28.48-4.48,38.99-13.49l-0.62-0.72
		c-15.8,13.54-37.11,16.67-65.15,9.55l-0.23,0.92C78.4,131.19,87.39,132.44,95.62,132.44z M94.39,124.61
		c14.19,0,25.9-4.07,35.45-12.26l-0.62-0.72c-14.34,12.29-33.69,15.13-59.15,8.67l-0.23,0.92
		C78.73,123.47,86.91,124.61,94.39,124.61z M93.16,116.77c12.77,0,23.31-3.67,31.91-11.04l-0.62-0.72
		c-12.89,11.05-30.27,13.59-53.15,7.79l-0.23,0.92C79.07,115.75,86.43,116.77,93.16,116.77z M91.93,108.94
		c11.35,0,20.73-3.26,28.38-9.82l-0.62-0.72c-11.43,9.8-26.86,12.06-47.16,6.9l-0.23,0.92C79.41,108.03,85.95,108.94,91.93,108.94z"
		/>
	<g>
		<path fill="#C8FF00" d="M69.96,136.9c0.09-0.31,0.2-0.61,0.31-0.91c29.68,7.15,52.35,3.58,69.25-10.9l0.62,0.72
			c-11.46,9.82-25.51,14.71-42.53,14.71C89.14,140.52,79.94,139.31,69.96,136.9z"/>
		<path fill="#C8FF00" d="M125.21,105.26l0.62,0.72c-8.6,7.38-19.14,11.04-31.91,11.04c-2.87,0-5.87-0.2-8.97-0.57l0.72-0.87
			C102,117.41,115.02,114,125.21,105.26z"/>
		<path fill="#C8FF00" d="M120.93,99.49c-7.62,6.48-16.95,9.7-28.23,9.7c-0.58,0-1.16-0.02-1.75-0.03l0.77-0.94
			c11.5,0.19,20.95-2.96,28.61-9.47L120.93,99.49z"/>
		<path fill="#C8FF00" d="M129.98,111.87l0.62,0.72c-9.55,8.19-21.27,12.26-35.45,12.26c-4.97,0-10.26-0.51-15.85-1.51l0.69-0.84
			C100.99,126.15,117.41,122.65,129.98,111.87z"/>
		<path fill="#C8FF00" d="M73.83,130.01l0.68-0.83c25.63,5.55,45.38,2.04,60.24-10.71l0.62,0.72
			c-10.51,9.01-23.39,13.49-38.99,13.49C89.41,132.69,81.9,131.79,73.83,130.01z"/>
	</g>
	<linearGradient id="SVGID_17_" gradientUnits="userSpaceOnUse" x1="30.7243" y1="126.9262" x2="30.7243" y2="146.3213">
		<stop  offset="0" style="stop-color:#C8FF00"/>
		<stop  offset="0.1018" style="stop-color:#AFC52D"/>
		<stop  offset="0.2078" style="stop-color:#999056"/>
		<stop  offset="0.3118" style="stop-color:#866478"/>
		<stop  offset="0.4115" style="stop-color:#784293"/>
		<stop  offset="0.5057" style="stop-color:#6D2AA6"/>
		<stop  offset="0.5922" style="stop-color:#671BB1"/>
		<stop  offset="0.6638" style="stop-color:#6516B5"/>
	</linearGradient>
	<polygon fill-rule="evenodd" clip-rule="evenodd" fill="url(#SVGID_17_)" points="17.73,144.21 23.9,148.65 36.07,148.32 
		43.64,140.34 43.72,135.66 35.31,126.39 35.31,133.08 17.92,133.08 	"/>
	<linearGradient id="SVGID_18_" gradientUnits="userSpaceOnUse" x1="140.5294" y1="32.489" x2="166.819" y2="49.7996">
		<stop  offset="0" style="stop-color:#C8FF00"/>
		<stop  offset="0.1018" style="stop-color:#AFC52D"/>
		<stop  offset="0.2078" style="stop-color:#999056"/>
		<stop  offset="0.3118" style="stop-color:#866478"/>
		<stop  offset="0.4115" style="stop-color:#784293"/>
		<stop  offset="0.5057" style="stop-color:#6D2AA6"/>
		<stop  offset="0.5922" style="stop-color:#671BB1"/>
		<stop  offset="0.6638" style="stop-color:#6516B5"/>
	</linearGradient>
	<path fill-rule="evenodd" clip-rule="evenodd" fill="url(#SVGID_18_)" d="M167.22,56.64l-6.93,3.31c-0.45,0.22-1,0.02-1.21-0.43
		L145.2,30.49c-0.22-0.45-0.02-1,0.43-1.21l6.93-3.31c0.45-0.22,1-0.02,1.21,0.43l13.88,29.02
		C167.87,55.87,167.68,56.42,167.22,56.64z"/>
	
		<linearGradient id="SVGID_19_" gradientUnits="userSpaceOnUse" x1="-8538.6006" y1="4552.5469" x2="-8552.9873" y2="4552.5469" gradientTransform="matrix(-0.4291 -0.9033 0.9033 -0.4291 -7621.3579 -5720.1841)">
		<stop  offset="0" style="stop-color:#C8FF00"/>
		<stop  offset="0.1018" style="stop-color:#AFC52D"/>
		<stop  offset="0.2078" style="stop-color:#999056"/>
		<stop  offset="0.3118" style="stop-color:#866478"/>
		<stop  offset="0.4115" style="stop-color:#784293"/>
		<stop  offset="0.5057" style="stop-color:#6D2AA6"/>
		<stop  offset="0.5922" style="stop-color:#671BB1"/>
		<stop  offset="0.6638" style="stop-color:#6516B5"/>
	</linearGradient>
	<path fill-rule="evenodd" clip-rule="evenodd" fill="url(#SVGID_19_)" d="M161.34,33.69l5.03,10.27l-4.43,5.09
		c-0.71,0.82-2.03,0.63-2.48-0.36l-3.63-7.96c-0.25-0.56-0.14-1.21,0.28-1.65C157.68,37.44,161.34,33.69,161.34,33.69z
		 M145.98,42.14l2.83,6.03c1.03,2.19,3.64,3.13,5.83,2.09l0,0l-4.69-10.01c-0.37-0.78-1.17-1.28-2.04-1.25l0,0
		C146.32,39.05,145.3,40.71,145.98,42.14z"/>
</g>
</svg>
