<?xml version="1.0" encoding="utf-8"?>
<!-- Generator: Adobe Illustrator 21.0.2, SVG Export Plug-In . SVG Version: 6.00 Build 0)  -->
<svg version="1.1" id="Layer_1" xmlns="http://www.w3.org/2000/svg" xmlns:xlink="http://www.w3.org/1999/xlink" x="0px" y="0px"
	 viewBox="0 0 19.43 31.66" enable-background="new 0 0 19.43 31.66" xml:space="preserve">
<path fill-rule="evenodd" clip-rule="evenodd" fill="#FFFFFF" d="M14.57,31.66H4.86C2.18,31.66,0,29.49,0,26.8V4.86
	C0,2.18,2.18,0,4.86,0h9.71c2.68,0,4.86,2.18,4.86,4.86V26.8C19.43,29.49,17.25,31.66,14.57,31.66z M16.73,3.06H2.7v20.87h14.03
	V3.06z M9.71,26.06c-0.95,0-1.73,0.77-1.73,1.73c0,0.95,0.77,1.73,1.73,1.73c0.95,0,1.73-0.77,1.73-1.73
	C11.44,26.83,10.67,26.06,9.71,26.06z"/>
</svg>
