<?xml version="1.0" encoding="utf-8"?>
<!-- Generator: Adobe Illustrator 21.0.2, SVG Export Plug-In . SVG Version: 6.00 Build 0)  -->
<svg version="1.1" id="Layer_1" xmlns="http://www.w3.org/2000/svg" xmlns:xlink="http://www.w3.org/1999/xlink" x="0px" y="0px"
	 viewBox="0 0 176.01 190.79" enable-background="new 0 0 176.01 190.79" xml:space="preserve">
<g>
	<g>
		<linearGradient id="XMLID_2_" gradientUnits="userSpaceOnUse" x1="51.3794" y1="173.5284" x2="166.3227" y2="95.9573">
			<stop  offset="0" style="stop-color:#C8FF00"/>
			<stop  offset="1" style="stop-color:#8E55C9"/>
		</linearGradient>
		<path id="XMLID_86_" fill="url(#XMLID_2_)" d="M173.84,105.21c1.25-1.17,2.07-2.79,2.16-4.63c0.19-3.76-2.71-6.95-6.46-7.14
			c-1.82-0.09-3.49,0.55-4.77,1.65l-0.01-0.01l-122.78,67.2c-2.8,1.2-5.26,3.25-6.93,6.07c-4.19,7.06-1.86,16.18,5.2,20.36
			c5.01,2.97,11.05,2.65,15.63-0.31l0,0l0,0c0.36-0.23,0.71-0.48,1.05-0.74l114.21-80.36c0.69-0.47,2.26-1.68,2.67-2.06
			L173.84,105.21L173.84,105.21z"/>
		<linearGradient id="XMLID_3_" gradientUnits="userSpaceOnUse" x1="70.856" y1="10.1218" x2="175.6985" y2="101.9084">
			<stop  offset="0" style="stop-color:#7E3BC1"/>
			<stop  offset="0.3019" style="stop-color:#8344C4"/>
			<stop  offset="1" style="stop-color:#8E55C9"/>
		</linearGradient>
		<path id="XMLID_85_" fill="url(#XMLID_3_)" d="M173.99,95.45l0.01-0.01L80.6,3.69C78.52,1.43,75.55,0,72.25,0
			c-6.24,0-11.34,5.1-11.34,11.34v0c0,3.01,1.2,5.76,3.14,7.79l-0.01,0l0.04,0.04c0.52,0.55,1.1,1.04,1.72,1.48l98.71,84.53
			l0.02-0.02c1.14,1.08,2.63,1.79,4.32,1.88c3.76,0.19,6.95-2.71,7.14-6.46C176.1,98.58,175.31,96.76,173.99,95.45z"/>
		<linearGradient id="XMLID_4_" gradientUnits="userSpaceOnUse" x1="77.5752" y1="93.2433" x2="15.4396" y2="54.4393">
			<stop  offset="0" style="stop-color:#6516B5"/>
			<stop  offset="0.957" style="stop-color:#6B1FB8"/>
		</linearGradient>
		<path id="XMLID_84_" fill="url(#XMLID_4_)" d="M83.64,87.24C83.51,87.13,26,41.7,24.81,40.99l-0.05-0.04l-0.01,0.01
			c-0.83-0.49-1.7-0.93-2.64-1.28c-8.47-3.17-17.91,1.14-21.08,9.61c-2.79,7.46,0.22,15.67,6.77,19.69l0,0.01L7.86,69
			c0.87,0.53,1.8,0.99,2.79,1.37c0.59,0.22,66.49,27.56,66.49,27.56l0.01-0.01c2.58,1.16,5.7,0.5,7.53-1.82
			C86.84,93.36,86.37,89.4,83.64,87.24z"/>
		<linearGradient id="XMLID_5_" gradientUnits="userSpaceOnUse" x1="76.4423" y1="5.4238" x2="15.7806" y2="55.525">
			<stop  offset="0" style="stop-color:#7E3BC1"/>
			<stop  offset="0.3448" style="stop-color:#7730BD"/>
			<stop  offset="1" style="stop-color:#6B1FB8"/>
		</linearGradient>
		<path id="XMLID_83_" fill="url(#XMLID_5_)" d="M72.25,0c-2.49,0-4.8,0.82-6.68,2.2L7.14,41.52c-0.11,0.08-0.23,0.15-0.34,0.23
			L6.72,41.8l0,0.01c-2.5,1.82-4.52,4.37-5.68,7.49c-3.17,8.47,1.14,17.91,9.61,21.08c5.3,1.98,10.99,1.04,15.27-2.03l0,0l0.01-0.01
			c0.96-0.68,1.83-1.48,2.63-2.37l50.69-45.68l-0.02-0.02c2.65-2.08,4.37-5.3,4.37-8.92v0C83.6,5.1,78.49,0,72.25,0z"/>
	</g>
	<g id="XMLID_53_">
		<rect id="XMLID_78_" x="50.48" y="54.61" fill="#020A0A" width="74.38" height="74.38"/>
		<rect id="XMLID_77_" x="56.9" y="115.04" fill="#FFFFFF" width="27.89" height="4.65"/>
		<g id="XMLID_54_">
			<path id="XMLID_75_" fill="#FFFFFF" d="M56.58,74.19l2.16-2.04c0.59,0.71,1.14,1.13,1.9,1.13c0.83,0,1.37-0.57,1.37-1.7V63.9
				h3.34v7.69c0,1.52-0.38,2.6-1.19,3.41c-0.8,0.8-1.94,1.23-3.32,1.23C58.73,76.23,57.45,75.35,56.58,74.19z"/>
			<path id="XMLID_73_" fill="#FFFFFF" d="M66.14,63.9h9.75v2.84h-6.42v1.85h5.82v2.65h-5.82v1.92h6.51v2.86h-9.84V63.9z"/>
			<path id="XMLID_71_" fill="#FFFFFF" d="M80.28,66.85h-3.62V63.9h10.62v2.94h-3.64v9.18h-3.36V66.85z"/>
			<path id="XMLID_67_" fill="#FFFFFF" d="M56.89,78.86h6.22c1.52,0,2.6,0.38,3.31,1.07c0.49,0.5,0.78,1.14,0.78,1.97v0.03
				c0,1.4-0.8,2.23-1.87,2.7c1.47,0.48,2.41,1.32,2.41,2.96v0.03c0,2.08-1.7,3.34-4.59,3.34h-6.25L56.89,78.86z M63.89,82.6
				c0-0.68-0.54-1.04-1.52-1.04h-2.2v2.13h2.11c1.02,0,1.61-0.35,1.61-1.06V82.6z M62.73,86.05l-2.56,0v2.23h2.6
				c1.04,0,1.61-0.4,1.61-1.11v-0.03C64.37,86.48,63.86,86.05,62.73,86.05z"/>
			<path id="XMLID_64_" fill="#FFFFFF" d="M68.24,78.86h5.73c1.85,0,3.13,0.48,3.95,1.3c0.71,0.71,1.07,1.63,1.07,2.82v0.03
				c0,1.87-0.99,3.1-2.49,3.74l2.89,4.23h-3.86l-2.44-3.67H71.6v3.67h-3.36V78.86z M73.83,84.68c1.13,0,1.8-0.55,1.8-1.44v-0.03
				c0-0.97-0.71-1.45-1.82-1.45H71.6v2.93H73.83z"/>
			<path id="XMLID_61_" fill="#FFFFFF" d="M82.92,78.77h3.24l5.16,12.21h-3.6l-0.87-2.18h-4.69l-0.87,2.18h-3.52L82.92,78.77z
				 M85.86,86.18l-1.35-3.43l-1.37,3.43H85.86z"/>
			<path id="XMLID_59_" fill="#FFFFFF" d="M91.72,78.86h3.36v12.12h-3.36V78.86z"/>
			<path id="XMLID_57_" fill="#FFFFFF" d="M95.91,78.86h3.13l4.99,6.41v-6.41h3.33v12.12h-2.93l-5.2-6.65v6.65h-3.33V78.86z"/>
			<path id="XMLID_55_" fill="#FFFFFF" d="M107.57,89.18l1.87-2.23c1.21,0.95,2.53,1.45,3.93,1.45c0.92,0,1.4-0.31,1.4-0.83v-0.03
				c0-0.52-0.4-0.78-2.06-1.18c-2.58-0.59-4.57-1.32-4.57-3.79v-0.03c0-2.25,1.78-3.88,4.69-3.88c2.06,0,3.67,0.55,4.99,1.61
				l-1.68,2.37c-1.11-0.8-2.32-1.19-3.39-1.19c-0.81,0-1.21,0.33-1.21,0.78v0.03c0,0.55,0.42,0.8,2.11,1.18
				c2.77,0.61,4.5,1.51,4.5,3.78v0.03c0,2.48-1.96,3.95-4.9,3.95C111.1,91.19,109.07,90.51,107.57,89.18z"/>
		</g>
	</g>
</g>
</svg>
