<?xml version="1.0" encoding="utf-8"?>
<!-- Generator: Adobe Illustrator 21.0.2, SVG Export Plug-In . SVG Version: 6.00 Build 0)  -->
<svg version="1.1" id="Layer_1" xmlns="http://www.w3.org/2000/svg" xmlns:xlink="http://www.w3.org/1999/xlink" x="0px" y="0px"
	 viewBox="0 0 97.68 54.82" enable-background="new 0 0 97.68 54.82" xml:space="preserve">
<g>
	<path fill="#6516B5" d="M12.87,51.22l2.47-6.34c-1.92-1.31-3.62-2.95-5.02-4.82l-6.24,2.74l-3.83-8.73l6.24-2.74
		c-0.43-2.29-0.48-4.65-0.15-6.96L0,21.9l3.46-8.88l6.34,2.47c1.31-1.92,2.95-3.62,4.82-5.02l-2.74-6.24l8.73-3.83l2.74,6.24
		c1.3-0.25,2.61-0.37,3.93-0.37c1.01,0,2.02,0.07,3.03,0.22l2.47-6.34l8.88,3.46l-2.47,6.34c1.92,1.31,3.62,2.95,5.02,4.82
		l6.24-2.74l3.83,8.73l-6.24,2.74c0.43,2.29,0.48,4.65,0.15,6.96l6.34,2.47l-3.46,8.88l-6.34-2.47c-1.31,1.92-2.95,3.62-4.82,5.02
		l2.74,6.24l-8.73,3.83l-2.74-6.24c-1.3,0.25-2.61,0.37-3.93,0.37c-1.01,0-2.02-0.07-3.03-0.22l-2.47,6.34L12.87,51.22z"/>
	<path fill="#6516B5" d="M65.5,54.82v-6.81c-2.27-0.53-4.45-1.43-6.43-2.67l-4.82,4.82l-6.74-6.74l4.82-4.82
		c-1.24-1.98-2.14-4.16-2.67-6.43h-6.81v-9.53h6.81c0.53-2.27,1.43-4.45,2.67-6.43l-4.82-4.82l6.74-6.74l4.82,4.82
		c1.98-1.24,4.16-2.14,6.43-2.67V0h9.53v6.81c2.27,0.53,4.45,1.43,6.43,2.67l4.82-4.82l6.74,6.74l-4.82,4.82
		c1.24,1.98,2.14,4.16,2.67,6.43h6.81v9.53h-6.81c-0.53,2.27-1.43,4.45-2.67,6.43l4.82,4.82l-6.74,6.74l-4.82-4.82
		c-1.98,1.24-4.16,2.14-6.43,2.67v6.81H65.5z"/>
	<path fill="#FFFFFF" d="M63.61,21.15c-3.31-3.31-8.69-3.31-12,0l-4.38,4.38l-0.02-0.02l-6,6c-2.41,2.41-6.32,2.41-8.73,0
		c-2.41-2.41-2.41-6.32,0-8.73c2.41-2.41,6.32-2.41,8.73,0l0.82,0.82l1.64-1.64l-0.82-0.82c-3.31-3.31-8.69-3.31-12,0
		c-3.31,3.31-3.31,8.69,0,12c1.65,1.65,3.83,2.48,6,2.48c2.17,0,4.35-0.83,6-2.48l4.38-4.38l0.02,0.02l6-6
		c2.41-2.41,6.32-2.41,8.73,0c2.41,2.41,2.41,6.32,0,8.73c-2.41,2.41-6.32,2.41-8.73,0l-0.82-0.82l-1.64,1.64l0.82,0.82
		c1.65,1.65,3.83,2.48,6,2.48c2.17,0,4.35-0.83,6-2.48C66.91,29.84,66.91,24.45,63.61,21.15z"/>
</g>
</svg>
