<?xml version="1.0" encoding="utf-8"?>
<!-- Generator: Adobe Illustrator 22.1.0, SVG Export Plug-In . SVG Version: 6.00 Build 0)  -->
<svg version="1.1" id="Layer_1" xmlns="http://www.w3.org/2000/svg" xmlns:xlink="http://www.w3.org/1999/xlink" x="0px" y="0px"
	 viewBox="0 0 1005.8 492.7" style="enable-background:new 0 0 1005.8 492.7;" xml:space="preserve">
<style type="text/css">
	.st0{fill:url(#SVGID_1_);}
	.st1{fill:url(#SVGID_2_);}
	.st2{fill:#C9FF00;}
	.st3{fill:#6516B6;}
	.st4{fill:url(#SVGID_3_);}
	.st5{fill:url(#SVGID_4_);}
	.st6{fill:url(#SVGID_5_);}
	.st7{fill:url(#SVGID_6_);}
	.st8{fill:url(#SVGID_7_);}
	.st9{fill:url(#SVGID_8_);}
	.st10{fill:url(#SVGID_9_);}
	.st11{fill:url(#SVGID_10_);}
	.st12{fill:url(#SVGID_11_);}
	.st13{fill:#FFFFFF;}
</style>
<title>gamedev</title>
<radialGradient id="SVGID_1_" cx="412.0088" cy="253.4841" r="247.9979" gradientTransform="matrix(1 0 0 -0.9631 0 484.649)" gradientUnits="userSpaceOnUse">
	<stop  offset="0" style="stop-color:#C9FF00"/>
	<stop  offset="0.1922" style="stop-color:#C9FF00;stop-opacity:0.7454"/>
	<stop  offset="0.4103" style="stop-color:#C9FF00;stop-opacity:0.4833"/>
	<stop  offset="0.6082" style="stop-color:#C9FF00;stop-opacity:0.2753"/>
	<stop  offset="0.7787" style="stop-color:#C9FF00;stop-opacity:0.1254"/>
	<stop  offset="0.9149" style="stop-color:#C9FF00;stop-opacity:3.363000e-02"/>
	<stop  offset="1" style="stop-color:#C9FF00;stop-opacity:0"/>
</radialGradient>
<rect x="412.6" class="st0" width="378.3" height="492.7"/>
<linearGradient id="SVGID_2_" gradientUnits="userSpaceOnUse" x1="-1167.6855" y1="-5430.6919" x2="-1206.9434" y2="-5429.9009" gradientTransform="matrix(0.6479 -0.7617 -0.7617 -0.6479 -2784.1746 -4289.5732)">
	<stop  offset="0" style="stop-color:#C9FF00"/>
	<stop  offset="0.1378" style="stop-color:#B7D422"/>
	<stop  offset="0.3708" style="stop-color:#9A9156"/>
	<stop  offset="0.5819" style="stop-color:#835C7F"/>
	<stop  offset="0.7638" style="stop-color:#73369D"/>
	<stop  offset="0.9092" style="stop-color:#691FAF"/>
	<stop  offset="1" style="stop-color:#6516B6"/>
</linearGradient>
<path class="st1" d="M590,112.7l9.4,8c1.7,1.4,1.9,3.9,0.5,5.6c0,0,0,0,0,0l0,0c-1.4,1.7-3.9,1.9-5.6,0.5c0,0,0,0,0,0l-3-2.6
	l1.3,8.6l-12.4,6.1l-4.8-9.3L590,112.7z"/>
<path class="st2" d="M591.3,109.2L591.3,109.2c1.5,1.3,1.7,3.6,0.4,5.2l0,0l-9,10.6l2.7,6.7l13.5-7c1.9-1,4.3-0.2,5.3,1.7
	c0,0,0,0,0,0.1l0,0c0.9,1.9,0.2,4.2-1.7,5.2l-30.3,16.1l-5.7,6.8l2.5-24.5l17.1-20.4C587.4,108.1,589.8,107.9,591.3,109.2z"/>
<path class="st2" d="M587.9,108.4l18.4-6.6c1.8-0.6,3.8,0.3,4.4,2.1v0c0.6,1.8-0.3,3.8-2.1,4.4l-18.4,6.6c-1.8,0.6-3.8-0.3-4.4-2.1
	v0C585.2,111,586.1,109,587.9,108.4z"/>
<path class="st3" d="M347,291.5l-59.1,26.8l-27.6,64l0,0c12.9,5.7,27.9-0.1,33.6-13v0l9.1-20.6c2-4.5,5.5-8,10-10.1l43-19.6
	L347,291.5z"/>
<path class="st3" d="M109.6,246.8l-34.9-22.3L0,241.7c4.7,13.7,18.7,21.8,32.9,19.1l18.7-3.6c4.9-0.9,10,0,14.2,2.7l28.9,18.5
	L109.6,246.8z"/>
<linearGradient id="SVGID_3_" gradientUnits="userSpaceOnUse" x1="-9654.4453" y1="378.842" x2="-9651.3496" y2="378.842" gradientTransform="matrix(-1 0 0 -1 -9242.9893 494)">
	<stop  offset="0" style="stop-color:#C9FF00"/>
	<stop  offset="3.554000e-02" style="stop-color:#C2EE0D"/>
	<stop  offset="0.2015" style="stop-color:#A1A249"/>
	<stop  offset="0.3497" style="stop-color:#876678"/>
	<stop  offset="0.4748" style="stop-color:#753B99"/>
	<stop  offset="0.5719" style="stop-color:#6920AE"/>
	<stop  offset="0.6292" style="stop-color:#6516B6"/>
</linearGradient>
<polygon class="st4" points="495.1,105.6 503.7,122.8 491.1,124.7 "/>
<linearGradient id="SVGID_4_" gradientUnits="userSpaceOnUse" x1="-9739.3652" y1="378.3266" x2="-9708.3154" y2="378.3266" gradientTransform="matrix(-1 0 0 -1 -9242.9883 494.0002)">
	<stop  offset="0" style="stop-color:#C9FF00"/>
	<stop  offset="3.554000e-02" style="stop-color:#C2EE0D"/>
	<stop  offset="0.2015" style="stop-color:#A1A249"/>
	<stop  offset="0.3497" style="stop-color:#876678"/>
	<stop  offset="0.4748" style="stop-color:#753B99"/>
	<stop  offset="0.5719" style="stop-color:#6920AE"/>
	<stop  offset="0.6292" style="stop-color:#6516B6"/>
</linearGradient>
<circle class="st5" cx="474" cy="115.7" r="23.5"/>
<linearGradient id="SVGID_5_" gradientUnits="userSpaceOnUse" x1="-9654.4453" y1="385.5021" x2="-9651.3496" y2="385.5021" gradientTransform="matrix(-1 0 0 -1 -9242.9893 494)">
	<stop  offset="0" style="stop-color:#C9FF00"/>
	<stop  offset="3.554000e-02" style="stop-color:#C2EE0D"/>
	<stop  offset="0.2015" style="stop-color:#A1A249"/>
	<stop  offset="0.3497" style="stop-color:#876678"/>
	<stop  offset="0.4748" style="stop-color:#753B99"/>
	<stop  offset="0.5719" style="stop-color:#6920AE"/>
	<stop  offset="0.6292" style="stop-color:#6516B6"/>
</linearGradient>
<path class="st6" d="M484.8,104.9h0.2c0.9,0,1.6,0.7,1.6,1.6v3.9c0,0.9-0.7,1.6-1.6,1.6h-0.2c-0.9,0-1.6-0.7-1.6-1.6v-3.9
	C483.2,105.7,483.9,104.9,484.8,104.9z"/>
<linearGradient id="SVGID_6_" gradientUnits="userSpaceOnUse" x1="-9654.4453" y1="393.2271" x2="-9651.3496" y2="393.2271" gradientTransform="matrix(-1 0 0 -1 -9242.9893 494)">
	<stop  offset="0" style="stop-color:#C9FF00"/>
	<stop  offset="3.554000e-02" style="stop-color:#C2EE0D"/>
	<stop  offset="0.2015" style="stop-color:#A1A249"/>
	<stop  offset="0.3497" style="stop-color:#876678"/>
	<stop  offset="0.4748" style="stop-color:#753B99"/>
	<stop  offset="0.5719" style="stop-color:#6920AE"/>
	<stop  offset="0.6292" style="stop-color:#6516B6"/>
</linearGradient>
<path class="st7" d="M458.3,117.2c2.4-13.6,15.2-22.8,28.8-20.7c-6-8.4-15.8-11.4-27.5-13.4c-13.1-2.3-16.8,3.6-29.9,1.3
	c-13.1-2.3-12.1-7.6-25.2-9.9c-13.1-2.3-14,3-27,0.7c-11.5-2-18.8-10-27.8-10.3v51.6c9.4,5.7,10,6.2,22.3,8.3c13.1,2.3,14-3,27-0.7
	c13.1,2.3,12.1,7.6,25.2,9.9c13.1,2.3,14-3,27-0.7c3.9,0.7,7.8,1.8,11.5,3.1C458.8,131,457.2,124,458.3,117.2z"/>
<circle class="st3" cx="460" cy="116.1" r="7"/>
<path class="st3" d="M221.7,342.7L221.7,342.7c5.7-9.1,3-21.1-6-26.9l-121-78.3l-20.8,32.9l121,78.3
	C203.9,354.5,215.9,351.8,221.7,342.7z"/>
<path class="st3" d="M323.5,201.8l1.7,1.5c7.5,6.8,8,18.4,1.2,25.9l0,0l-108,118.3c-6.8,7.5-18.4,8-25.9,1.2l-1.7-1.5
	c-7.5-6.8-8-18.4-1.2-25.9l0,0l108-118.3C304.5,195.5,316.1,194.9,323.5,201.8L323.5,201.8z"/>
<path class="st3" d="M392,146.2l0,1.8c0,8-6.5,14.5-14.5,14.5l0,0l-84.1,0.2c-8,0-14.5-6.5-14.5-14.5l0-1.8c0-8,6.5-14.5,14.5-14.5
	l84.1-0.2C385.5,131.7,392,138.2,392,146.2z"/>
<path class="st3" d="M235.9,187.3l14.1,30.2l54.5-59.5c5.7-6.3,5.3-16-0.9-21.7l0,0c-6.3-5.7-16-5.3-21.7,0.9L235.9,187.3z"/>
<linearGradient id="SVGID_7_" gradientUnits="userSpaceOnUse" x1="-9660.1084" y1="366.1105" x2="-9636.0479" y2="328.6042" gradientTransform="matrix(-1 0 0 -1 -9242.9893 494)">
	<stop  offset="0" style="stop-color:#C9FF00"/>
	<stop  offset="3.554000e-02" style="stop-color:#C2EE0D"/>
	<stop  offset="0.2015" style="stop-color:#A1A249"/>
	<stop  offset="0.3497" style="stop-color:#876678"/>
	<stop  offset="0.4748" style="stop-color:#753B99"/>
	<stop  offset="0.5719" style="stop-color:#6920AE"/>
	<stop  offset="0.6292" style="stop-color:#6516B6"/>
</linearGradient>
<path class="st8" d="M451.9,131.8h-78.2c-5.2,0-10.1,2.1-13.7,5.8L299.2,201c-15.6,16.2-15,42,1.2,57.6c1.2,1.1,2.5,2.2,3.8,3.2h0
	c15.4,11.5,36.6,10.7,51.1-1.9l109-94.9C477.5,153.5,469.4,131.8,451.9,131.8z"/>
<linearGradient id="SVGID_8_" gradientUnits="userSpaceOnUse" x1="-9744.4473" y1="320.5097" x2="-9725.2246" y2="306.8047" gradientTransform="matrix(-1 0 0 -1 -9242.9883 494.0002)">
	<stop  offset="0" style="stop-color:#C9FF00"/>
	<stop  offset="0.1018" style="stop-color:#B0C52D"/>
	<stop  offset="0.2078" style="stop-color:#999056"/>
	<stop  offset="0.3118" style="stop-color:#876479"/>
	<stop  offset="0.4115" style="stop-color:#784293"/>
	<stop  offset="0.5057" style="stop-color:#6E2AA6"/>
	<stop  offset="0.5922" style="stop-color:#671BB2"/>
	<stop  offset="0.6638" style="stop-color:#6516B6"/>
</linearGradient>
<path class="st9" d="M450.1,141.8l1.3-1.3c5.7-5.7,14.9-5.6,20.5,0l59.4,59.6c5.7,5.7,5.6,14.9,0,20.5l-1.3,1.3
	c-5.7,5.7-14.9,5.6-20.5,0l-59.4-59.6C444.4,156.6,444.4,147.4,450.1,141.8L450.1,141.8z"/>
<path class="st3" d="M226.1,227.8l-9.1-19.9l8.7-9.5c1.1-1.2,2.9-1.2,4-0.2c0.3,0.3,0.5,0.6,0.7,1l6.6,15.4c0.5,1.1,0.2,2.3-0.6,3.2
	C233.3,220.8,226.1,227.8,226.1,227.8z M246.9,220.8l9.6-10.5l-6.2-5.7l-9.6,10.5c-1.1,1.2-1.4,3-0.8,4.5l0,0
	c0.9,2.1,3.4,3.1,5.5,2.2C246,221.6,246.5,221.3,246.9,220.8L246.9,220.8z"/>
<linearGradient id="SVGID_9_" gradientUnits="userSpaceOnUse" x1="-9793.0479" y1="314.2502" x2="-9721.3965" y2="339.3724" gradientTransform="matrix(-1 0 0 -1 -9242.9893 494)">
	<stop  offset="0" style="stop-color:#C9FF00"/>
	<stop  offset="0.1018" style="stop-color:#B0C52D"/>
	<stop  offset="0.2078" style="stop-color:#999056"/>
	<stop  offset="0.3118" style="stop-color:#876479"/>
	<stop  offset="0.4115" style="stop-color:#784293"/>
	<stop  offset="0.5057" style="stop-color:#6E2AA6"/>
	<stop  offset="0.5922" style="stop-color:#671BB2"/>
	<stop  offset="0.6638" style="stop-color:#6516B6"/>
</linearGradient>
<path class="st10" d="M584.4,159.3l-10.9-22.8l-0.5-1.1l-3.1-6.5L508.8,201c-5.5,6.5-4.7,16.2,1.8,21.7l0,0
	c6.5,5.5,16.2,4.7,21.7-1.8L584.4,159.3z"/>
<linearGradient id="SVGID_10_" gradientUnits="userSpaceOnUse" x1="-9670.0635" y1="192.9674" x2="-9652.0176" y2="215.2589" gradientTransform="matrix(-1 0 0 -1 -9242.9893 494)">
	<stop  offset="0" style="stop-color:#C9FF00"/>
	<stop  offset="0.1534" style="stop-color:#B0C52D"/>
	<stop  offset="0.313" style="stop-color:#999056"/>
	<stop  offset="0.4697" style="stop-color:#876479"/>
	<stop  offset="0.6199" style="stop-color:#784293"/>
	<stop  offset="0.7618" style="stop-color:#6E2AA6"/>
	<stop  offset="0.8921" style="stop-color:#671BB2"/>
	<stop  offset="1" style="stop-color:#6516B6"/>
</linearGradient>
<path class="st11" d="M498.5,242.4L498.5,242.4c-4.5-9.7-16.1-14-25.8-9.5l-151.5,70l16.3,35.3l151.5-70
	C498.8,263.7,503,252.2,498.5,242.4z"/>
<linearGradient id="SVGID_11_" gradientUnits="userSpaceOnUse" x1="-9609.5713" y1="273.8016" x2="-9556.1143" y2="233.3195" gradientTransform="matrix(-0.9997 2.261000e-02 -2.261000e-02 -0.9997 -9185.5273 732.2241)">
	<stop  offset="0" style="stop-color:#C9FF00"/>
	<stop  offset="0.1018" style="stop-color:#B0C52D"/>
	<stop  offset="0.2078" style="stop-color:#999056"/>
	<stop  offset="0.3118" style="stop-color:#876479"/>
	<stop  offset="0.4115" style="stop-color:#784293"/>
	<stop  offset="0.5057" style="stop-color:#6E2AA6"/>
	<stop  offset="0.5922" style="stop-color:#671BB2"/>
	<stop  offset="0.6638" style="stop-color:#6516B6"/>
</linearGradient>
<path class="st12" d="M500.4,249.6v2.3c0,10.1-8.2,18.3-18.3,18.3H324.6c-10.1,0-18.3-8.2-18.3-18.3v-2.3c0-10.1,8.2-18.3,18.3-18.3
	H482C492.1,231.3,500.4,239.5,500.4,249.6L500.4,249.6L500.4,249.6z"/>
<path class="st13" d="M412.6,228.1V203c4.8-1.6,9.8-2.5,14.8-2.5c16.5,0,27.1,6.9,34.2,16.7l-16.8,13c-4.6-5.6-9.9-9.4-17.6-9.4
	C421.5,220.8,416.1,223.5,412.6,228.1z M462.2,266.2l-16.8-12c-4.8,5.9-9.8,9.8-18.2,9.8c-5.7,0-11.1-2.6-14.6-7.2v25.3
	c4.5,1.5,9.3,2.3,14,2.3C444.4,284.4,454.6,276.7,462.2,266.2z M489.7,252.2h28.7v30.6h22.4v-80.6h-22.4v30.2h-28.7v-30.2h-22.4
	v80.6h22.4V252.2z M599.8,201.6l34.3,81.2h-24l-5.8-14.5h-31.2l-5.8,14.5H544l34.2-81.2H599.8z M597.8,250.9l-9-22.8l-9.1,22.8
	H597.8z M691.4,244.8l-33.2-42.6h-20.9v80.6h22.1v-44.2l34.6,44.2h19.5v-80.6h-22.1V244.8z M762.3,252h15.8v9.8
	c-3.2,2.2-7.4,3.3-12.9,3.3c-12.8,0-21.9-9.3-21.9-22.5v-0.2c0-12.3,9-22,20.6-22c8.1,0,13.7,2.8,19.5,7.6l13.1-15.9
	c-8.5-7.4-18.5-11.6-32.7-11.6c-24.9,0-43.3,18.4-43.3,41.9v0.2c0,24.4,18.7,41.7,43.8,41.7c12.8,0.1,25.2-4.3,35-12.6v-36.2h-37
	V252z M833.7,201.8h-22.3v80.6h22.3V201.8z M897.8,244.4l-33.2-42.6h-20.9v80.6h22.1v-44.2l34.6,44.2h19.5v-80.6h-22.1L897.8,244.4z
	 M968.8,251.7h15.8v9.8c-3.2,2.2-7.4,3.3-12.9,3.3c-12.8,0-21.9-9.3-21.9-22.5v-0.2c0-12.3,9-22,20.6-22c8.1,0,13.7,2.8,19.5,7.6
	l13.1-15.9c-8.5-7.4-18.5-11.6-32.7-11.6c-24.9,0-43.3,18.4-43.3,41.9v0.2c0,24.4,18.7,41.7,43.8,41.7c12.8,0.1,25.2-4.3,35-12.6
	v-36.2h-37L968.8,251.7z"/>
<path class="st13" d="M130.8,272.4h37v36.2c-9.8,8.2-22.2,12.7-35,12.6c-25.1,0-43.8-17.3-43.8-41.7v-0.2
	c0-23.5,18.4-41.9,43.3-41.9c14.2,0,24.2,4.3,32.7,11.6l-13.1,15.9c-5.8-4.8-11.4-7.6-19.5-7.6c-11.6,0-20.6,9.7-20.6,22v0.2
	c0,13.1,9.1,22.5,21.9,22.5c5.5,0,9.7-1.2,12.9-3.3v-9.8h-15.8L130.8,272.4z M225.1,238.3l34.3,81.2h-24l-5.8-14.5h-31.2l-5.8,14.5
	h-23.4l34.2-81.2H225.1z M223.1,287.6l-9-22.8l-9.1,22.8H223.1z M305.5,270.1l-19.2-31.2h-23.6v80.6h21.9v-46.2l20.5,31.5h0.5
	l20.6-31.6v46.3h22.2v-80.6h-23.6L305.5,270.1z M380.1,300.5v-12.8h32.5v-17.6h-32.5v-12.3h32.5v-18.9H358v80.6h54.6v-19
	L380.1,300.5z"/>
<path class="st13" d="M412.6,316.4h10.8c8.7,0,14.7,6,14.7,13.7v0.1c0,7.8-6,13.8-14.7,13.8h-10.8V316.4z M418.7,321.9v16.6h4.7
	c5,0,8.3-3.4,8.3-8.2v-0.1c0.2-4.4-3.1-8.1-7.5-8.3c-0.3,0-0.5,0-0.8,0H418.7z"/>
<path class="st13" d="M441,333.6L441,333.6c0-6.1,4.3-11.1,10.5-11.1c7.1,0,10.3,5.5,10.3,11.5c0,0.5,0,1-0.1,1.6H447
	c0.4,2.5,2.6,4.3,5.2,4.1c1.9,0,3.8-0.8,5.1-2.2l3.4,3c-2.1,2.6-5.3,4.1-8.6,3.9C445.7,344.5,441,340,441,333.6z M455.9,331.8
	c-0.4-2.7-1.9-4.5-4.5-4.5c-2.5,0-4.1,1.8-4.6,4.5H455.9z"/>
<path class="st13" d="M462.5,322.9h6.4l4.7,14.2l4.8-14.2h6.2l-8.3,21.3h-5.4L462.5,322.9z"/>
<path class="st13" d="M485.1,333.6L485.1,333.6c0-6.1,4.3-11.1,10.5-11.1c7.1,0,10.3,5.5,10.3,11.5c0,0.5,0,1-0.1,1.6h-14.7
	c0.4,2.5,2.6,4.3,5.2,4.1c1.9,0,3.8-0.8,5.1-2.2l3.4,3c-2.1,2.6-5.3,4.1-8.6,3.9C489.8,344.5,485.1,340,485.1,333.6z M500,331.8
	c-0.4-2.7-1.9-4.5-4.5-4.5c-2.5,0-4.1,1.8-4.6,4.5H500z"/>
<path class="st13" d="M509.8,315.2h6V344h-6V315.2z"/>
<path class="st13" d="M519.6,333.6L519.6,333.6c0-6.2,4.9-11.1,11.5-11.1c6.5,0,11.4,4.9,11.4,10.9v0.1c0,6.1-4.9,11-11.5,11
	C524.5,344.5,519.6,339.6,519.6,333.6z M536.6,333.6L536.6,333.6c0.1-3.2-2.3-5.8-5.4-5.9c-0.1,0-0.1,0-0.2,0
	c-3.4,0-5.5,2.6-5.5,5.8v0.1c-0.1,3.1,2.3,5.7,5.4,5.8c0.1,0,0.1,0,0.2,0C534.5,339.3,536.6,336.7,536.6,333.6z"/>
<path class="st13" d="M546.1,322.9h6v3c1.5-2.2,4-3.5,6.6-3.4c4.9,0,9.6,3.9,9.6,10.9v0.1c0,7.1-4.6,10.9-9.6,10.9
	c-2.6,0.1-5-1.1-6.6-3.2v9.1h-6V322.9z M562.3,333.5L562.3,333.5c0-3.6-2.4-5.9-5.2-5.9s-5.1,2.3-5.1,5.8v0.1c0,3.5,2.3,5.8,5.1,5.8
	S562.3,337,562.3,333.5z"/>
<path class="st13" d="M571.9,322.9h6v3c1.4-2.1,3.7-3.4,6.2-3.4c2.5-0.1,4.8,1.2,6,3.4c1.7-2.1,4.2-3.4,6.9-3.4
	c4.5,0,7.1,2.7,7.1,7.8V344h-6v-11.8c0-2.8-1.3-4.3-3.5-4.3s-3.6,1.5-3.6,4.3V344h-6v-11.8c0-2.8-1.3-4.3-3.5-4.3s-3.6,1.5-3.6,4.3
	V344h-6V322.9z"/>
<path class="st13" d="M607.6,333.6L607.6,333.6c0-6.1,4.3-11.1,10.5-11.1c7.1,0,10.3,5.5,10.3,11.5c0,0.5,0,1-0.1,1.6h-14.7
	c0.4,2.5,2.6,4.3,5.2,4.1c1.9,0,3.8-0.8,5.1-2.2l3.4,3c-2.1,2.6-5.3,4.1-8.6,3.9C612.3,344.5,607.6,340,607.6,333.6z M622.5,331.8
	c-0.4-2.7-1.9-4.5-4.5-4.5c-2.5,0-4.1,1.8-4.6,4.5H622.5z"/>
<path class="st13" d="M632,322.9h6v3c1.4-1.8,3.2-3.4,6.2-3.4c4.5,0,7.2,3,7.2,7.8V344h-6v-11.8c0-2.8-1.3-4.3-3.6-4.3
	s-3.7,1.5-3.7,4.3V344h-6V322.9z"/>
<path class="st13" d="M656.8,338v-10h-2.5v-5.1h2.5v-5.4h6v5.4h5v5.1h-5v9c0,1.4,0.6,2.1,1.9,2.1c1,0,2.1-0.3,3-0.7v4.8
	c-1.4,0.8-3.1,1.3-4.7,1.2C659.2,344.4,656.8,342.9,656.8,338z"/>
<path class="st13" d="M689.5,322h-8.4v-5.6h22.9v5.6h-8.4v22h-6.1V322z"/>
<path class="st13" d="M702,333.6L702,333.6c0-6.2,4.9-11.1,11.5-11.1c6.5,0,11.4,4.9,11.4,10.9v0.1c0,6.1-4.9,11-11.5,11
	C706.9,344.5,702,339.6,702,333.6z M719,333.6L719,333.6c0.1-3.2-2.3-5.8-5.4-5.9c-0.1,0-0.1,0-0.2,0c-3.4,0-5.5,2.6-5.5,5.8v0.1
	c-0.1,3.1,2.3,5.7,5.4,5.8c0.1,0,0.1,0,0.2,0C716.9,339.3,719,336.7,719,333.6z"/>
<path class="st13" d="M727.4,333.6L727.4,333.6c0-6.2,4.9-11.1,11.5-11.1c6.5,0,11.4,4.9,11.4,10.9v0.1c0,6.1-4.9,11-11.5,11
	C732.3,344.5,727.4,339.6,727.4,333.6z M744.4,333.6L744.4,333.6c0.1-3.2-2.3-5.8-5.4-5.9c-0.1,0-0.1,0-0.2,0
	c-3.4,0-5.5,2.6-5.5,5.8v0.1c-0.1,3.1,2.3,5.7,5.4,5.8c0.1,0,0.1,0,0.2,0C742.3,339.3,744.4,336.7,744.4,333.6z"/>
<path class="st13" d="M754.1,315.2h6V344h-6V315.2z"/>
<path class="st13" d="M763.3,341.2l2.6-3.9c1.9,1.5,4.2,2.4,6.7,2.5c1.7,0,2.5-0.6,2.5-1.6v-0.1c0-1.3-2.1-1.7-4.4-2.4
	c-3-0.9-6.3-2.2-6.3-6.4v-0.1c0-4.3,3.5-6.7,7.7-6.7c2.8,0,5.5,0.9,7.9,2.4l-2.3,4.1c-1.7-1.1-3.7-1.8-5.7-2c-1.5,0-2.2,0.6-2.2,1.5
	v0.1c0,1.2,2,1.7,4.3,2.5c3,1,6.4,2.4,6.4,6.3v0.1c0,4.7-3.5,6.8-8.1,6.8C769.1,344.4,765.9,343.3,763.3,341.2z"/>
</svg>
