<?xml version="1.0" encoding="utf-8"?>
<!-- Generator: Adobe Illustrator 21.0.2, SVG Export Plug-In . SVG Version: 6.00 Build 0)  -->
<svg version="1.1" id="Layer_1" xmlns="http://www.w3.org/2000/svg" xmlns:xlink="http://www.w3.org/1999/xlink" x="0px" y="0px"
	 viewBox="0 0 31.8 31.8" enable-background="new 0 0 31.8 31.8" xml:space="preserve">
<path fill-rule="evenodd" clip-rule="evenodd" fill="#FFFFFF" d="M31.8,15.9c0,8.78-7.12,15.9-15.9,15.9S0,24.68,0,15.9
	S7.12,0,15.9,0S31.8,7.12,31.8,15.9z M10.22,14.91v-4.88c0-0.53-0.44-0.97-0.97-0.97h-0.6c-0.53,0-0.97,0.44-0.97,0.97v4.88
	c0,0.53,0.44,0.97,0.97,0.97h0.6C9.79,15.88,10.22,15.44,10.22,14.91z M23.15,15.88h-0.6c-0.53,0-0.97-0.44-0.97-0.97v-4.88
	c0-0.53,0.44-0.97,0.97-0.97h0.6c0.53,0,0.97,0.44,0.97,0.97v4.88C24.11,15.44,23.68,15.88,23.15,15.88z M9.51,21.59
	c-1.34,0-2.02,1.63-1.07,2.58c1.91,1.91,4.55,3.1,7.46,3.1c2.92,0,5.55-1.18,7.46-3.1c0.95-0.95,0.27-2.58-1.07-2.58H9.51z"/>
</svg>
