<?xml version="1.0" encoding="utf-8"?>
<!-- Generator: Adobe Illustrator 21.0.2, SVG Export Plug-In . SVG Version: 6.00 Build 0)  -->
<svg version="1.1" id="Layer_1" xmlns="http://www.w3.org/2000/svg" xmlns:xlink="http://www.w3.org/1999/xlink" x="0px" y="0px"
	 viewBox="0 0 30.15 26.12" enable-background="new 0 0 30.15 26.12" xml:space="preserve">
<g>
	<path fill="#FFFFFF" d="M17.49,5.1c0.73,0.16,1.47,0.34,2.21,0.48c0.15,0.03,0.38,0,0.47-0.1c2.14-2.18,4.76-3.46,7.68-4.2
		c0.08-0.02,0.17-0.03,0.25-0.05c0.03,0,0.05,0.02,0.13,0.04c-0.21,0.26-0.41,0.49-0.59,0.74c-0.81,1.06-1.6,2.14-2.43,3.19
		c-0.57,0.72-0.81,1.5-0.8,2.42c0.06,3.7,0.07,7.41,0.1,11.11c0.01,0.57,0.55,0.96,1.24,0.84c0.4-0.07,0.81-0.2,1.18-0.38
		c1.15-0.54,2.1-1.33,2.97-2.25c0.08-0.08,0.15-0.17,0.24-0.23c-1.6,3.71-4.28,6.46-7.61,8.7c-0.97-0.83-1.93-1.66-2.74-2.35
		c-0.94,0.86-1.89,1.65-2.75,2.54c-0.44,0.45-0.82,0.62-1.45,0.5c-2.37-0.42-4.64-1.07-6.69-2.37c-0.88-0.56-1.67-1.22-2.31-2.05
		c-0.06-0.08-0.11-0.16-0.17-0.25c0.4,0,0.77,0.02,1.14,0c0.54-0.03,0.81-0.27,0.91-0.8c0.04-0.18,0.05-0.37,0.05-0.56
		c0-3.25,0-6.49,0-9.74C8.54,9.45,7.84,8.84,7,9.1C6.43,9.27,5.86,9.59,5.4,9.97c-2.1,1.73-3.66,3.91-5.02,6.24
		C0.3,16.33,0.24,16.45,0.1,16.7c-0.04-0.31-0.08-0.51-0.09-0.7c-0.08-1.86,0.5-3.56,1.43-5.11C4.28,6.12,8.2,2.55,13.34,0.4
		c0.43-0.18,0.89-0.3,1.37-0.4c-0.3,0.24-0.61,0.47-0.9,0.73c-1.21,1.06-1.83,2.37-1.64,4.01c0.03,0.24,0.08,0.48,0.17,0.71
		c0.2,0.51,0.57,0.68,1.1,0.55c0.11-0.03,0.22-0.06,0.38-0.11c0,0.2,0,0.37,0,0.53c0,4.02,0,8.04,0,12.07
		c0,1.11,0.83,1.97,1.96,1.95c0.43-0.01,0.86-0.19,1.28-0.31c0.15-0.04,0.28-0.14,0.42-0.21c1.49-0.86,1.49-0.86,1.49-2.58
		c0-3.02-0.01-6.03,0.01-9.05c0.01-1.13-0.46-2.01-1.26-2.76c-0.09-0.09-0.19-0.16-0.29-0.24C17.46,5.22,17.48,5.16,17.49,5.1z"/>
</g>
</svg>
