<?xml version="1.0" encoding="utf-8"?>
<!-- Generator: Adobe Illustrator 21.0.2, SVG Export Plug-In . SVG Version: 6.00 Build 0)  -->
<svg version="1.1" id="Layer_1" xmlns="http://www.w3.org/2000/svg" xmlns:xlink="http://www.w3.org/1999/xlink" x="0px" y="0px"
	 viewBox="0 0 806.67 280.67" enable-background="new 0 0 806.67 280.67" xml:space="preserve">
<g>
	<polygon points="75.82,33.48 75.82,32.11 73.56,32.11 73.56,30.24 69.37,30.24 69.38,32.11 67.11,32.11 67.11,33.48 69.38,33.48 
		69.37,42.7 73.56,42.7 73.56,33.48 	"/>
	<path d="M62.37,33.03c-1.38,0.04-2.53,0.63-3.33,1.39c0-0.23,0-0.97,0-0.97l-4.15,0l0,9.24h4.15c0,0,0-5.67,0-6.07
		c0-0.81,0.85-1.7,1.98-1.7c1.14,0,1.91,0.9,1.91,1.7c0,0.58,0,6.07,0,6.07h4.15c0,0,0-4.38,0-5.03
		C67.11,34.01,63.93,32.99,62.37,33.03z"/>
	<rect x="48.41" y="33.46" width="4.18" height="9.24"/>
	<polygon points="41.73,38.49 35.74,28.81 31.41,28.81 31.41,42.7 35.71,42.7 35.71,33.01 41.73,42.7 46.02,42.7 46.02,28.81 
		41.73,28.81 	"/>
	<rect x="48.4" y="28.8" width="4.19" height="2.84"/>
	<path d="M87.58,38.12c0-2.87-2.77-5.24-6.16-5.24c-3.4,0-6.15,2.32-6.15,5.19c0,2.87,2.76,5.19,6.15,5.19
		c2.82,0,5.2-1.61,5.93-3.79l-4.17,0c0,0,0,0.04,0,0.56c0,1.69-1.11,2.07-1.73,2.07c-0.62,0-1.75-0.38-1.75-2.07
		c0-0.51,0.01-1.91,0.01-1.91S87.58,38.12,87.58,38.12z M79.99,34.87c0.33-0.57,0.93-0.84,1.47-0.84c0,0,0,0,0,0h0c0,0,0,0,0,0
		c0.55,0,1.14,0.27,1.47,0.84c0.27,0.46,0.28,1,0.28,1.81h-3.49C79.7,35.87,79.72,35.33,79.99,34.87z"/>
	<path d="M123.68,21.02h-88.5C25.82,21,19.52,27.73,19.52,35.8c0,8.07,6.28,14.73,15.67,14.73h88.47c9.4,0,15.67-6.66,15.67-14.73
		C139.34,27.73,133.05,21,123.68,21.02z M123.64,46.92H35.22c-7.47,0.03-12-4.98-12-11.13c0-6.15,4.57-11.12,12-11.13h88.41
		c7.44,0.01,12.01,4.98,12.01,11.13C135.64,41.93,131.1,46.94,123.64,46.92z"/>
	<path d="M129.88,29.85c0-0.62-0.37-0.9-1.12-0.9h-1.21v3.16h0.48v-1.37h0.55l0.84,1.37h0.53l-0.9-1.39
		C129.52,30.66,129.88,30.41,129.88,29.85z M128.03,30.33v-0.98h0.65c0.33,0,0.69,0.07,0.69,0.46c0,0.49-0.36,0.52-0.77,0.52H128.03
		z"/>
	<path d="M128.61,27.79c-1.51,0-2.79,1.16-2.79,2.74c0,1.59,1.28,2.75,2.79,2.75c1.5,0,2.77-1.16,2.77-2.75
		C131.38,28.95,130.11,27.79,128.61,27.79z M128.61,32.81c-1.25,0-2.23-0.97-2.23-2.29c0-1.3,0.98-2.28,2.23-2.28
		c1.24,0,2.22,0.98,2.22,2.28C130.83,31.84,129.86,32.81,128.61,32.81z"/>
	<path d="M96.33,33.03c-1.38,0.04-2.53,0.63-3.33,1.39c-0.01-0.23,0-0.97,0-0.97l-4.15,0l0,9.24H93c0,0-0.01-5.67-0.01-6.07
		c0-0.81,0.85-1.7,1.99-1.7c1.14,0,1.91,0.9,1.91,1.7c0,0.58,0,6.07,0,6.07h4.15c0,0,0-4.38,0-5.03
		C101.06,34.01,97.89,32.99,96.33,33.03z"/>
	<path d="M121.64,32.83c-3.37,0-6.1,2.32-6.1,5.19c0,2.86,2.73,5.19,6.1,5.19c3.37,0,6.11-2.32,6.11-5.19
		C127.74,35.15,125.01,32.83,121.64,32.83z M123.31,39.96c0,1.47-0.87,2.08-1.71,2.08c-0.84,0-1.71-0.61-1.71-2.08
		c0-0.56,0-1.99,0-1.99s0-1.36,0-1.93c0-1.47,0.87-2.07,1.71-2.07c0.83,0,1.71,0.6,1.71,2.07c0,0.56,0,1.59,0,1.97
		C123.31,38.04,123.31,39.41,123.31,39.96z"/>
	<path d="M110.05,33.92c-0.67-0.37-1.37-0.74-2.37-0.82c-3.01-0.26-5.31,2.4-5.31,4.84c0,3.21,2.48,4.41,2.86,4.58
		c1.41,0.65,3.21,0.66,4.81-0.35c0,0.08,0,0.53,0,0.53h4.13V28.81h-4.12C110.05,28.81,110.05,31.78,110.05,33.92z M110.08,38.03
		c0,0,0,1.04,0,1.64c0,1.43-0.99,1.8-1.64,1.8c-0.67,0-1.64-0.37-1.64-1.8c0-0.49,0-1.64,0-1.64s0-1.18,0-1.65
		c0-1.43,0.97-1.79,1.64-1.79c0.65,0,1.64,0.36,1.64,1.79C110.08,36.88,110.08,38.03,110.08,38.03z"/>
</g>
<g>
	<path stroke="#020203" stroke-width="0.25" stroke-miterlimit="10" d="M262.11,20.17c-0.89-0.36-1.81-0.64-2.76-0.8
		c-14.15-2.35-20.16,9.96-20.16,9.96l1.63,0.97c-5.21,11.21,1.72,18.96,4.47,21.44c0.56,0.5,1.16,0.96,1.81,1.35
		c11.76,7.07,21.08-1.61,21.08-1.61c8.03-7.21,5.79-16.35,5.79-16.35C272.83,25.59,265.47,21.53,262.11,20.17z M244.45,37.02
		c-1.45,2.86-1.12,5.46-1.23,6.14c-0.11,0.67-0.56,0-0.56,0c-0.86-1.45-0.63-4.87-0.63-4.87c0.3-1.68,1.23-4.24,2.04-5.05
		c0.82-0.82,1.38-2.04,4.46-3.54c3.09-1.48,6.2-1.27,9.15,0c2.94,1.27,5.17,4.49,5.39,5.84c0.23,1.33-0.74,0.15-0.74,0.15
		s0.03-0.33-2.49-2.3c-2.53-1.97-5.91-2.53-8.51-1.86C248.72,32.19,245.9,34.16,244.45,37.02z M260.1,43.75
		c-3.39,3.83-6.73,1-6.73,1c-3.34-2.42-1.33-6.2-1.33-6.2c2.16-2.83,4.38-2.49,5.53-2.02c0.48,0.19,0.9,0.5,1.25,0.88
		c2.45,2.69,0.06,5.45,0.06,5.45L260.1,43.75z M270.52,42.78c0,0-3.57,10.93-15.17,9.74c0,0-7.65-1.12-8.92-9.22
		c0,0-1.12-4.16,3.75-7.88c0,0,0.3-0.21,0.18,0.27s-1.51,0.89-2.06,5c-0.56,4.11,2.9,6.55,3.79,7.16c0.89,0.62,6.5,2.84,10.71-1.25
		c4.21-4.09,3.49-9.4,3.49-9.4s-0.08-4.82-4.9-8.76c-4.82-3.93-10.79-2.68-10.79-2.68s-2.42,0.33-6.15,2.77
		c-0.03,0.02-0.08,0.06-0.1,0.09c-0.07,0.1-0.29,0.33-0.67,0.17c0,0-0.31-0.23,0.19-0.74s0.78-0.82,0.78-0.82s6.49-8.58,18.1-3.27
		c0.29,0.13,0.55,0.27,0.81,0.44C265.69,25.74,274.1,31.83,270.52,42.78z"/>
	<path stroke="#020203" stroke-width="0.25" stroke-miterlimit="10" d="M290.27,40.03c0,0.3-0.62,2.03-2.6,2.03
		c-2,0-2.43-2.06-2.43-2.06v-8.64h-2.99v8.54c0,0.24,0.01,0.46,0.06,0.68c0.21,1.15,1.15,4.19,5.42,4.19c4.57,0,5.34-3.61,5.46-4.56
		c0.01-0.12,0.01-0.24,0.01-0.36v-8.51h-2.93C290.27,31.34,290.27,39.73,290.27,40.03z"/>
	<path stroke="#020203" stroke-width="0.25" stroke-miterlimit="10" d="M301.52,37.71c0,0,1.6-0.7,1.6-3.11
		c0-2.41-2.78-3.26-4.07-3.26s-4.51,0-4.51,0s-0.15,13.45,0,13.45h5.18c0.22,0,0.46-0.03,0.68-0.09c0.93-0.25,3.23-1.12,3.23-3.68
		C303.62,37.83,301.52,37.71,301.52,37.71z M297.36,33.87c0,0,0.9-0.03,1.78-0.03c0.55,0,1.23,0.55,1.23,1.36
		c0,0.52-0.3,0.86-0.56,1.07c-0.25,0.18-0.55,0.27-0.84,0.27h-1.6V33.87z M300.26,41.97c-0.3,0.21-0.65,0.31-1.01,0.31h-1.89v-3.15
		c0,0,1.08-0.04,2.1-0.04c0.65,0,1.47,0.65,1.47,1.63C300.93,41.32,300.59,41.72,300.26,41.97z"/>
	<rect x="304.69" y="31.36" stroke="#020203" stroke-width="0.25" stroke-miterlimit="10" width="2.99" height="13.42"/>
	<path stroke="#020203" stroke-width="0.25" stroke-miterlimit="10" d="M315.57,37.29c-0.07-0.03-0.31-0.12-0.38-0.15
		c-0.49-0.18-2.63-0.95-3.05-1.36c-0.46-0.46-0.78-1.89,0.95-2.06c1.73-0.16,2.35,1.45,2.35,1.45l2.25-1.64
		c-1.64-2.44-3.82-2.49-5.52-2.18s-2.86,2.1-2.96,3.76c-0.1,1.67,1.35,3.11,3.61,3.8s2.22,1.57,2.22,1.57s0.13,1.72-1.6,1.72
		s-2.65-1.95-2.65-1.95l-2.29,1.81c1.44,2.32,4.63,3.48,7.09,2.26c2.46-1.23,2.41-2.75,2.29-4.41
		C317.79,38.52,316.06,37.53,315.57,37.29z"/>
	<polygon stroke="#020203" stroke-width="0.25" stroke-miterlimit="10" points="333.1,44.78 335.87,44.78 335.87,39.39 
		341.42,39.39 341.42,37.1 335.9,37.1 335.9,34.26 342,34.26 342,31.4 333.1,31.4 	"/>
	<polygon stroke="#020203" stroke-width="0.25" stroke-miterlimit="10" points="343.02,31.4 343.02,34.32 346.66,34.32 
		346.66,44.78 346.91,44.78 349.72,44.78 349.72,34.32 353.26,34.32 353.26,31.4 	"/>
	<path stroke="#020203" stroke-width="0.25" stroke-miterlimit="10" d="M325.57,31.09c-1.94,0-3.68,0.78-4.93,2.06l0.38,0.38
		c-1.35,1.21-2.07,3.09-2.07,5.05c0,0.62,0.09,1.23,0.25,1.81c0.06,0.21,0.13,0.4,0.24,0.59c1.14,2.21,3.46,3.71,6.13,3.71
		c3.69,0,6.5-2.86,6.69-6.45c0-0.12,0.01-0.22,0.01-0.34C332.26,34.14,329.37,31.09,325.57,31.09z M329.43,38.39
		c-0.18,1.94-1.75,3.52-3.7,3.73c-0.47,0.04-0.93,0.01-1.38-0.07c-1.3-0.3-2.29-1.26-2.6-2.56c-0.07-0.31-0.12-0.65-0.12-0.98
		c0-1.2,0.5-2.26,1.3-3.03l-0.38-0.43c0.75-0.71,1.6-1.15,2.72-1.15c1.3,0,2.46,0.44,3.23,1.38
		C329.2,36.09,329.57,37.2,329.43,38.39z"/>
</g>
<g>
	<path d="M456.03,38.19V23.62h97.43c0-0.13,0-0.26,0-0.4h-97.63h-0.2v0.2v14.97v0.2h0.2h100.51c-0.09-0.13-0.17-0.26-0.26-0.4
		H456.03z"/>
	<polygon points="461.59,25.09 458.15,25.09 458.15,36.49 461.61,36.49 461.61,30.22 466.06,36.49 469.52,36.49 469.52,25.09 
		466.06,25.09 466.06,31.39 	"/>
	<path d="M470.6,36.49h3.75l0.6-1.89h4.14l0.59,1.89h3.84l-4.43-11.4h-4.05L470.6,36.49z M477.02,28.04l1.29,4.1h-2.59L477.02,28.04
		z"/>
	<path d="M484.13,25.09v6.8c0,0.56,0.11,1.2,0.34,1.93c0.14,0.45,0.4,0.89,0.78,1.32c0.38,0.43,0.8,0.75,1.26,0.98
		c0.46,0.23,1.03,0.38,1.72,0.46c0.68,0.08,1.32,0.12,1.9,0.12c1,0,1.86-0.13,2.57-0.38c0.51-0.18,1.01-0.5,1.47-0.95
		c0.47-0.45,0.81-0.97,1.03-1.57c0.22-0.6,0.33-1.24,0.33-1.91v-6.8h-3.67v6.96c0,0.63-0.18,1.12-0.54,1.47
		c-0.36,0.34-0.85,0.52-1.49,0.52c-0.64,0-1.14-0.17-1.5-0.53c-0.36-0.35-0.54-0.84-0.54-1.46v-6.96H484.13z"/>
	<path d="M503.82,27.39c0.54,0,0.99,0.11,1.34,0.34c0.35,0.23,0.6,0.55,0.75,0.98l3.54-0.6c-0.22-0.74-0.54-1.34-0.97-1.82
		c-0.43-0.48-0.97-0.83-1.63-1.06c-0.65-0.23-1.64-0.34-2.95-0.34c-1.37,0-2.45,0.18-3.26,0.55c-1.03,0.48-1.82,1.18-2.36,2.1
		c-0.54,0.92-0.8,2.01-0.8,3.25c0,1.18,0.24,2.23,0.73,3.15c0.49,0.91,1.18,1.6,2.07,2.07c0.89,0.46,2.04,0.69,3.46,0.69
		c1.15,0,2.14-0.13,2.98-0.39c0.84-0.26,1.8-0.74,2.89-1.46v-4.88h-5.69v2.38h2.48v1.08c-0.48,0.28-0.92,0.47-1.29,0.59
		c-0.38,0.11-0.77,0.17-1.19,0.17c-0.87,0-1.55-0.26-2.04-0.79c-0.49-0.53-0.73-1.41-0.73-2.65c0-1.16,0.24-2.01,0.72-2.55
		C502.36,27.66,503.01,27.39,503.82,27.39z"/>
	<polygon points="523.18,36.49 523.18,25.09 519.48,25.09 519.48,29.09 515.47,29.09 515.47,25.09 511.8,25.09 511.8,36.49 
		515.47,36.49 515.47,31.89 519.48,31.89 519.48,36.49 	"/>
	<polygon points="532.2,36.49 532.2,27.9 535.95,27.9 535.95,25.09 524.78,25.09 524.78,27.9 528.52,27.9 528.52,36.49 	"/>
	<path d="M544.7,36.49v-4.78l3.45-4.94c0.21-0.04,0.38-0.12,0.47-0.28c0.07-0.13,0.07-0.28,0.03-0.44l0.68-0.97h-1.74
		c-0.28-0.08-0.54-0.08-0.74,0h-1.57l-2.4,3.84l-2.4-3.84h-4.08l4.63,6.63v4.78H544.7z"/>
	<path d="M588.33,27.6c-0.7,0-1.27,0.24-1.7,0.72c-0.43,0.48-0.64,1.28-0.64,2.39c0,1.1,0.21,1.89,0.64,2.37
		c0.42,0.48,1,0.72,1.73,0.72c0.75,0,1.33-0.24,1.74-0.71c0.41-0.47,0.62-1.32,0.62-2.54c0-1.03-0.21-1.78-0.64-2.25
		C589.65,27.83,589.07,27.6,588.33,27.6z"/>
	<path d="M577.31,32.62c0.18-0.39,0.26-1.02,0.26-1.9c0-1.16-0.2-1.95-0.59-2.38c-0.39-0.43-1.04-0.64-1.95-0.64h-0.87v5.97h0.86
		c0.73,0,1.25-0.08,1.56-0.23C576.89,33.28,577.13,33.01,577.31,32.62z"/>
	<path d="M610.28,23.22h-41.62c1.56,1.78,2.14,4.05-2.14,5.88c0,0,2.86,0.82,4.12,2.77v-6.65h5.21c1.03,0,1.86,0.13,2.49,0.4
		c0.63,0.27,1.16,0.65,1.57,1.16c0.41,0.5,0.71,1.09,0.9,1.75c0.19,0.67,0.28,1.37,0.28,2.12c0,1.17-0.14,2.08-0.41,2.72
		c-0.28,0.64-0.66,1.18-1.15,1.62c-0.49,0.44-1.02,0.73-1.58,0.87c-0.77,0.2-1.47,0.3-2.09,0.3h-5.21v-0.17
		c-0.29,0.56-0.69,1.15-1.24,1.79c0,0-1.15,0.52-2.51,0.81h43.38h0.2v-0.2V23.42v-0.2H610.28z M593.57,33.75
		c-0.45,0.82-1.09,1.45-1.94,1.91c-0.84,0.45-1.9,0.68-3.16,0.68c-1.28,0-2.34-0.2-3.18-0.59c-0.84-0.39-1.52-1.01-2.04-1.86
		c-0.52-0.85-0.78-1.91-0.78-3.19c0-1.78,0.52-3.17,1.55-4.17c1.03-0.99,2.47-1.49,4.31-1.49c1.89,0,3.35,0.49,4.37,1.46
		c1.02,0.98,1.53,2.34,1.53,4.1C594.24,31.88,594.02,32.93,593.57,33.75z M607.24,34.57c-1.04,0.68-1.95,1.15-2.75,1.4
		c-0.8,0.25-1.74,0.37-2.84,0.37c-1.35,0-2.45-0.22-3.29-0.66c-0.85-0.44-1.51-1.1-1.97-1.98c-0.47-0.87-0.7-1.88-0.7-3.01
		c0-1.19,0.26-2.23,0.77-3.11c0.51-0.88,1.26-1.55,2.25-2.01c0.77-0.35,1.8-0.53,3.1-0.53c1.25,0,2.19,0.11,2.81,0.33
		c0.62,0.22,1.14,0.56,1.55,1.02c0.41,0.46,0.72,1.04,0.93,1.75l-3.39,0.58c-0.14-0.41-0.38-0.72-0.71-0.94
		c-0.33-0.22-0.76-0.33-1.27-0.33c-0.77,0-1.38,0.26-1.84,0.77c-0.46,0.51-0.68,1.32-0.68,2.43c0,1.18,0.23,2.02,0.69,2.53
		c0.46,0.51,1.1,0.76,1.93,0.76c0.39,0,0.77-0.05,1.12-0.16c0.36-0.11,0.76-0.29,1.22-0.55V32.2h-2.35v-2.28h5.43V34.57z"/>
	<path d="M562.58,21.56c0.32-0.29,0.21-0.91-0.24-1.4c-0.45-0.48-1.07-0.64-1.39-0.35c-0.32,0.29-0.21,0.91,0.24,1.4
		C561.64,21.69,562.26,21.85,562.58,21.56z"/>
	<path d="M562.51,26.32c1.27,1.62,3.2,2.23,4.31,1.36c1.12-0.87,1-2.88-0.27-4.5c-1.27-1.62-3.2-2.23-4.32-1.36
		C561.12,22.69,561.24,24.7,562.51,26.32z"/>
	<path d="M555.37,25.31c1.27,1.62,3.2,2.23,4.31,1.37c1.12-0.87,1-2.88-0.27-4.5c-1.27-1.62-3.2-2.23-4.32-1.37
		C553.98,21.68,554.1,23.69,555.37,25.31z"/>
	<path d="M546.91,34.68c0.41,0,0.78-0.13,0.99-0.34c-0.05,1.32,1.41,2.59,3.37,2.88c2.05,0.3,3.87-0.58,4.07-1.97
		c0.2-1.39-1.3-2.76-3.35-3.06c-1.8-0.27-3.43,0.38-3.93,1.49c-0.15-0.32-0.61-0.55-1.15-0.55c-0.66,0-1.2,0.35-1.2,0.77
		C545.71,34.34,546.25,34.68,546.91,34.68z"/>
	<path d="M569.92,33.05c0,0-0.99-3-5.33-3.67c0,0-4.22-1.53-6.01-0.43c0,0-4.28,6.73,0,10.95c0,0,3.53,2.26,4.9-2.51
		C563.48,37.39,571.91,38.86,569.92,33.05z"/>
	<path d="M553.27,25.88c-1.85-0.93-3.86-0.66-4.49,0.6c-0.63,1.26,0.36,3.02,2.2,3.95c1.85,0.93,3.86,0.66,4.49-0.6
		C556.1,28.57,555.12,26.8,553.27,25.88z"/>
	<path d="M555,20.49c0.32-0.29,0.22-0.91-0.23-1.4c-0.45-0.49-1.07-0.65-1.39-0.36c-0.32,0.29-0.21,0.91,0.23,1.4
		C554.06,20.62,554.68,20.78,555,20.49z"/>
	<path d="M560.02,27.56l1.92,0.12l-0.84-0.83C561.1,26.85,560.5,27.32,560.02,27.56z"/>
</g>
<g>
	<path d="M786.5,32.23c-2.8-0.01-5.6,0-8.4,0c0,0.89,0,1.79,0.01,2.68c1.89,0,3.79-0.01,5.68,0.01c-0.52,1.59-1.7,2.98-3.33,3.49
		c-1.93,0.68-4.2-0.03-5.46-1.63c-1.38-1.63-1.48-4.18-0.24-5.92c1.03-1.5,2.9-2.42,4.73-2.15c1.27,0.12,2.38,0.85,3.25,1.74
		c1.06,0.01,2.12,0.01,3.18,0c-1.19-2.43-3.61-4.18-6.31-4.46h-1.41c-2.53,0.26-4.92,1.77-6.1,4.05c-1.49,2.66-1.12,6.19,0.85,8.52
		c1.23,1.55,3.09,2.47,5.02,2.78h1.65c3.6-0.33,6.62-3.37,6.96-6.96V33C786.57,32.81,786.52,32.42,786.5,32.23z"/>
	<path d="M727.54,26h-1.44c-1.93,0.26-3.81,1.16-5.08,2.67c-1.7,1.94-2.31,4.77-1.53,7.23c0.86,2.93,3.58,5.14,6.61,5.44h1.64
		c1.87-0.3,3.69-1.15,4.92-2.62c2.09-2.32,2.52-5.95,0.99-8.68C732.47,27.77,730.07,26.26,727.54,26z M731.8,34.5
		c-0.28,1.8-1.64,3.35-3.37,3.91c-1.69,0.6-3.68,0.14-4.96-1.11c-1.15-1.03-1.75-2.63-1.57-4.17c0.19-2.02,1.78-3.79,3.73-4.3
		c1.72-0.46,3.65,0.12,4.87,1.41C731.57,31.34,732.06,32.97,731.8,34.5z"/>
	<path d="M690.74,26c-2.07,0.28-3.93,1.88-4.14,4.02v11.33h11.58c2.06-0.31,3.83-2.11,3.83-4.23c0.03-3.7,0.02-7.41,0-11.11H690.74z
		 M697.67,27.6c0.25,0.79,0.7,1.66,0.43,2.5c-0.38,0.44-1.2,0.26-1.22-0.37C696.92,28.97,697.04,28.12,697.67,27.6z M698.22,38.79
		c-2.63,0.03-5.26,0.02-7.89,0c-0.8,0.09-1.41-0.66-1.34-1.42c0.02-2.29-0.1-4.6,0.07-6.88c0.5-1.21,2.09-0.74,3.12-0.84
		c1.25-0.13,2.4,0.43,3.33,1.21c0.08-0.48,0.16-0.96,0.26-1.44c0.52,0.55,0.94,1.21,1.54,1.68c0.45,0.4,1.04-0.54,1.37-0.02
		c0.67,1.38,0.65,2.97,0.86,4.46c-0.42-0.2-0.84-0.39-1.26-0.6c-0.67-2.34-3.5-4.12-5.85-3.11c-2.06,0.94-1.84,4.23,0.1,5.19
		c2.16,1.12,4.71,0.81,7.02,0.47C699.44,38.17,699.01,38.88,698.22,38.79z"/>
	<path d="M710.98,32.92c-1.57-2.19-3.07-4.44-4.6-6.66c-0.71-0.01-1.43-0.01-2.15-0.01c0,4.95,0,9.89,0,14.84
		c0.89,0.01,1.78,0.01,2.67-0.01c0.01-3.09-0.03-6.18,0.02-9.28c1.13,1.57,2.19,3.18,3.27,4.78c0.5,0,1.01,0,1.51,0.01
		c1.11-1.59,2.16-3.23,3.3-4.8c0.03,3.09,0.02,6.19,0,9.28c0.89,0.03,1.77,0.05,2.66,0.04V26.23c-0.72,0.01-1.43,0.02-2.15,0.05
		C714.04,28.51,712.49,30.7,710.98,32.92z"/>
	<path d="M735.04,28.72c1.84,0,3.68,0.01,5.52-0.01c0.04,2,0.02,4,0.02,6c0,1.04-0.22,2.21-1.1,2.88c-1.26,0.94-2.93,0.93-4.43,0.97
		c-0.01,0.84-0.01,1.68-0.01,2.52c2.39-0.02,5.19-0.17,6.9-2.09c1-1.17,1.29-2.77,1.3-4.28c0.01-2.81,0-5.63,0-8.45h-8.2V28.72z"/>
	<path d="M767.1,35.55c-2.21-3.06-4.35-6.18-6.51-9.28c-0.7-0.01-1.39-0.02-2.09-0.02v14.83c0.89,0.01,1.77,0.01,2.66-0.01
		c0.01-3.08-0.02-6.16,0.02-9.25c2.17,3.06,4.32,6.14,6.44,9.23c0.71,0.02,1.42,0.03,2.13,0.04c0-4.95,0-9.9,0-14.85
		c-0.88-0.01-1.77,0.01-2.65,0.02C767.12,29.37,767.14,32.46,767.1,35.55z"/>
	<path d="M749.51,26.38c-2.02,4.88-3.94,9.81-5.92,14.71c0.94,0,1.89,0.05,2.83-0.03c0.61-1.12,0.95-2.39,1.46-3.57
		c1.82,0.01,3.63-0.01,5.45,0.01c0.43,1.19,0.91,2.37,1.34,3.56c0.96,0.04,1.92,0.05,2.88,0.02c-1.98-4.95-3.97-9.89-5.94-14.85
		C750.93,26.27,750.06,26.01,749.51,26.38z M748.87,34.96c0.56-1.49,1.14-2.97,1.7-4.46c0.63,1.47,1.16,2.97,1.75,4.46
		C751.16,34.96,750.02,34.96,748.87,34.96z"/>
</g>
<g>
	<path d="M24.19,143.72c35.41,0,106.24,0,106.24,0v-30.01l-106.24-0.08C24.19,113.63,24.19,133.77,24.19,143.72z M27.28,116.87
		c0,0,66.74,0,100.14,0c0,7.95,0,15.89,0,23.84c-33.41,0-100.14,0-100.14,0V116.87z"/>
	<path d="M57.52,119.96l-4.86,17.59c0,0,2.55,0.08,3.63,0c0.15-0.77,1.08-4.32,1.08-4.32h5.25l1.16,4.4h3.55l-5.01-17.67H57.52z
		 M57.98,130.37l1.85-7.48l2.08,7.48H57.98z"/>
	<path d="M112.22,132.07h7.41v-2.31c0,0-3.16,0-4.78,0c0-0.85,0-1.77,0-2.62c1.39,0,2.85,0,4.32,0c0-0.77,0-1.54,0-2.31
		c-1.47,0-2.85,0-4.32,0c0-0.85,0-2.55,0-2.55h4.78c0,0,0-1.54,0-2.31c-2.47,0-7.33,0-7.33,0L112.22,132.07z"/>
	<polygon points="98.03,133.15 94.63,119.96 91.08,119.96 96.4,137.62 99.57,137.62 104.89,119.96 101.34,119.96 	"/>
	<path d="M79.35,119.96c-1.16,0-2.24,0-3.39,0c-0.23,5.71-0.08,11.8-0.08,17.74c3.63,0,7.25,0,10.88,0c0-1,0-2.01,0-3.01
		c-2.47,0-4.94,0-7.41,0C79.35,129.75,79.35,124.89,79.35,119.96z"/>
	<polygon points="40.32,133.3 36.92,119.96 33.45,119.96 38.7,137.62 41.94,137.62 47.34,119.96 43.63,119.96 	"/>
	<path d="M133.51,115.79c0-0.31-0.15-0.46-0.31-0.46c0.23-0.08,0.39-0.23,0.39-0.46c0-0.15,0-0.31-0.15-0.39
		c-0.15-0.08-0.31-0.15-0.62-0.15c-0.23,0-0.39,0.08-0.54,0.08v1.93h0.31v-0.93h0.23c0.23,0,0.31,0.15,0.39,0.39
		s0.15,0.39,0.15,0.46h0.31C133.59,116.25,133.59,116.1,133.51,115.79z M132.82,115.25h-0.23v-0.62c0.08,0,0.15,0,0.23,0
		c0.31,0,0.46,0.15,0.46,0.31C133.28,115.17,133.05,115.25,132.82,115.25z"/>
	<path d="M132.97,113.55c-1,0-1.77,0.77-1.85,1.77c0,1,0.85,1.77,1.77,1.77c1,0,1.77-0.77,1.77-1.77
		C134.67,114.32,133.9,113.55,132.97,113.55z M132.97,116.79c-0.77,0-1.39-0.62-1.39-1.47c0-0.77,0.62-1.47,1.39-1.47
		c0.77,0,1.39,0.62,1.39,1.47S133.75,116.79,132.97,116.79z"/>
</g>
<g>
	<path d="M283.53,135h7.82v-3.06h-11.17v4.45c0,1.54,1.25,2.78,2.79,2.78h10.89v-3.34h-9.5C283.9,135.83,283.53,135.46,283.53,135z"
		/>
	<path d="M263.42,123.58c-2.02,0.07-3.63,1.73-3.63,3.76c0,2.08,1.69,3.76,3.77,3.76h4.24c1.72,0.65,3.16,2.34,3.16,4.31
		c0,2.54-2.34,4.59-4.89,4.59H255.6v3.34h10.89c4.32,0,7.82-3.49,7.82-7.79c0-4.3-3.78-7.79-8.1-7.79v0.04l-0.02-0.04h-2.49
		c-0.31,0-0.56-0.25-0.56-0.56c0-0.31,0.25-0.56,0.56-0.56h3.57h7.05v-3.06h-10.75C263.52,123.58,263.47,123.58,263.42,123.58z"/>
	<path d="M280.18,126.37v4.45h11.17v-3.06h-7.82c0-0.46,0.38-0.84,0.84-0.84h9.5v-3.34h-10.89
		C281.43,123.58,280.18,124.83,280.18,126.37z"/>
	<path d="M255.6,127.2c0,4.31,3.78,7.79,8.1,7.79v-0.04l0.02,0.04h2.49c0.31,0,0.56,0.25,0.56,0.56c0,0.31-0.25,0.56-0.56,0.56
		h-3.57h-7.05v3.06h10.75c0.05,0,0.09,0,0.14,0c2.02-0.07,3.63-1.73,3.63-3.76c0-2.07-1.69-3.76-3.77-3.76h-4.24
		c-1.72-0.65-3.16-2.34-3.16-4.31c0-2.54,2.34-4.59,4.89-4.59h10.47v-3.34h-10.89C259.1,119.41,255.6,122.9,255.6,127.2z"/>
	<path d="M303.63,126.92h9.5v-3.34h-10.89c-1.54,0-2.79,1.25-2.79,2.78v10.02c0,1.54,1.25,2.78,2.79,2.78h6.7v-7.52h-5.31V135h1.95
		v0.84h-1.95c-0.46,0-0.84-0.37-0.84-0.84v-7.24C302.8,127.3,303.17,126.92,303.63,126.92z"/>
	<path d="M329.81,122.78c-0.65-2.27-2.75-3.92-5.23-3.92c-2.48,0-4.58,1.66-5.23,3.92l-6.22,18.87v-13.89h-9.5v3.06h6.14v9.19h-8.38
		c-1.54,0-2.79-1.25-2.79-2.78v-11.69c0-1.54,1.25-2.78,2.79-2.78h11.73v-3.34h-12.01c-3.24,0-5.86,2.62-5.86,5.85v12.25
		c0,3.23,2.63,5.85,5.86,5.85h11.45h0.56h2.79l6.79-19.86c0.25-0.91,0.99-1.57,1.87-1.57c0.88,0,1.62,0.66,1.87,1.57l5.64,16.49
		l-8.9,0l0,3.37h13.4L329.81,122.78z"/>
	<path d="M323.18,139.16h7.79l-4.59-13.69c-0.23-0.77-0.94-3.01-1.78-3.01c-0.84,0-1.54,2.23-1.78,3.01l-6.07,17.87h3.91l2.51-7.4
		V139.16z M324.51,132.04l1.3,3.75h-2.57L324.51,132.04z"/>
	<path d="M275.99,125.25v12.12c0,3.23,2.63,5.85,5.86,5.85h12.01v-3.34h-11.73c-1.54,0-2.79-1.25-2.79-2.78v-11.56
		c0-1.54,1.25-2.78,2.79-2.78h11.73v-3.34h-12.01C278.61,119.41,275.99,122.03,275.99,125.25z"/>
</g>
<g>
	<rect x="561.3" y="134.62" width="4.71" height="2.47"/>
	<rect x="544.16" y="134.62" width="4.71" height="2.47"/>
	<path d="M488.05,129.45h-7.51c-2.35,0-3.1,0.64-3.1,3.1v6.92c0,2.47,0.75,3.11,3.1,3.11h2.38v1.8h2.76v-1.8h2.37
		c2.35,0,3.1-0.64,3.1-3.11v-6.92C491.15,130.09,490.4,129.45,488.05,129.45z M488.25,140.12h-2.57v-1.41h-2.76v1.41h-2.57v-8.41
		h7.9V140.12z"/>
	<path d="M503.29,140.12h-6.93v-10.66h-2.91v10.03c0,2.47,0.75,3.11,3.1,3.11h6.54c2.35,0,3.1-0.64,3.1-3.11v-10.03h-2.91V140.12z"
		/>
	<path d="M513.59,129.45l-6.66,13.13h2.74l1.37-2.88h7.46l1.41,2.88H523l-6.76-13.13H513.59z M512.2,137.34l2.62-5.35l2.53,5.35
		H512.2z"/>
	<path d="M533.54,137.62c1.92,0,2.81-0.71,2.81-2.54V132c0-1.83-0.9-2.54-2.81-2.54h-9.35v13.13h2.86v-4.96h1.93l4.51,4.96h3.94
		l-5.02-4.96H533.54z M527.05,135.38v-3.66h5.18c0.9,0,1.31,0.18,1.31,1.04v1.58c0,0.87-0.41,1.04-1.31,1.04H527.05z"/>
	<polygon points="558.9,131.69 567.09,131.69 567.09,129.45 555.99,129.45 555.99,142.58 567.21,142.58 567.21,140.12 558.9,140.12 
			"/>
	<path d="M579.07,136.35c0,0.41,0.05,1.17,0.12,2.26c-0.44-0.53-7.85-9.16-7.85-9.16h-1.99v13.13h2.62v-7.1
		c0-0.38-0.02-1.07-0.12-2.09c0.34,0.41,7.85,9.19,7.85,9.19h1.99v-13.13h-2.62V136.35z"/>
	<rect x="584.09" y="129.45" width="2.91" height="13.13"/>
	<polygon points="602.8,129.45 599.62,129.45 596,133.91 592.2,129.45 588.53,129.45 594.27,135.84 588.62,142.58 591.9,142.58 
		595.91,137.49 600.26,142.58 604.02,142.58 597.61,135.48 	"/>
	<polygon points="541.75,131.69 549.95,131.69 549.95,129.45 538.85,129.45 538.85,142.58 550.07,142.58 550.07,140.12 
		541.75,140.12 	"/>
	<path d="M472.23,134.57h-7.81v-2.86h8.19v1.21l2.57,0v-0.58c0-2.27-0.87-2.88-3.1-2.88h-7.1c-2.35,0-3.1,0.64-3.1,3.1v1.45
		c0,2.47,0.75,3.11,3.1,3.11h7.8v3h-11.46c0,1.93,0.96,2.47,3.1,2.47h7.8c2.35,0,3.13-0.64,3.13-3.11v-1.81
		C475.36,135.2,474.58,134.57,472.23,134.57z"/>
	<polygon points="608.63,140.39 607.99,142.06 607.33,140.39 606.77,140.39 606.77,142.58 607.13,142.58 607.13,140.76 
		607.14,140.76 607.86,142.58 608.09,142.58 608.81,140.76 608.82,140.76 608.82,142.58 609.18,142.58 609.18,140.39 	"/>
	<polygon points="604.59,140.69 605.28,140.69 605.28,142.58 605.64,142.58 605.64,140.69 606.33,140.69 606.33,140.39 
		604.59,140.39 	"/>
</g>
<title>Untitled 6</title>
<g>
	<path fill="#1E1E1C" d="M752.61,111.84H710.6c-3.39,0-4.65,1.27-4.65,4.67v41.1c0,0.39,0.02,0.74,0.06,1.08
		c0.07,0.74,0.09,1.47,0.78,2.29c0.07,0.07,0.78,0.61,0.78,0.61c0.37,0.19,0.63,0.32,1.06,0.5l20.67,8.67
		c1.08,0.48,1.53,0.69,2.31,0.67c0.78,0.02,1.23-0.17,2.31-0.67l20.67-8.67c0.43-0.17,0.69-0.32,1.06-0.5c0,0,0.71-0.52,0.78-0.61
		c0.69-0.82,0.71-1.54,0.78-2.29c0.04-0.33,0.06-0.69,0.06-1.08v-41.1C757.26,113.11,756.02,111.84,752.61,111.84z M734.23,119.77
		h3.48v22.83h-3.48V119.77z M734.53,148.04h2.07v7.07h-1.95v-4.06l-1.81,2.77h-0.04l-1.8-2.76v4.05h-1.92v-7.07h2.07l1.69,2.74
		L734.53,148.04z M722.99,119.77h5.45c2.83,0,4.22,1.4,4.22,4.24v6.07c0,2.85-1.4,4.24-4.22,4.24h-1.97v8.28h-3.48V119.77z
		 M713.52,119.77h7.74v3.16H717v6.46h4.09v3.16H717v6.88h4.32v3.16h-7.8V119.77z M719.96,154.15c-0.75,0.63-1.78,1.1-3.07,1.1
		c-2.2,0-3.84-1.52-3.84-3.66v-0.02c0-2.06,1.62-3.68,3.8-3.68c1.24,0,2.12,0.37,2.87,1.02l-1.15,1.39c-0.51-0.42-1-0.67-1.71-0.67
		c-1.02,0-1.81,0.85-1.81,1.93v0.02c0,1.15,0.8,1.97,1.92,1.97c0.48,0,0.85-0.1,1.13-0.29v-0.86h-1.38v-1.43h3.24V154.15z
		 M723.5,147.98h1.89l3.01,7.12h-2.1l-0.51-1.27h-2.74l-0.51,1.27h-2.05L723.5,147.98z M731.46,166.58l-9.75-3.35h19.89
		L731.46,166.58z M743.59,155.11h-5.74v-7.07h5.69v1.66h-3.75v1.08h3.39v1.55h-3.39v1.12h3.8V155.11z M739.52,138.54v-14.74
		c0-2.85,1.4-4.24,4.22-4.24h1.69c2.83,0,4.19,1.38,4.19,4.2v4.67h-3.4v-4.47c0-0.91-0.43-1.34-1.3-1.34h-0.58
		c-0.91,0-1.34,0.43-1.34,1.34v14.42c0,0.91,0.43,1.34,1.34,1.34h0.65c0.87,0,1.3-0.43,1.3-1.34v-5.15v-0.02h3.39v5.32
		c0,2.85-1.4,4.24-4.22,4.24h-1.71C740.91,142.78,739.52,141.39,739.52,138.54z M750.23,152.92c0,1.44-1.14,2.3-2.86,2.3
		c-1.25,0-2.43-0.39-3.31-1.17l1.09-1.3c0.71,0.56,1.47,0.85,2.29,0.85c0.54,0,0.82-0.18,0.82-0.48v-0.02c0-0.3-0.23-0.45-1.2-0.69
		c-1.5-0.34-2.67-0.77-2.67-2.21v-0.02c0-1.31,1.04-2.26,2.74-2.26c1.2,0,2.14,0.32,2.91,0.94l-0.98,1.38
		c-0.65-0.46-1.35-0.7-1.98-0.7c-0.47,0-0.71,0.19-0.71,0.45v0.02c0,0.32,0.24,0.46,1.23,0.69c1.62,0.35,2.63,0.88,2.63,2.2V152.92z
		"/>
	<polygon fill="#1E1E1C" points="724.43,150.31 723.63,152.31 725.21,152.31 	"/>
	<path fill="#1E1E1C" d="M729.19,129.91v-5.73c0-0.91-0.43-1.34-1.3-1.34h-1.43v8.41h1.43
		C728.76,131.25,729.19,130.82,729.19,129.91z"/>
</g>
<g>
	<polygon points="40.7,250.13 41.91,250.13 41.91,249.46 40.7,249.46 40.7,248.95 41.98,248.95 41.98,248.29 39.8,248.29 
		39.8,248.34 39.8,251.39 42.03,251.39 42.03,250.71 40.7,250.71 	"/>
	<polygon points="113.5,248.34 113.5,248.99 114.25,248.99 114.25,251.39 115.15,251.39 115.15,248.99 115.89,248.99 115.89,248.29 
		113.5,248.29 	"/>
	<path d="M108.74,250.04c0,0.08,0.01,0.18,0.01,0.27c-0.03-0.07-0.06-0.15-0.08-0.19l-0.88-1.83h-1.03v0.05h-0.05v0v0.05v3h0.82
		v-1.63c0-0.11-0.01-0.25-0.02-0.39c0.02,0.04,0.04,0.09,0.06,0.13h0l0.92,1.89h1.08v-3.1h-0.82V250.04z"/>
	<polygon points="101.79,250.13 103.01,250.13 103.01,249.46 101.79,249.46 101.79,248.95 103.08,248.95 103.08,248.29 
		100.89,248.29 100.89,248.34 100.89,251.39 103.13,251.39 103.13,250.71 101.79,250.71 	"/>
	<path d="M95.5,250.11L95.5,250.11c-0.01,0.05-0.02,0.11-0.04,0.17c-0.01-0.05-0.02-0.11-0.03-0.16l-0.53-1.84h-1.2v0.05h-0.05v0
		v0.05v3h0.77v-2.05c0-0.02,0-0.05,0-0.07l0.63,2.12h0.76l0.65-2.17c0,0.03,0,0.07,0,0.1v2.07h0.82v-3.1h-1.23L95.5,250.11z"/>
	<path d="M89.18,250.04c0,0.08,0.01,0.18,0.01,0.27c-0.03-0.07-0.06-0.15-0.08-0.19l-0.88-1.83H87.2v0.05h-0.05v0v0.05v3h0.82v-1.63
		c0-0.11-0.01-0.25-0.02-0.39c0.02,0.04,0.04,0.09,0.06,0.13l0.92,1.89h1.08v-3.1h-0.82V250.04z"/>
	<polygon points="82.46,248.34 82.46,251.39 83.36,251.39 83.36,248.29 82.46,248.29 	"/>
	<path d="M77.97,248.34h-0.03h-0.9H77h-0.03l-0.01,0l-1.16,3.04h0.07h0.07h0.68h0.04h0.04l0.22-0.65H78l0.21,0.65h0.04h0.04h0.75
		h0.07h0.07L78,248.34H77.97z M77.01,250.29l0.41-1.22l0.05-0.17l0.44,1.39H77.01z"/>
	<polygon points="70.39,248.34 70.39,248.99 71.13,248.99 71.13,251.39 72.03,251.39 72.03,248.99 72.77,248.99 72.77,248.29 
		70.39,248.29 	"/>
	<path d="M66.82,250.35c-0.22-0.27-0.26-0.43-0.41-0.49c0.19-0.04,0.32-0.13,0.42-0.25c0.1-0.13,0.14-0.28,0.14-0.48
		c0-0.26-0.1-0.46-0.29-0.59c-0.19-0.13-0.49-0.2-0.89-0.2H64.6l0.05,0.01v3.04h0.65v-1.3h0.2c0.16,0,0.27,0.07,0.34,0.12
		c0.07,0.05,0.13,0.19,0.17,0.32l0.26,0.86h0.83L66.82,250.35L66.82,250.35z M66.05,249.55c-0.09,0.06-0.22,0.09-0.39,0.09H65.3
		v-0.77l0.08-0.1h0.2c0.21,0,0.36,0.08,0.46,0.14c0.1,0.06,0.14,0.19,0.14,0.32C66.18,249.36,66.14,249.48,66.05,249.55z"/>
	<polygon points="59.49,250.13 60.7,250.13 60.7,249.46 59.49,249.46 59.49,248.95 60.77,248.95 60.77,248.29 58.69,248.29 
		58.64,248.29 58.64,248.34 58.59,248.34 58.59,251.39 60.82,251.39 60.82,250.71 59.49,250.71 	"/>
	<polygon points="52.62,248.29 52.62,248.34 52.57,248.34 52.57,248.99 53.31,248.99 53.31,251.39 54.21,251.39 54.21,248.99 
		54.95,248.99 54.95,248.29 52.67,248.29 	"/>
	<path d="M47.78,250.04c0,0.08,0.01,0.18,0.01,0.27c-0.03-0.07-0.06-0.15-0.08-0.19l0,0l-0.88-1.83H45.8v0.05h-0.05v0v0.05v3h0.82
		v-1.63c0-0.11-0.01-0.25-0.02-0.39c0.02,0.04,0.04,0.09,0.06,0.13h0l0.92,1.89h1.08v-3.1h-0.82V250.04z"/>
	<path d="M59.53,211.86c0.32,0.2,0.6,0.43,0.96,0.44c0.45,0.01,0.81,0.16,0.96,0.61c0.04,1.8,0.08,3.6,0.12,5.4
		c0.01,1.33,0.05,2.65,0.07,3.98c0.01,1.33,0,2.65,0.01,3.98c0.03,1.56,0.05,3.12,0.08,4.68c0,0-0.08,0.58-0.2,0.72
		s-0.08,1.3-0.08,1.3c0.44,0.39,0.35,0.33,0.04,0.85c-0.03,1.15-0.05,2.31-0.08,3.46c-0.11,0.21-0.21,0.42-0.32,0.63
		c0,0-1.16,0.68-1.16,1.26c0,0,0.16,0.72,0.56,0.45c0.4-0.27,0.56-0.67,0.97-0.67c0.4,0,2.08-0.31,2.48,0
		c0.4,0.31,0.44,0.04,0.64,0.04c0.2,0,0.79,0.1,0.79,0.1c0.51-0.05,0.41-0.87,0.04-1.11c-0.54-0.42-1.26-0.69-1.79-1.11
		c-0.05-0.4-0.11-0.81-0.16-1.21c0.15-0.21,0.29-0.42,0.44-0.63c0-0.67,0-1.35,0-2.02c-0.08-0.18-0.16-0.36-0.24-0.54
		c-0.03-0.51-0.05-1.02-0.08-1.53c-0.07-0.09-0.13-0.18-0.2-0.27c0-0.19,0-0.39,0-0.58c0.13-0.19,0.41-0.39,0.54-0.58
		c0.04-0.37-0.14-0.64-0.1-1.01c-0.09-0.48-0.11-1.07-0.2-1.55c0-0.58,0-1.17,0-1.75c0.39-0.12,0.48-0.29,0.51-0.46
		c0.04-0.22-0.07-0.49-0.19-1.02c-0.05-2.8-0.08-5.71-0.13-8.52c0.21-0.33,0.47-0.51,0.48-0.76c0-0.19-0.2-0.35-0.46-0.57
		c0-0.19,0-0.39,0-0.58c0,0,0.44-0.9,0.8-0.9c0.36,0,0.6-0.27,0.6-0.54c0.33-0.66-0.36-0.72-0.36-0.72
		c-0.77-0.02-1.63,0.02-2.38,0.01c-0.66-0.01-1.2-0.08-1.84-0.1c-0.28,0.02-0.56,0.03-0.84,0.04
		C59.12,211.28,59.27,211.66,59.53,211.86z"/>
	<path d="M52.7,234.94c0.04-0.32,0.45-0.5,0.47-0.82c0.01-0.84-0.02-1.73-0.03-2.62c-0.01-0.83,0.02-1.66-0.05-2.44
		c-0.06-0.36-0.63-0.38-0.69-0.74c-0.19-1.13,0.3-2.31,0.08-3.44c-0.09-0.43-0.82-0.48-0.95-0.9c-0.14-0.48,0.33-0.97,0.07-1.39
		c-0.26-0.44-1.56-0.07-1.43-0.57c0.12-0.48,0.63-0.88,0.92-1.3c0.5-0.74,0.96-1.43,1.35-2.18c0.28-0.54,0.47-1.12,0.48-1.75
		c0.01-0.76-0.16-1.87-0.25-2.86c-0.07-0.8-0.46-1.28-1-1.86c-0.34-0.36-0.98-0.32-1.42-0.53c-0.32-0.15-0.44-0.78-0.79-0.81
		c-2.2-0.22-4.48,0-6.69,0.1c-0.28,0.01-0.46,0.18-0.74,0.23c-0.52,0.09-1.4-0.15-1.88,0.08c-0.29,0.14-0.51,0.8-0.37,1.1
		c0.35,0.77,1.11,1.13,1.71,1.71c0.1,0.09,0.43-0.07,0.49,0.06c0.11,0.22,0.08,0.51,0,0.74c-0.06,0.18-0.38,0.22-0.4,0.41
		c0.06,2.16-0.02,4.33-0.07,6.49c-0.02,0.89,0.26,0.38,0.45,0.82c0.12,0.27,0.09,0.61,0,0.9c-0.23,0.76-0.29,0.75-0.27,1.59
		c0.02,0.56-0.05,1.56,0.17,1.82c0.15,0.27,0.01,0.6,0.01,0.82c0,0.55-0.07,0.58-0.24,0.89c0,0.65-0.16,5.82,0,7.37
		c0.26,1.01,0.18,4.01-0.08,6.27c-0.27,0.54-0.13,1.19-0.36,1.48c-0.13,0.17-0.36,0.3-0.59,0.41c-0.15,0.07-0.49,0.12-0.62,0.22
		c-0.21,0.17-0.1,0.4,0.5,0.63h0c1,0,2.59-0.1,3.41-0.03c0.81,0.07,0.28,0.2,0.99-0.37c0.12-0.11,0.35-0.12,0.47-0.01
		c0.21,0.18,0.13,0.39,0.4,0.43c0.34,0.04,0.37-0.23,0.69-0.35c0.35-0.13,0.95,0.04,1.23-0.22c0.22-0.02,0.68-0.64,1.41-1.18
		c0.5-0.37,1.28-0.81,1.91-1.01c0.38-0.46,0.31-1.53,0.55-2.26c0.27-0.84,0.97-1.46,1.16-2.32C52.89,236.73,52.6,235.78,52.7,234.94
		z M46.27,214.73c-0.01-0.38,0.3-0.36,0.67-0.43c0.37,0.02,1.07-0.02,1.15,0.17c0.07,0.19,0.07,0.47,0.71,0.4
		c0.65-0.07,0.46,0.37,0.19,0.63c-0.27,0.26-0.11,0.46,0.06,0.65c0.17,0.19,0.13,0.67-0.02,0.84c-0.16,0.17,0.02,0.77,0.11,1.39
		c0.09,0.62-0.17,0.67-0.17,0.67s-0.25,0.07-0.74,0.14c-0.29,0.04-0.63,0.61-0.87,1.07c-0.18,0.35-0.25,0.49-0.38,0.55
		c-0.12,0.05-0.3,0.01-0.7,0c0,0-0.05-3.46-0.05-3.65C46.22,216.97,46.28,215.11,46.27,214.73z M49.24,233.62
		c0.15,0.54,0.13,0.9,0,1.44c-0.16,0.64-0.32,1.29-0.48,1.93c-0.02,0.49-0.06,0.97-0.1,1.46c-0.05,0.74-0.15,0.76-0.67,1.29
		c-0.47,0.48-1.07,0.89-1.53,1.33c-0.5,0.19-0.89,0.21-1.39,0.4l0,0h0l0,0c0.18-0.35,0.37-0.71,0.55-1.06
		c-0.05-1.17-0.13-2.34-0.18-3.52c0.16-0.22,0.22-0.44,0.45-0.65c0-1.18,0-2.36,0-3.54c0-0.54-0.05-1.07-0.05-1.61
		c-0.55-0.46-0.28-0.45,0.17-0.98c0-0.52,0.13-0.94,0.13-1.45c-0.05-0.44-0.1-0.87-0.16-1.31c0.08-0.22,0.16-0.44,0.24-0.65
		c0-0.66,0.08-1.19,0.08-1.84c0-0.62,0.02-0.82,0.13-0.78c0.11,0.04,0.32,0.32,0.7,0.69c0.29,0.28,0.58,0.55,0.86,0.83
		c0.53,0.51,1.05,0.56,0.83,1.4c-0.2,0.78,0.38,1,0.2,1.78c-0.14,0.59-0.32,0.96-0.28,1.33c0.02,0.22,0.13,0.44,0.37,0.72
		c0.22,0.25,0.3,0.24,0.16,0.55c-0.21,0.49-0.38,0.77-0.4,1.06C48.85,232.79,49.06,232.96,49.24,233.62z"/>
	<path d="M75.65,234.26c0.04-0.42,0.44-0.67,0.53-1.08c0.03-0.14,0.19-0.14,0.21-0.27c0.05-0.47,0.04-1.04-0.08-1.5
		c-0.16-0.16-0.64-0.22-0.8-0.15c-0.18,0.13-0.02,0.6-0.14,0.78c-0.06,0.09-0.27-0.09-0.33,0c-0.06,0.09,0.02,0.24,0.04,0.36
		c0.02,0.07,0.01,0.13-0.04,0.16c-0.31,0.15-0.76-0.21-1.03,0c-0.27,0.21,0.03,0.61-0.19,0.86c-0.37,0.41-1.15,0.65-1.51,1.05
		c-0.43,0.49-0.39,0.98-0.89,1.4c-0.39,0.33-1.05,0.36-1.52,0.55c-0.55,0.22-0.81,0.63-1.38,0.79c-0.17,0.05-0.38-0.25-0.33-0.42
		c0.43-1.38,0.98-2.76,1.44-4.13c0.29-0.88,0.43-1.43,0.75-2.3c0.33-0.9,0.76-2.01,1.3-2.8c0.11-0.16,0.46-0.05,0.52-0.23
		c0.14-0.45-0.12-0.95,0-1.41c0.09-0.33,0.44-0.66,0.74-0.84c0.2-0.13,0.51,0.05,0.6-0.17c0.2-0.51,0.01-1.05,0.14-1.58
		c0.09-0.36,0.33-0.58,0.49-0.91c0.21-0.44,0.19-0.83,0.42-1.26c0.19-0.35,0.58-0.84,0.69-1.23c0.16-0.52,0.03-0.78,0.08-1.33
		c0.01-0.15,0.23-0.23,0.23-0.38c0.07-1.76,0.17-3.54,0.06-5.3c-0.01-0.14-0.33-0.14-0.33-0.28c0.01-0.54,0.08-1.01,0.05-1.5
		c-0.01-0.09,0.03-0.17-0.07-0.18c-1.47-0.06-2.92-0.03-4.39-0.01c-1.2,0.01-2.41-0.08-3.61,0c-0.18,0.01-0.34,0.04-0.47,0.18
		c-0.12,0.13-0.18,0.4-0.17,0.57c0.03,0.78-0.02,1.64,0,2.58c0,0.17,0.35,0.07,0.41,0.23c0.17,0.46,0.18,0.97,0.14,1.45
		c-0.01,0.16-0.2,0.37-0.2,0.52c0.08,0.54,0.15,0.93,0.24,1.45c0.06,0.2,0.23,0.36,0.28,0.56c0.06,0.24-0.16,0.73,0.09,0.75
		c0.08,0.01,0.37,0.05,0.52,0c0.19-0.07-0.07-0.42,0-0.61c0.05-0.14,0.31-0.14,0.33-0.28c0.12-0.77-0.09-1.68,0.03-2.45
		c0.04-0.24,0.17-0.48,0.38-0.61c0.17-0.11,0.48,0.16,0.61,0c0.17-0.22,0-0.48,0.11-0.74c0.15-0.37,0.4-0.72,0.7-0.98
		c0.28-0.25,0.55-0.54,0.92-0.58c0.82-0.09,1.81-0.01,2.92-0.06c0.1,0,0.13,0.16,0.14,0.26c0.04,0.51,0.13,1.21,0,1.55
		c-0.19,0.49-0.63,1.03-1.07,1.53c-0.3,0.34-0.61,0.65-0.84,1c-0.28,0.41,0.14,0.98-0.01,1.46c-0.15,0.49-0.55,1.01-0.86,1.42
		c-0.26,0.33-0.63,0.5-0.87,0.85c-0.3,0.43-0.47,0.85-0.66,1.34c-0.16,0.41-0.26,0.84-0.33,1.27c-0.06,0.34,0.11,0.72-0.05,1.03
		c-0.11,0.23-0.37,0.18-0.53,0.38c-0.23,0.27-0.36,0.61-0.47,0.94c-0.13,0.39-0.14,0.63-0.34,0.99c-0.22,0.41-0.68,0.8-0.88,1.22
		c-0.22,0.45-0.25,1.01-0.36,1.5c-0.11,0.48-0.2,0.93-0.3,1.41c-0.12,0.59-0.25,1.18-0.23,1.78c0,0.18,0.2,0.31,0.28,0.47
		c0.07,0.14,0.24,0.28,0.19,0.42c-0.07,0.2-0.44,0.21-0.47,0.42c-0.03,0.21,0.02,0.41,0.18,0.56c0.14,0.13,0.42,0.07,0.52,0.23
		c0.11,0.17,0.09,0.43,0,0.61c-0.07,0.15-0.33,0.12-0.36,0.28c-0.13,0.67,0.03,1.16-0.09,1.83c-0.03,0.16-0.4,0.16-0.38,0.33
		c0.04,0.23,0.06,0.59,0.29,0.62c0.67,0.09,1.58-0.18,2.25-0.06c0.26,0.05,0.28,0.49,0.52,0.61c0.2,0,0.5,0,0.75,0
		c0.19-0.1,0.14-0.45,0.33-0.56c0.23-0.14,0.55-0.19,0.8-0.09c0.14,0.05-0.05,0.41,0.09,0.42c1.17-0.04,2.21,0.08,3.32,0
		c0.22-0.04,0-0.35,0.18-0.48c0.21-0.15,0.72,0.11,0.75-0.14C75.81,237.02,75.53,235.57,75.65,234.26z"/>
	<path d="M116.96,219.23c-0.12-1.02,0.07-2.06-0.12-3.07c-0.07-0.37-0.35-0.66-0.48-1.02c-0.16-0.45-0.19-0.96-0.45-1.38
		c-0.18-0.29-0.59-0.49-0.83-0.74c-0.83-0.83-0.64-0.48-1.69-0.69c-0.22-0.04-0.35-0.29-0.56-0.36c-0.38-0.11-0.97-0.28-1.3-0.36
		c-0.29-0.07-0.47,0.14-0.75,0.07c-0.12-0.03-1.19-0.34-1.25-0.36c-0.34-0.16-0.45-0.44-0.78-0.63c-0.24-0.14-1.14-0.61-1.35-0.67
		c-0.28-0.09-0.46,0.05-0.74-0.06c-0.11-0.04-0.34-0.25-0.46-0.27c-0.36-0.06-0.76-0.09-1.14-0.08c-0.29,0.01-0.55,0.03-0.39,0.26
		c0.26,0.38,0.49,0.59,0.84,0.85c0.27,0.2,0.6,0.56,0.89,0.78c0.33,0.25,0.62,0.37,0.74,0.76c0.16,0.53,0.08,1.16,0.03,1.78
		c-0.01,0.09-0.18,0.29-0.19,0.37c-0.02,0.75,0.05,1.04,0.08,1.79c0.01,0.16-0.32,0.16-0.34,0.32c-0.08,0.97-0.02,1.85-0.01,2.83
		c0.01,0.92-0.03,1.93,0.01,2.84c0.01,0.15,0.13,0.26,0.13,0.42c0,0.42,0.05,0.72,0.05,1.08c0,0.41-0.04,0.86,0,1.33
		c0.01,0.16,0.14,0.19,0.17,0.35c0.05,0.84-0.04,1.7,0.04,2.55c0.01,0.12,0.31,0.27,0.33,0.39c0.11,0.62-0.07,1.33,0.1,1.93
		c0.1,0.34,0.35,0.69,0.55,1.05c0.23,0.43,0.46,0.74,0.49,1.16c0.06,0.85-0.13,1.05-0.16,1.88c-0.04,0.99-0.34,2.03-0.3,3.05
		c0.01,0.39,0.35,0.84,0.53,1.18c0.1,0.19,0.12,0.59,0.26,0.85c0.13,0.25,0.38,0.21,0.3,0.41c-0.06,0.15-0.21,0.3-0.39,0.38
		c-0.34,0.15-0.78,0.18-0.81,0.37c-0.08,0.3,0.14,0.47,0.27,0.78c0.1,0.24,0.19,0.63,0.13,1c-0.04,0.26-0.2,0.51-0.23,0.67
		c-0.08,0.42-0.29,0.63-0.51,0.84c-0.15,0.15-0.37,0.2-0.28,0.48l0,0c0.07,0.22,0.26,0.11,0.5,0.12c0.4,0.01,0.84-0.08,1.21-0.16
		c0.18-0.04,0.12-0.17,0.29-0.24c0.24-0.1,0.55-0.11,0.78,0c0.15,0.07,0.11,0.12,0.25,0.23c0.09,0.08,0.26,0.07,0.36,0
		c0.17-0.12,0.05-0.12,0.23-0.22c0.31-0.16,0.7-0.12,1.04-0.21c0.54-0.14,1.05-0.2,1.52-0.51c0.49-0.31,0.99-0.85,1.2-1.39
		c0.32-0.82,0.37-1.88,0.42-2.6c0.03-0.13,0.23-0.29,0.24-0.42c0.08-0.79-0.03-1.6,0.09-2.39c0.04-0.29,0.28-0.44,0.32-0.73
		c0.11-0.83,0.02-1.57-0.01-2.4c-0.05-1.18-0.08-2.1-0.04-3.28c0.11-0.62,0.05-1.4,0.29-1.97c0.09-0.22,0.37-0.29,0.5-0.49
		c0.17-0.28,0.35-0.61,0.37-0.94c0.05-0.67-0.15-1.36-0.05-2.03c0.06-0.4,0.4-0.56,0.45-0.96c0.14-1.19,0.12-2.36,0-3.55
		C117.32,219.87,117,219.54,116.96,219.23z M114.27,224.5c-0.21,0.39-0.3,0.69-0.33,1.02c-0.1,0.92-0.36,0.78-0.63,1.47
		c-0.07,0.19-0.06,0.42-0.06,0.87c-0.02,1.6-0.05,3.21-0.07,4.81c-0.01,1.02-0.21,1.51-0.62,2.46c-0.24,0.45-0.37,0.74-0.37,1.26
		c0,0.61-0.12,0.89-0.37,1.44c-0.15,0.34-0.29,0.67-0.44,1.01c-0.17,0.4-0.33,0.54-0.45,0.49c-0.12-0.05-0.19-0.3-0.19-0.69
		c0.01-1.96,0.02-3.91,0.03-5.87c0.02-2.08,0.04-4.16,0.07-6.24c-0.03-0.45-0.01-0.55-0.3-0.88c-0.03-0.67-0.16-0.98-0.37-1.62
		c-0.27-0.51-0.24-0.87-0.24-1.45c-0.02-1.45-0.03-2.89-0.05-4.34c-0.01-0.89,0.19-0.58,1.02-0.63h0c0.52-0.03,0.62-0.06,1.09,0.19
		c0.48,0.26,0.58,0.43,0.88,0.89c0.15,0.15,0.3,0.29,0.45,0.44c0.62,0.6,0.91,1.44,1.16,2.23
		C114.51,222.23,114.7,223.73,114.27,224.5z"/>
	<path d="M88.14,241.54c0.11-0.97,0.08-1.95,0-2.91c-0.02-0.18-0.18-0.3-0.22-0.48c-0.06-0.23-0.09-0.5,0-0.72
		c0.04-0.11,0.27,0,0.33-0.1c0.1-0.16,0.02-0.36-0.03-0.55c-0.05-0.21-0.05-0.49-0.26-0.55c-0.52-0.14-0.99,0.09-1.52,0
		c-0.16-0.03-0.19-0.39-0.33-0.33c-0.25,0.09-0.27,0.46-0.48,0.62c-0.41,0.31-0.98,0.53-1.44,0.76c-0.8,0.41-1.62,0.6-2.33,1.15
		c-0.23,0.18,0.08,0.74-0.19,0.86c-0.58,0.26-1.41,0.16-1.91,0.1c-0.41-0.48,0.35-1.06,0.4-1.7c0.24-0.65,0.73-1.23,0.9-1.9
		c0.18-0.69-0.04-1.53,0.08-2.23c0.1-0.55,0.58-0.98,0.67-1.53c0.19-1.23-0.22-2.51,0.04-3.73c0.09-0.43,0.69-0.6,0.86-1
		c0.14-0.32-0.09-0.71,0-1.05c0.06-0.23,0.35-0.35,0.43-0.57c0.18-0.52,0.28-1.09,0.44-1.62c0.07-0.23,0.31-0.39,0.33-0.62
		c0.09-1.08-0.14-2.17,0-3.25c0.05-0.4,0.34-0.67,0.45-1.05c0.19-0.7,0.05-1.47,0.29-2.15c0.07-0.2,0.49-0.09,0.57-0.29
		c0.16-0.4-0.1-0.89,0.05-1.29c0.11-0.28,0.66-0.34,0.77-0.62c0.18-0.46-0.01-1.01,0.16-1.48c0.1-0.27,0.4-0.44,0.54-0.7
		c0.26-0.49,0.63-1.02,0.59-1.58c-0.02-0.27-0.37-0.37-0.65-0.39c-1.84-0.05-3.68,0.02-5.52,0.03c-1.05,0.01-2.5,0-3.41,0.01
		c-0.54,0.01-0.69-0.08-0.7,0.47c-0.03,1.57,0.17,3.2,0.03,4.84c-0.01,0.15-0.34,0.09-0.38,0.24c-0.07,0.28,0.08,0.57,0.1,0.86
		c0.02,0.37-0.09,0.74,0,1.1c0.04,0.17,0.2,0.24,0.38,0.24c0.18,0,0.24-0.12,0.38-0.24c0.26-0.22,0.8-0.31,0.94-0.62
		c0.34-0.79,0.13-1.71,0.4-2.53c0.18-0.55,0.18-0.95,0.65-1.3c0.34-0.26,0.81-0.25,1.29-0.21c0.23,0.09,0.22,0.46,0.45,0.54
		c0.45,0.16,1.13-0.36,1.43,0.01c-0.08,0.39-0.06,1.01-0.24,1.48c-0.19,0.49-0.61,0.88-0.85,1.34c-0.41,0.78-0.7,1.33-0.94,2.18
		c-0.12,0.43,0.01,1.12-0.11,1.55c-0.13,0.45-0.66,0.7-0.81,1.15c-0.13,0.38,0.13,0.82,0,1.19c-0.09,0.28-0.45,0.27-0.5,0.56
		c-0.04,0.24,0.23,0.41,0.31,0.64c0.06,0.18,0.02,0.39-0.05,0.57c-0.21,0.59-0.32,0.41-0.56,0.99c-0.37,0.93-1.01,2.47-1.13,3.46
		c-0.16,1.28-0.11,2.67,0.07,3.95c0.05,0.35,0.33,0.6,0.39,0.96c0.1,0.56,0.07,1.15,0,1.72c-0.02,0.14-0.14,0.2-0.16,0.33
		c-0.08,0.52,0.08,1.07-0.05,1.58c-0.03,0.11-0.3-0.11-0.33,0c-0.11,0.33,0.15,0.73,0,1.05c-0.11,0.23-0.43,0.18-0.59,0.38
		c-0.11,0.14-0.14,0.38-0.05,0.53c0.07,0.11,0.15-0.06,0.2,0.06c0.08,0.2-0.03,0.44-0.14,0.62c-0.08,0.12-0.36-0.01-0.38,0.13
		c-0.04,0.59-0.15,1.22,0.01,2h0c0.2,0.34,0.81,0.24,1.19,0.15c0.28-0.07,0.49-0.31,0.78-0.35c0.8-0.12,1.72,0.03,2.52-0.12
		c0.44-0.09,0.48-0.45,0.92-0.55c0.38-0.09,1.02-0.07,1.37,0.09c0.13,0.06,0.05,0.31,0.19,0.32c1.38,0,2.65-0.11,4.03-0.04
		C88,241.96,88.11,241.75,88.14,241.54z"/>
	<path d="M74.96,243.91c-0.23-1.2,0.46-3.47-0.18-3.49c-1.13-0.12-3.07-0.05-4.58-0.04c-1.6,0.01-3.08-0.12-4.67,0.09
		c-0.37,0.05-0.57,0.43-0.93,0.52c-0.61,0.16-1.28,0.14-1.9,0.03c-0.47-0.08-0.82-0.4-1.29-0.35c-0.39,0.04-0.56,0.57-0.94,0.67
		c-0.67,0.18-1.5,0.23-2.17,0.03c-0.2-0.06,0.05-0.44-0.05-0.63c-0.06-0.12-0.38-0.02-0.37-0.16c0.02-0.24,0.38-0.34,0.42-0.58
		c0.11-0.62-0.09-1.26,0-1.88c0.02-0.12,0.3-0.08,0.31-0.21c0.06-0.42-0.18-0.84-0.1-1.26c0.03-0.15,0.29-0.13,0.37-0.26
		c0.11-0.2,0.11-0.39,0.05-0.62c-0.04-0.16-0.18-0.08-0.26-0.23c-0.08-0.15-0.02-0.43,0.08-0.57c0.14-0.2,0.58-0.35,0.56-0.59
		c-0.03-0.5-0.1-0.74-0.07-1.25c0.01-0.18-0.36-0.36-0.39-0.54c-0.05-0.32-0.01-0.66-0.02-0.98c0-0.24-0.08-0.46,0.04-0.69
		c0.11-0.2,0.24-0.53,0.25-0.8c0.08-1.86,0.26-3.74,0.06-5.6c-0.04-0.33-0.56-0.45-0.6-0.78c-0.2-1.96-0.17-3.94-0.05-5.91
		c0.01-0.16,0.3-0.06,0.34-0.21c0.1-0.41,0.08-0.89-0.05-1.29c-0.06-0.17-0.3-0.09-0.39-0.25c-0.12-0.21-0.17-0.48-0.1-0.72
		c0.04-0.14,0.31-0.07,0.32-0.21c0.04-0.42-0.03-0.83-0.02-1.24c0.01-0.46,0.08-0.92-0.08-1.37c-0.12-0.35-0.34-0.46-0.58-0.71
		c-0.19-0.19-0.4-0.54-0.64-0.7c-0.16-0.11-0.49,0.05-0.67-0.03c-0.27-0.12-0.29-0.49-0.58-0.55c-0.66-0.15-1.33,0.15-2.01,0.06
		c-0.15-0.02-0.15-0.31-0.29-0.39c-0.17-0.09-0.41-0.12-0.56,0c-0.2,0.15-0.34,0.53-0.22,0.74c0.19,0.34,0.52,0.51,0.77,0.74
		c0.26,0.24,0.44,0.54,0.76,0.81c0.12,0.1,0.42,0.03,0.52,0.15c0.15,0.18,0.1,0.36,0.2,0.57c0.06,0.11,0.27,0.23,0.3,0.35
		c0.09,0.37,0.1,0.78,0,1.15c-0.05,0.2-0.27,0.33-0.35,0.52c-0.07,0.16-0.14,0.32-0.06,0.48c0.08,0.17,0.31,0.14,0.35,0.32
		c0.13,0.56,0.04,1.18,0.05,1.73c0.01,0.36-0.77,0.37-0.77,0.73c-0.01,0.47,0.05,1.06,0.06,1.7c0.01,0.61,0.35,0.41,0.36,0.55
		c0.12,1.49-0.09,2.91,0.03,4.4c0.01,0.13,0.28,0.13,0.33,0.25c0.12,0.25,0.1,0.57,0.02,0.84c-0.05,0.17-0.32,0.14-0.34,0.31
		c-0.11,1.02,0.2,2.07,0.05,3.09c-0.03,0.19-0.32,0.09-0.41,0.26c-0.13,0.25-0.01,0.35,0.01,0.63c0.01,0.18-0.04,0.55-0.02,0.73
		c0.03,0.22,0.08,0.47,0,0.68c-0.04,0.11-0.3,0.1-0.31,0.22c-0.05,0.63-0.01,1.24-0.02,1.86c-0.01,0.58-0.06,1.2,0.04,1.79
		c0.05,0.32,0.54,0.31,0.72,0.58c0.09,0.13,0.08,0.33,0,0.47c-0.08,0.14-0.38,0.1-0.42,0.26c-0.1,0.35,0.1,0.62,0,0.97
		c-0.05,0.19-0.31,0.11-0.34,0.47c-0.05,0.57-0.04,1.14,0.02,1.71c0.07,0.63,0.19,0.19,0.37,0.4c0.08,0.09,0.06,0.26,0,0.37
		c-0.08,0.13-0.33,0.12-0.37,0.26c-0.11,0.47,0.14,1.02-0.13,1.43c-0.45,0.69-1.44,0.78-1.94,1.44c-0.13,0.17,0.19,0.58,0.4,0.63
		c0.19,0.05,0.5-0.1,0.7-0.1c0.63-0.01,1.33,0.2,1.92-0.01c0.8-0.28,0.79-0.96,1.56-1.31c0.41-0.19,1.19-0.14,1.62-0.02
		c0.31,0.09,0.35,0.26,0.84,0.28c2.26,0.12,4.43-0.11,6.69,0.05c0.22,0.02,0.25,0.44,0.47,0.47c0.97,0.13,1.94-0.11,2.91,0.01
		c0.36,0.04,0.76,0.38,1.12,0.47c0.24,0.06,0.51-0.15,0.73-0.05c0.21,0.08,0.2,0.51,0.42,0.52c1.13,0.05,2.19-0.03,3.24-0.03
		c0.56,0,0.47-0.19,0.26-0.58C75.24,244.32,75.01,244.17,74.96,243.91z"/>
	<path d="M93.58,238.88c0.06-0.19,0.43-0.33,0.51-0.51c0.13-0.29,0.14-0.62,0.21-0.93c0.14-0.59,0.31-0.9,0.53-1.47
		c0.06-0.15,0.25-0.23,0.25-0.39c0.07-1.36,0.07-2.83,0.05-4.19c-0.01-0.94-0.05-1.86-0.08-2.79c-0.01-0.25-0.2-0.74-0.25-1.09
		c-0.08-0.56-0.14-1.1-0.15-1.69c-0.02-0.64,0.1-1.24-0.01-1.87c-0.07-0.39-0.48-0.78-0.57-1.16c-0.07-0.32,0.19-0.67,0.1-0.99
		c-0.05-0.18-0.26-0.14-0.33-0.31c-0.15-0.41-0.31-0.8-0.4-1.23c-0.12-0.58-0.16-1.21-0.32-1.78c-0.18-0.65-0.49-1.27-0.71-1.91
		c-0.17-0.51-0.26-1.04-0.38-1.57c-0.09-0.39,0.07-0.92-0.08-1.29c-0.28-0.71-0.79-1.12-1.09-1.83c-0.17-0.4-0.03-0.89-0.18-1.3
		c-0.08-0.21-0.34-0.36-0.57-0.35c-0.3,0.01-0.6,0.13-0.73,0.4c-0.18,0.37,0.12,0.87-0.05,1.25c-0.21,0.47-0.77,0.46-0.99,0.92
		c-0.15,0.33,0.1,0.89-0.02,1.23c-0.16,0.46-0.46,0.82-0.68,1.25c-0.15,0.3-0.22,0.67-0.38,0.96c-0.13,0.23-0.33,0.4-0.37,0.66
		c-0.05,0.29,0.16,0.53,0.08,0.82c-0.06,0.21-0.18,0.3-0.32,0.44c-0.22,0.22-0.41,0.62-0.5,0.97c-0.17,0.67-0.03,1.49-0.19,2.17
		c-0.07,0.28-0.53,0.34-0.62,0.62c-0.13,0.41,0.12,0.88,0,1.3c-0.11,0.4-0.57,0.7-0.68,1.1c-0.18,0.64-0.17,1.4-0.05,2.05
		c0.04,0.21,0.43,0.1,0.47,0.31c0.03,0.18-0.41,0.09-0.47,0.26c-0.14,0.43,0.08,0.92-0.05,1.35c-0.1,0.34-0.31,0.26-0.38,0.61
		c-0.05,0.26,0.06,0.73,0.07,1c0.02,0.51-0.09,0.88-0.1,1.39c-0.01,0.21,0.16,0.56,0.05,0.74c-0.2,0.32-0.74,0.31-0.93,0.62
		c-0.18,0.29,0.06,0.84-0.1,1.14c-0.22,0.42-0.84,0.4-0.88,0.87c-0.04,0.47-0.01,1.22,0.47,1.24l0,0c0.41,0.01,0.79-0.23,1.16-0.42
		c0.56-0.28,1.1-0.56,1.71-0.69c0.56-0.12,1.15,0.09,1.73,0.06c0.19-0.01,0.38,0,0.54-0.1c0.27-0.16,0.35-0.27,0.43-0.59
		c0.12-0.48-0.72-0.61-0.93-1.05c-0.2-0.42,0.08-0.91,0.03-1.37c-0.02-0.16-0.21-0.28-0.21-0.44s0.17-0.43,0.31-0.36
		c0.98,0.48,2.25,1.07,3.03,1.71c0.38,0.31,0.51,0.53,0.5,1.02c-0.01,0.33-0.09,0.73-0.22,1.07c-0.19,0.46-0.38,1.11-0.68,1.52
		c-0.44,0.59-0.87,1.06-0.92,1.78c-0.05,0.75,1.05,1.01,1.4,1.68c0.19,0.37,0.01,1.09,0.11,1.5c0.21,0.83,0.57,1.34,0.7,2.18
		c0.11,0.72-0.09,1.22,0.01,1.95c0.02,0.17,0.44,0.09,0.6,0.02c0.22-0.1,0.27-0.07,0.35-0.3c0.13-0.41-0.04-0.87,0.05-1.3
		c0.04-0.17,0.26-0.25,0.31-0.42c0.09-0.32-0.06-0.67,0.03-0.99c0.08-0.29,0.28-0.73,0.41-1.02c0.18-0.41,0.37-0.67,0.39-1.11
		C93.61,239.71,93.44,239.29,93.58,238.88z M91.65,229.69c-0.01,0.21-0.56,0.22-0.71,0.11c-0.3-0.23-0.48-0.49-0.87-0.58
		c-0.16-0.04-0.15-0.29-0.31-0.35c-0.34-0.11-0.77-0.14-1.12-0.14c-0.23,0-0.57,0.08-0.8,0.05c-0.04-0.01,0-0.09,0-0.14
		c-0.01-0.46-0.02-0.91-0.02-1.36c0-0.4,0.01-0.8,0.04-1.2c0.02-0.26,0.26-0.46,0.29-0.72c0.05-0.43-0.21-0.95-0.09-1.36
		c0.05-0.17,0.47,0,0.57-0.14c0.03-0.05,0.1-0.32,0.2-0.55c0.06-0.14,0.2-0.26,0.2-0.31c0-0.08-0.01-0.62,0.05-1.1
		c0.03-0.27,0.08-0.51,0.12-0.51c0.04,0,0.08,0.23,0.23,0.42c0.17,0.22,0.22,0.43,0.37,0.67c0.09,0.14,0.18,0.3,0.32,0.35
		c0.18,0.07,0.4-0.03,0.58,0.04c0.14,0.05,0.17,0.27,0.29,0.35c0.08,0.06,0.27-0.05,0.29,0.05c0.09,0.47,0.01,1.1,0.09,1.58
		c0.02,0.11,0.27,0.06,0.27,0.18c0.04,0.82,0.06,1.65,0.05,2.48C91.71,228.23,91.69,228.96,91.65,229.69z"/>
	<path d="M106.81,238.93c0.03-0.73,0.09-1.46,0.05-2.19c-0.02-0.34-0.02-0.71-0.24-0.97c-0.17-0.19-0.66,0-0.73-0.24
		c-0.09-0.34,0.4-0.62,0.41-0.97c-0.13-0.95-0.26-1.8-0.27-2.73c-0.02-1.1-0.25-0.55-0.62-0.98c-0.22-0.26-0.29-0.49-0.32-0.83
		c-0.1-1,0.04-2.1-0.11-3.09c-0.07-0.44-0.27-0.88-0.57-1.22c-0.11-0.12-0.3,0.06-0.37-0.09c-0.12-0.24,0.25-0.41,0.11-0.64
		c-0.33-0.54-1.02-0.95-1.55-1.3c-0.16-0.1-0.43,0.13-0.57,0s-0.13-0.54,0-0.68c0.94-0.14,1.42-0.58,1.87-1.1
		c0.62-0.71,0.92-1.51,1.23-2.41c0.14-0.41-0.04-0.89,0.01-1.33c0.09-0.8,0.51-1.53,0.37-2.32c-0.2-1.16-0.77-2.19-1.43-3.16
		c-0.36-0.54-0.93-1.02-1.52-1.3c-0.49-0.23-0.9-0.04-1.42-0.19c-0.6-0.18-1.09-0.51-1.7-0.64c-0.48-0.1-0.98,0.1-1.46-0.01
		c-0.3-0.07-0.35-0.4-0.65-0.45c-0.21-0.03-0.42,0.27-0.63,0.29c-1.46,0.12-2.65-0.16-4.1,0.03c-0.22,0.03-0.15,0.27,0.02,0.39
		c0.27,0.19,0.67,0.09,0.97,0.22c0.54,0.23,0.95,0.54,1.35,0.97c0.33,0.35,0.46,0.75,0.76,1.3c0.12,0.23,0.48-0.21,0.73-0.24
		c0.32-0.05,0.54-0.05,0.75,0.2c0.18,0.23-0.19,0.53-0.41,0.73c-0.43,0.4-0.73,0.61-1.11,0.87c-0.26,0.18-0.73,0.34-0.92,0.69
		c-0.43,0.78,0.08,1.67,0.25,2.54c0.06,0.32,0.13,0.63,0.2,0.95c0.24,1.03,0.16,1.89,0.3,2.94c0.05,0.34,0.29,0.63,0.32,0.97
		c0.04,0.4-0.03,0.7,0.03,1.1c0.03,0.17,0.17,0.35,0.21,0.52c0.2,0.74,0.38,1.67,0.41,2.44c0.08,2.51-0.07,4.98,0.06,7.49
		c0.01,0.23,0.35,0.32,0.4,0.54c0.07,0.35-0.16,0.75-0.28,1.08c-0.48,1.37-1.04,2.4-1.34,3.57h0c-0.13,0.5,0.26,0.7,0.71,0.99
		c0.45,0.29,0.98,0.68,1.47,1.08c0.84,0.68,1.4,1.93,1.95,3.16c0.28-0.3,0.08-1.68,0.24-2.51c0.03-0.18,0.23-0.31,0.24-0.49
		c0.06-0.65,0.08-1.3,0-1.95c-0.03-0.24-0.26-0.42-0.32-0.65c-0.05-0.18-0.04-0.38,0-0.57c0.05-0.23,0.22-0.42,0.24-0.65
		c0.06-0.67,0.1-1.36,0-2.03c-0.04-0.25-0.42-0.39-0.41-0.65c0.02-0.21,0.47-0.2,0.49-0.41c0.04-0.6-0.16-1.19-0.24-1.78
		c-0.17-1.35-0.27-2.7-0.41-4.06c-0.05-0.49-0.24-0.98-0.16-1.46c0.25-0.66,0.49-1.33,0.73-1.87c0.12-0.16,0.28,0.15,0.4,0.3
		c0.4,0.5,0.92,1.13,1.03,1.76c0.14,0.77-0.28,1.46-0.19,2.24c0.03,0.23,0.38,0.19,0.46,0.4c0.39,1.03,0.7,2.08,0.89,3.16
		c0.22,1.23,0.29,2.48,0.32,3.73c0.02,0.54-0.01,1.1-0.16,1.62c-0.22,0.74-0.68,1.34-0.91,2.05c-0.24,0.75-0.32,0.98,0.48,0.98
		c0.31,0,0.68,0.01,0.93,0.13c0.65,0.33,0.92,1.08,1.54,1.46c0.13,0.08,0.31,0.2,0.49,0.3c0.88,0.49,0.97,0.15,1.16-0.62
		c0.24-1.01,0.3-1.93,0.46-2.93C106.8,239.96,106.78,239.44,106.81,238.93z M101.83,219.95c-0.05,0.35-0.31,0.62-0.46,0.92
		c-0.1,0.2-0.06,0.68-0.33,0.95c-0.39,0.4-0.91,0.8-1.29,0.8c-0.8,0-0.83-0.1-0.88-0.68c-0.04-0.45,0.06-1.5,0.06-2.05
		c0-0.67-0.05-1.43-0.05-2.12c0-0.64,0.04-1.22,0.04-1.86c0-0.5-0.05-1.01-0.05-1.49h0c0-0.59-0.01-0.65,0.67-0.5
		c0.37,0.08,0.6,0.28,0.92,0.74c0.17,0.25,0.57,0.58,0.9,0.95c0.49,0.54,0.91,1.13,0.91,1.54c0,0.28-0.11,1.57-0.23,1.68
		C101.74,219.13,101.9,219.5,101.83,219.95z"/>
	<path d="M118.31,210.99c0.05-0.07,0.08-0.15,0.08-0.25c0-0.15-0.06-0.2-0.17-0.28c-0.11-0.08-0.28-0.06-0.49-0.06h-0.59v1.4h0.47
		v-0.47h0.02l0.27,0.47h0.52l-0.33-0.66C118.18,211.12,118.26,211.07,118.31,210.99z M117.85,210.91c-0.04,0.03-0.09,0.05-0.16,0.05
		h-0.1v-0.36h0.07c0.09,0,0.15,0.01,0.19,0.04c0.04,0.03,0.06,0.07,0.06,0.13C117.9,210.83,117.88,210.88,117.85,210.91z"/>
	<path d="M119.01,210.55c-0.07-0.17-0.17-0.32-0.3-0.45c-0.13-0.13-0.29-0.24-0.46-0.3c-0.17-0.07-0.35-0.1-0.55-0.1
		c-0.19,0-0.37,0.03-0.54,0.1c-0.17,0.07-0.32,0.17-0.44,0.3c-0.14,0.14-0.24,0.29-0.31,0.46c-0.07,0.17-0.11,0.35-0.11,0.54
		c0,0.19,0.04,0.36,0.11,0.53c0.07,0.17,0.17,0.32,0.31,0.45c0.14,0.14,0.29,0.24,0.45,0.31c0.17,0.07,0.35,0.11,0.53,0.11
		c0.18,0,0.36-0.04,0.54-0.11c0.17-0.07,0.33-0.18,0.47-0.31c0.13-0.13,0.23-0.28,0.3-0.44c0.07-0.17,0.1-0.35,0.1-0.54
		C119.12,210.9,119.08,210.72,119.01,210.55z M118.75,211.52c-0.05,0.13-0.13,0.25-0.24,0.35c-0.11,0.11-0.23,0.19-0.37,0.25
		c-0.14,0.06-0.28,0.09-0.43,0.09c-0.15,0-0.29-0.03-0.43-0.08c-0.13-0.06-0.26-0.14-0.36-0.25c-0.11-0.11-0.19-0.23-0.24-0.36
		c-0.06-0.13-0.08-0.28-0.08-0.42c0-0.15,0.03-0.29,0.09-0.43c0.06-0.14,0.14-0.26,0.25-0.37c0.1-0.11,0.22-0.19,0.35-0.24
		c0.13-0.05,0.28-0.08,0.43-0.08c0.15,0,0.29,0.03,0.43,0.08c0.13,0.06,0.25,0.14,0.36,0.25c0.1,0.1,0.18,0.22,0.24,0.36
		c0.06,0.14,0.08,0.28,0.08,0.43C118.83,211.24,118.8,211.38,118.75,211.52z"/>
</g>
<g>
	<path fill="#020203" d="M321.95,234.49h5.25v-4.1l2.72,4.1h6l-3.79-5.08c0,0,3.31-0.42,3.23-3.44c-0.07-2.9-2.83-3.7-5.63-3.7
		l-9.68-0.02l1.9,1.78V234.49z M327.17,225.56h1.17c0.73,0,1.41,0.21,1.47,0.96c0.03,0.73-0.63,1.13-1.38,1.13h-1.26V225.56z"/>
	<polygon fill="#020203" points="258.82,227.84 258.82,234.49 264.3,234.49 264.3,226.1 256.94,226.08 	"/>
	<path fill="#020203" d="M253.28,226.33c1.55-0.56,2.91-1.85,2.84-3.47c-0.12-2.51-2.56-3.87-5.23-3.87l-11.88-0.02l2.27,2.27v13.27
		h8.6c3.4,0,7.1-0.77,7.1-4.45C256.96,227.97,255.62,226.87,253.28,226.33z M247.4,222.66h0.02h1.13c0.75,0,1.31,0.42,1.33,1.03
		c0.03,0.59-0.56,1.06-1.24,1.06h-1.24V222.66z M249.02,230.83h-1.59v-2.48h1.48c0.84,0,1.62,0.33,1.66,1.19
		C250.61,230.27,249.86,230.83,249.02,230.83z"/>
	<rect x="258.82" y="222.26" fill="#020203" width="5.48" height="2.72"/>
	<polygon fill="#020203" points="338.02,234.49 348.28,234.49 348.28,231.32 343.46,231.32 343.45,231.32 343.45,229.94 
		347.63,229.94 347.63,226.76 343.45,226.76 343.45,225.44 348.14,225.44 348.14,222.28 336.1,222.26 338.02,224.06 	"/>
	<path fill="#020203" d="M351.61,221.65c-0.03-0.03-0.09-0.07-0.17-0.1c0.19-0.03,0.35-0.1,0.44-0.21c0.09-0.1,0.14-0.23,0.14-0.37
		c0-0.19-0.05-0.33-0.17-0.44s-0.31-0.17-0.59-0.17h-0.92h-0.02v2.13h0.52v-0.84c0.03,0,0.05,0,0.07,0c0.07,0,0.14,0.03,0.21,0.1
		c0.07,0.09,0.19,0.31,0.4,0.73h0.63c-0.23-0.4-0.35-0.61-0.35-0.63C351.73,221.77,351.66,221.7,351.61,221.65z M351.05,221.25
		h-0.21h-0.02v-0.51h0.24c0.16,0,0.24,0.02,0.31,0.07c0.05,0.05,0.09,0.1,0.09,0.17c0,0.09-0.03,0.14-0.09,0.19
		C351.31,221.23,351.21,221.25,351.05,221.25z"/>
	<path fill="#020203" d="M346.15,237.4h-5.22l0.96,0.92v5.55h2.74v-1.95h1.34c1.52,0,2.83-0.58,2.79-2.3
		C348.73,238.08,347.6,237.4,346.15,237.4z M345.26,240.25h-0.63v-1.17h0.61c0.38,0,0.72,0.1,0.73,0.56
		C346.03,240.06,345.64,240.25,345.26,240.25z"/>
	<path fill="#020203" d="M339.12,239.37c-0.03-1.54-1.45-1.97-2.9-1.97h-4.95l0.96,0.92v5.55h2.69v-2.18l1.4,2.18h3.09l-1.94-2.69
		C337.46,241.17,339.15,240.96,339.12,239.37z M335.54,240.25h-0.65v-1.1h0.61c0.37,0,0.72,0.1,0.75,0.51
		C336.28,240.04,335.94,240.25,335.54,240.25z"/>
	<path fill="#020203" d="M352.92,220.43c-0.17-0.3-0.42-0.54-0.73-0.72c-0.3-0.17-0.63-0.26-0.99-0.26c-0.35,0-0.68,0.09-0.98,0.26
		c-0.31,0.17-0.56,0.42-0.73,0.72c-0.17,0.31-0.26,0.65-0.26,0.99s0.09,0.68,0.26,0.99c0.17,0.3,0.42,0.54,0.73,0.72
		c0.3,0.17,0.63,0.26,0.98,0.26c0.37,0,0.7-0.09,0.99-0.26c0.31-0.17,0.56-0.42,0.73-0.72c0.17-0.31,0.26-0.65,0.26-0.99
		S353.09,220.74,352.92,220.43z M352.32,222.56c-0.31,0.31-0.7,0.47-1.13,0.47s-0.82-0.16-1.13-0.47c-0.31-0.31-0.47-0.7-0.47-1.13
		s0.16-0.82,0.47-1.13c0.31-0.31,0.7-0.47,1.13-0.47s0.82,0.16,1.13,0.47c0.31,0.31,0.47,0.7,0.47,1.13S352.64,222.24,352.32,222.56
		z"/>
	<path fill="#020203" d="M325.79,237.18c-2.25,0-4.1,1.54-4.12,3.42c-0.03,1.9,1.81,3.49,4.06,3.51c2.3,0.05,4.24-1.4,4.24-3.47
		C329.98,238.73,328.08,237.18,325.79,237.18z M325.84,241.92c-0.84,0-1.34-0.59-1.38-1.26c-0.02-0.68,0.52-1.31,1.34-1.34
		c0.82-0.02,1.31,0.61,1.33,1.26C327.17,241.24,326.68,241.9,325.84,241.92z"/>
	<polygon fill="#020203" points="301.2,220.01 301.18,220.01 299.17,227.43 297.13,220.01 291.85,220.01 289.72,227.55 
		287.87,220.01 280.56,220.01 282.67,222.12 286.53,234.54 292.3,234.54 294.48,227.43 296.63,234.54 302.57,234.54 307.23,220.01 	
		"/>
	<path fill="#020203" d="M313.83,240.58c0.03,1.88,1.78,3.4,4.08,3.44c0.92,0.02,1.87-0.28,1.9-0.3v-2.27
		c-0.16,0.14-0.84,0.37-1.43,0.38c-0.94,0.03-1.64-0.61-1.62-1.36c0.03-0.8,0.75-1.27,1.62-1.26c0.42,0,1.08,0.07,1.43,0.3v-2.16
		c-0.63-0.23-1.24-0.3-1.74-0.3C315.61,237.11,313.79,238.66,313.83,240.58z"/>
	<path fill="#020203" d="M274.02,221.84c-4.4,0.02-7.99,2.91-8.04,6.47c-0.05,3.59,3.54,6.58,7.95,6.63
		c4.48,0.07,8.23-2.65,8.23-6.58C282.16,224.77,278.45,221.83,274.02,221.84z M274.11,230.79c-1.62,0.03-2.62-1.1-2.67-2.35
		c-0.05-1.27,1.01-2.48,2.62-2.53c1.59-0.03,2.55,1.15,2.58,2.37C276.7,229.54,275.75,230.76,274.11,230.79z"/>
	<polygon fill="#020203" points="309.76,222.28 304.63,234.49 310.18,234.49 312.59,227.36 314.85,234.49 320.49,234.49 
		315.62,222.28 	"/>
</g>
<g>
	<path d="M554.47,222.1c-6.39-3.3-14.53-4.72-22.94-3.44c-10.13,1.55-18.34,6.89-23.71,13.71V226h-2.03v9.25
		c-0.4,0.62-0.77,1.25-1.12,1.89c0.01-0.11,0.03-0.21,0.03-0.32c0-1.61-0.93-3-2.16-3.65c1.22-0.6,2.01-1.9,2.01-3.4
		c0-2.07-1.49-3.76-3.94-3.76c-3.25,0-5.91,0-9.16,0v14.84c3.25,0,6.35,0,9.6,0c0.84,0,1.61-0.34,2.24-0.89
		c-1.36,3.17-2.18,6.45-2.37,9.69c-0.02,0.38,0.7,0.32,0.7,0c0.48-4.77,2-8.99,4.25-12.63c0.5,3.27,3.65,4.26,6.57,4.26
		c3.2,0,6.72-1.11,6.72-5.2V226h-1.79c3.12-1.82,6.5-3.18,9.94-4.04c8.11-2.04,16.77-0.8,23.69,3
		C551.49,223.44,552.84,222.29,554.47,222.1z M493.48,227.55L493.48,227.55l6.57,0c1.96,0,2.33,1.11,2.33,2.48
		c0,1.26-0.81,2.43-2.62,2.43h-6.27V227.55z M500.1,239.29h-6.61v-5.2v0h6.61c1.59,0,2.35,1.24,2.35,2.58
		C502.45,238.11,501.9,239.29,500.1,239.29z M517.13,235.86c0,2.85-2.46,3.66-4.69,3.66c-2.21,0-4.62-0.85-4.62-3.66v-1.64
		c2.57-3.27,5.77-5.97,9.31-8.07V235.86z"/>
	<circle cx="554.82" cy="226.09" r="3.06"/>
	<polygon points="574.1,226 573.74,227.17 573.38,226 572.83,226 572.83,227.54 573.18,227.54 573.18,226.3 573.55,227.54 
		573.94,227.54 574.3,226.3 574.3,227.54 574.65,227.54 574.65,226 	"/>
	<polygon points="571.18,226.27 571.71,226.27 571.71,227.54 572.08,227.54 572.08,226.27 572.62,226.27 572.62,226 571.18,226 	"/>
	<path d="M543.51,225.32c-4.99,0-8.48,3.64-8.48,8.1s4.07,8.1,9.07,8.1c2.74,0,5.21-1.1,6.87-2.82v-0.08v-5.53h-5.66v2.06h3.63v2.63
		c-1.24,1.1-2.95,1.79-4.84,1.79c-3.78,0-6.87-2.76-6.87-6.13c0-3.38,2.49-6.13,6.28-6.13c2.73,0,4.1,1.43,5.19,3.5h2.27h0.1
		C549.85,227.61,547.47,225.32,543.51,225.32z"/>
	<polygon points="531.87,238.66 524.18,226 520.65,226 520.65,240.84 522.68,240.84 522.68,227.85 530.57,240.84 533.9,240.84 
		533.9,226 531.87,226 	"/>
	<rect x="554.15" y="230" width="2.03" height="10.84"/>
	<polygon points="559.01,240.84 570.54,240.84 570.54,239.29 561.04,239.29 561.04,234.05 570.38,234.05 570.38,232.5 561.04,232.5 
		561.04,227.55 570.54,227.55 570.54,226 559.01,226 	"/>
</g>
<g>
	<path fill="#1E1E1C" d="M742.98,224.96c-0.71,0.04-1.43,0.01-2.14,0.01c-1.35,0-1.35,0-1.8,1.28c-0.87,2.47-1.74,4.95-2.68,7.64
		c-1.03-2.93-1.99-5.66-2.93-8.4c-0.13-0.37-0.27-0.55-0.71-0.53c-0.98,0.04-1.97,0.04-2.96,0c-0.47-0.02-0.63,0.09-0.63,0.6
		c0.02,3.99,0.02,7.99,0,11.98c0,0.44,0.09,0.62,0.57,0.59c0.71-0.04,1.43-0.04,2.14,0c0.5,0.03,0.62-0.15,0.61-0.63
		c-0.03-1.92-0.01-3.84,0-5.77c0-0.13-0.13-0.33,0.1-0.42c0.03,0.02,0.07,0.03,0.07,0.05c0.53,1.56,1.05,3.12,1.6,4.67
		c0.24,0.69,0.25,1.66,0.81,1.98c0.55,0.32,1.44,0.06,2.17,0.11c0.46,0.03,0.64-0.15,0.77-0.56c0.63-1.91,1.29-3.82,1.94-5.72
		c0.06-0.17,0.03-0.4,0.32-0.47c0,2.06,0.02,4.1-0.01,6.14c-0.01,0.49,0.14,0.64,0.62,0.61c0.69-0.04,1.38-0.04,2.07,0
		c0.46,0.02,0.64-0.08,0.64-0.6c-0.02-3.99-0.02-7.99,0-11.98C743.54,225.12,743.46,224.93,742.98,224.96z"/>
	<path fill="#1E1E1C" d="M758.45,224.96c-0.71,0.03-1.43,0.04-2.14,0c-0.48-0.03-0.63,0.11-0.62,0.61c0.03,2.17,0.01,4.33,0.01,6.5
		c-0.05,0.03-0.09,0.05-0.14,0.08c-0.15-0.22-0.29-0.43-0.44-0.65c-1.33-2.02-2.66-4.03-3.97-6.05c-0.22-0.34-0.44-0.51-0.88-0.49
		c-0.89,0.04-1.77,0.01-2.66,0.01c-0.77,0-0.81,0.05-0.36,0.71c0.48,0.7,0.64,1.43,0.63,2.28c-0.04,3.18-0.01,6.36-0.03,9.54
		c0,0.46,0.09,0.66,0.6,0.63c0.71-0.05,1.43-0.04,2.14,0c0.47,0.03,0.57-0.14,0.57-0.59c-0.02-1.65-0.01-3.3-0.01-4.95
		c0-0.3,0-0.61,0-1.12c1.11,1.63,2.08,3.07,3.08,4.5c0.5,0.72,0.81,1.76,1.57,2.07c0.76,0.31,1.75,0.08,2.63,0.08
		c0.02,0,0.05,0,0.07,0c0.41,0.06,0.49-0.14,0.48-0.51c-0.01-4.04-0.01-8.08,0-12.13C759.01,225.04,758.85,224.95,758.45,224.96z"/>
	<path fill="#1E1E1C" d="M694.12,224.97c-0.74,0.02-1.48,0.04-2.22,0c-0.54-0.04-0.64,0.16-0.64,0.66c0.03,2.16,0.01,4.33,0.01,6.72
		c-0.24-0.35-0.35-0.5-0.45-0.66c-1.37-2.08-2.73-4.15-4.1-6.23c-0.18-0.27-0.33-0.5-0.74-0.49c-1.01,0.03-2.02,0.02-3.03,0.01
		c-0.48-0.01-0.53,0.18-0.26,0.5c0.74,0.88,0.76,1.91,0.75,2.98c-0.03,3,0,6.01-0.02,9.02c0,0.5,0.1,0.7,0.64,0.67
		c0.71-0.05,1.43-0.04,2.14,0c0.43,0.02,0.54-0.13,0.54-0.54c-0.02-1.75-0.01-3.5,0-5.25c0-0.2-0.1-0.44,0.16-0.65
		c0.97,1.43,1.93,2.85,2.91,4.27c0.49,0.71,0.85,1.69,1.52,2.03c0.71,0.36,1.73,0.11,2.61,0.13c0.05,0,0.1-0.01,0.15,0
		c0.4,0.06,0.49-0.14,0.49-0.51c-0.01-4.06-0.01-8.13,0-12.19C694.58,225.05,694.46,224.95,694.12,224.97z"/>
	<path fill="#1E1E1C" d="M773.37,236.91c0.38-1.16,0.38-1.16,1.59-1.16c0.32,0,0.64,0,0.96,0c0.74,0.01,1.62-0.21,2.16,0.12
		c0.46,0.28,0.52,1.2,0.75,1.84c0.09,0.25,0.19,0.42,0.51,0.41c1.08-0.02,2.16-0.01,3.27-0.01c-0.03-0.15-0.04-0.25-0.07-0.34
		c-1.53-4.14-3.06-8.29-4.57-12.43c-0.12-0.33-0.31-0.38-0.6-0.38c-0.91,0.01-1.82,0.03-2.73-0.01c-0.39-0.01-0.55,0.13-0.68,0.48
		c-0.61,1.71-1.26,3.41-1.88,5.11c-0.91,2.48-1.82,4.96-2.75,7.51c0.14,0.03,0.19,0.05,0.24,0.05c0.71,0,1.43,0,2.14,0
		C772.97,238.12,772.97,238.12,773.37,236.91z M775.41,230.96c0.16-0.49,0.33-0.98,0.55-1.66c0.38,1.1,0.69,2.02,1.01,2.94
		c0.09,0.24-0.01,0.31-0.23,0.3c-0.02,0-0.05,0-0.07,0C774.83,232.72,774.83,232.72,775.41,230.96z"/>
	<path fill="#1E1E1C" d="M704.55,230.64c-0.71-0.45-1.45-0.84-2.15-1.28c-0.29-0.18-0.56-0.45-0.46-0.85
		c0.1-0.42,0.44-0.57,0.83-0.61c0.24-0.03,0.49-0.04,0.73-0.02c0.87,0.05,1.65,0.42,2.53,0.81c0-1.03-0.02-1.96,0.01-2.9
		c0.01-0.4-0.15-0.56-0.5-0.67c-1.15-0.36-2.32-0.43-3.51-0.28c-1.94,0.25-3.19,1.34-3.55,3.04c-0.41,1.89,0.24,3.41,1.94,4.47
		c0.71,0.44,1.45,0.83,2.17,1.26c0.36,0.22,0.71,0.48,0.57,1c-0.14,0.5-0.56,0.57-0.99,0.59c-0.44,0.02-0.88-0.04-1.31-0.13
		c-0.72-0.16-1.35-0.53-2.08-0.88c0,1.11,0.01,2.14-0.01,3.17c-0.01,0.38,0.23,0.42,0.5,0.51c1.09,0.35,2.21,0.47,3.35,0.42
		c2.69-0.11,4.31-1.94,4.06-4.62C706.53,232.27,705.67,231.35,704.55,230.64z"/>
	<path fill="#1E1E1C" d="M793.66,237.6c0-1.14,0-2.27,0-3.47c-2.17,1.3-4.09,1.16-5.33-0.3c-1.09-1.29-1.06-3.33,0.06-4.62
		c1.22-1.41,3.15-1.51,5.28-0.2c0-1.13-0.02-2.16,0.01-3.18c0.01-0.43-0.15-0.6-0.54-0.72c-0.89-0.27-1.78-0.37-2.7-0.3
		c-2.78,0.21-4.82,1.57-5.82,4.18c-1.03,2.7-0.62,5.27,1.45,7.37c2.01,2.04,4.49,2.36,7.17,1.59
		C793.41,237.89,793.66,237.87,793.66,237.6z"/>
	<path fill="#1E1E1C" d="M766.05,224.96c-0.76,0.03-1.53,0.02-2.29,0c-0.33-0.01-0.48,0.04-0.48,0.43c0.01,4.09,0.01,8.17,0,12.26
		c0,0.35,0.09,0.48,0.46,0.47c0.76-0.02,1.53-0.04,2.29,0c0.48,0.03,0.56-0.16,0.56-0.59c-0.02-1.97-0.01-3.94-0.01-5.91
		c0-2.04-0.01-4.09,0.01-6.13C766.59,225.08,766.47,224.95,766.05,224.96z"/>
	<path fill="#1E1E1C" d="M679.01,231.63c0-2.04-0.01-4.08,0.01-6.13c0-0.42-0.11-0.55-0.53-0.53c-0.76,0.03-1.53,0.02-2.29,0
		c-0.33-0.01-0.48,0.06-0.48,0.44c0.01,4.08,0.01,8.17,0,12.25c0,0.35,0.09,0.48,0.45,0.47c0.66-0.03,1.33-0.05,1.99,0.01
		c0.64,0.05,0.88-0.11,0.86-0.82C678.98,235.42,679.01,233.52,679.01,231.63z"/>
	<path fill="#1E1E1C" d="M785.64,241.39c-0.42,0.04-1-0.31-1.21,0.44c-0.22,0.77-0.53,1.51-0.79,2.27c-0.05,0-0.1-0.01-0.16-0.01
		c-0.27-0.78-0.54-1.57-0.82-2.35c-0.24-0.66-0.8-0.3-1.21-0.34c-0.47-0.05-0.27,0.38-0.28,0.59c-0.02,1.06,0.01,2.12-0.02,3.18
		c-0.01,0.41,0.04,0.62,0.54,0.62c0.47,0,0.59-0.15,0.57-0.59c-0.02-0.39-0.08-0.81,0.11-1.4c0.23,0.63,0.42,1.07,0.54,1.52
		c0.09,0.36,0.29,0.46,0.63,0.46c0.34,0,0.52-0.1,0.64-0.45c0.19-0.53,0.27-1.12,0.67-1.68c0,0.62,0.03,1.14-0.01,1.66
		c-0.03,0.43,0.18,0.47,0.53,0.47c0.37,0,0.6-0.02,0.58-0.5c-0.03-1.08,0-2.17-0.02-3.25C785.94,241.8,786.19,241.34,785.64,241.39z
		"/>
	<path fill="#1E1E1C" d="M774.27,242.99c-0.1,0-0.21-0.03-0.29,0c-0.26,0.09-0.72-0.29-0.78,0.35c-0.04,0.52,0.13,0.73,0.65,0.65
		c0.09-0.01,0.2,0,0.22,0.13c0.03,0.14-0.06,0.23-0.15,0.32c-0.28,0.25-0.6,0.31-0.96,0.22c-0.43-0.1-0.67-0.4-0.77-0.81
		c-0.24-0.97,0.55-1.69,1.64-1.38c0.71,0.2,0.65-0.13,0.65-0.59c-0.01-0.32-0.09-0.49-0.45-0.53c-0.47-0.05-0.93-0.09-1.39,0.02
		c-1.01,0.25-1.71,1.26-1.63,2.34c0.09,1.15,0.91,2.01,2.01,2.09c1.14,0.08,2.04-0.54,2.27-1.56
		C775.51,243.15,775.39,242.99,774.27,242.99z"/>
	<path fill="#1E1E1C" d="M778.85,241.88c-0.16-0.52-0.48-0.49-0.88-0.52c-0.45-0.03-0.64,0.15-0.78,0.55
		c-0.35,1.02-0.74,2.02-1.1,3.04c-0.09,0.24-0.36,0.56-0.16,0.73c0.18,0.15,0.56,0.06,0.85,0.08c0.31,0.01,0.33-0.25,0.39-0.45
		c0.07-0.2,0.14-0.39,0.39-0.36c0.52,0.06,1.22-0.32,1.4,0.6c0.07,0.34,0.41,0.15,0.49,0.18c0.76,0.14,0.79-0.09,0.58-0.61
		C779.6,244.06,779.19,242.98,778.85,241.88z M778.3,243.81c-0.02,0.16-0.36,0.09-0.59,0.02c0.09-0.28,0.17-0.55,0.27-0.86
		C778.23,243.23,778.34,243.54,778.3,243.81z"/>
	<path fill="#1E1E1C" d="M789.35,244.68c-0.2,0.02-0.39,0-0.59,0c-0.18,0-0.26-0.11-0.26-0.28c0-0.16,0.04-0.3,0.22-0.32
		c0.17-0.01,0.35-0.02,0.52-0.01c0.4,0.04,0.62-0.02,0.62-0.53c0-0.51-0.21-0.58-0.62-0.53c-0.12,0.01-0.25,0-0.37,0
		c-0.21,0-0.4,0.01-0.38-0.29c0.01-0.3,0.21-0.28,0.41-0.28c0.22,0,0.44-0.02,0.66,0c0.44,0.04,0.4-0.24,0.39-0.52
		c-0.01-0.25,0.1-0.51-0.36-0.55c-2.21-0.21-2.21-0.23-2.21,1.95c0,0.07,0,0.15,0,0.22c0,0.12-0.01,0.25,0,0.37
		c0.05,0.6-0.28,1.43,0.14,1.75c0.39,0.3,1.17,0.08,1.78,0.12c0.42,0.02,0.67-0.02,0.67-0.57
		C789.97,244.69,789.74,244.64,789.35,244.68z"/>
	<path fill="#1E1E1C" d="M792.95,243.12c-0.08-0.05-0.17-0.09-0.25-0.15c-0.16-0.11-0.41-0.19-0.32-0.42
		c0.09-0.26,0.35-0.21,0.57-0.17c0.12,0.02,0.25,0.03,0.36,0.09c0.32,0.17,0.36,0.03,0.38-0.26c0.06-0.8-0.32-1.04-1.37-0.86
		c-0.63,0.11-1.04,0.43-1.16,1.06c-0.11,0.59,0.1,1.06,0.6,1.39c0.23,0.15,0.46,0.27,0.69,0.42c0.14,0.09,0.33,0.17,0.24,0.39
		c-0.08,0.2-0.28,0.21-0.44,0.18c-0.31-0.06-0.61-0.16-1.03-0.27c0.15,0.42-0.24,0.89,0.24,1.17c0.71,0.41,1.9,0.12,2.26-0.5
		C794.17,244.42,793.89,243.68,792.95,243.12z"/>
	<path fill="#1E1E1C" d="M716.83,222.95c3.73,1.28,5.98,3.84,6.05,7.78c0.07,4.11-2.21,6.79-6.09,8.15
		c1.87,0.73,5.96-0.35,7.98-3.33c2.13-3.15,1.83-7.5-0.73-10.24C722.01,223.14,718.4,222.21,716.83,222.95z"/>
	<path fill="#1E1E1C" d="M713.07,230.91c0-2.14,1.15-3.6,3.04-4.63c-1.85-0.72-4.06-0.01-5.31,1.59c-1.32,1.69-1.38,4.09-0.14,5.86
		c1.2,1.71,3.39,2.48,5.51,1.8C714.22,234.5,713.07,233.04,713.07,230.91z"/>
</g>
</svg>
