<?xml version="1.0" encoding="utf-8"?>
<!-- Generator: Adobe Illustrator 21.0.2, SVG Export Plug-In . SVG Version: 6.00 Build 0)  -->
<svg version="1.1" id="Layer_1" xmlns="http://www.w3.org/2000/svg" xmlns:xlink="http://www.w3.org/1999/xlink" x="0px" y="0px"
	 viewBox="0 0 190.09 237.1" enable-background="new 0 0 190.09 237.1" xml:space="preserve">
<g>
	<radialGradient id="SVGID_1_" cx="93.8036" cy="82.9778" r="75.2419" gradientUnits="userSpaceOnUse">
		<stop  offset="0" style="stop-color:#C8FF00"/>
		<stop  offset="1" style="stop-color:#C8FF00;stop-opacity:0"/>
	</radialGradient>
	<circle fill-rule="evenodd" clip-rule="evenodd" fill="url(#SVGID_1_)" cx="93.8" cy="82.98" r="82.98"/>
	<g>
		<path fill-rule="evenodd" clip-rule="evenodd" fill="#6516B5" d="M189.98,207.2c-0.44-3.23-2.16-5.99-4.57-7.84
			c-1.68-1.6-3.83-2.72-6.28-3.11l-56.67-9.12l0.03-0.22l36.81-24.41c3.78-2.65,5.02-7.61,3.17-11.67
			c-0.21-0.85-0.55-1.68-1.03-2.46l-32.65-47.07c-0.57-0.97-1.19-1.88-1.87-2.7c-0.9-1.46-2.18-2.57-3.62-3.27
			c-1.92-1.25-4.07-1.96-6.34-1.98l-44.51-0.4c-2.62-0.02-5.05,0.88-7.14,2.48c-1.38,0.71-2.58,1.78-3.45,3.19l-34.51,49.75
			c-0.48,0.78-0.82,1.61-1.03,2.46c-1.85,4.06-0.61,9.02,3.17,11.67l37.34,24.76l-55.85,8.99c-2.45,0.39-4.6,1.52-6.28,3.11
			c-2.41,1.85-4.13,4.61-4.57,7.84c-0.89,6.51,3.71,12.57,10.22,13.46l34.17,4.67l-11.6,6.41c9.05,6.15,20.67,7.07,30.57,2.42
			l9.96-4.68l-0.15-0.21l19.52,2.67c0.76,0.1,1.51,0.13,2.25,0.09c0.74,0.04,1.49,0.02,2.25-0.09l19.52-2.67l-0.15,0.21l9.96,4.68
			c9.9,4.65,21.53,3.74,30.57-2.42l-11.6-6.41l34.17-4.67C186.27,219.76,190.87,213.71,189.98,207.2z M125.88,162.11l3.69-27.03
			l11.88,16.83L125.88,162.11z M60.5,133.25l4.11,29.99l-17.28-11.32L60.5,133.25z"/>
		<path fill-rule="evenodd" clip-rule="evenodd" fill="#6516B5" d="M78.64,70.71c1.72,6.7,7.78,11.66,15.01,11.66
			c7.24,0,13.31-4.97,15.02-11.68c2.27-0.23,4.06-2.13,4.06-4.47c0-2.15-1.5-3.93-3.5-4.39l0-10.09c0-8.56-6.94-15.5-15.5-15.5
			c-8.56,0-15.5,6.94-15.5,15.5l0,10.03c-2.19,0.31-3.88,2.18-3.88,4.45C74.35,68.63,76.25,70.59,78.64,70.71z"/>
	</g>
</g>
</svg>
