<?xml version="1.0" encoding="utf-8"?>
<!-- Generator: Adobe Illustrator 21.0.2, SVG Export Plug-In . SVG Version: 6.00 Build 0)  -->
<svg version="1.1" id="Layer_1" xmlns="http://www.w3.org/2000/svg" xmlns:xlink="http://www.w3.org/1999/xlink" x="0px" y="0px"
	 viewBox="0 0 475.53 330.28" enable-background="new 0 0 475.53 330.28" xml:space="preserve">
<g>
	<linearGradient id="SVGID_1_" gradientUnits="userSpaceOnUse" x1="-6.1117" y1="276.3438" x2="247.5859" y2="79.3385">
		<stop  offset="0" style="stop-color:#FFFFFF"/>
		<stop  offset="0.1284" style="stop-color:#F8FFDF"/>
		<stop  offset="0.3255" style="stop-color:#EFFFB3"/>
		<stop  offset="0.5164" style="stop-color:#E7FF91"/>
		<stop  offset="0.6969" style="stop-color:#E2FF79"/>
		<stop  offset="0.8627" style="stop-color:#DFFF6A"/>
		<stop  offset="1" style="stop-color:#DEFF65"/>
	</linearGradient>
	<path fill-rule="evenodd" clip-rule="evenodd" fill="url(#SVGID_1_)" d="M247.57,77.99L247.57,77.99
		c7.28,9.62,5.54,23.28-3.92,30.77L15.66,289.23c-4.22,3.34-10.35,2.59-13.64-1.67l0,0c-3.04-3.93-2.6-9.53,1.02-12.94L214.68,75.23
		C224.28,66.19,239.61,67.47,247.57,77.99z"/>
	<linearGradient id="SVGID_2_" gradientUnits="userSpaceOnUse" x1="84.7617" y1="261.901" x2="275.1807" y2="114.0338">
		<stop  offset="0" style="stop-color:#C8FF00"/>
		<stop  offset="0.1398" style="stop-color:#CDFF17"/>
		<stop  offset="0.382" style="stop-color:#D4FF39"/>
		<stop  offset="0.6126" style="stop-color:#DAFF51"/>
		<stop  offset="0.8244" style="stop-color:#DDFF60"/>
		<stop  offset="1" style="stop-color:#DEFF65"/>
	</linearGradient>
	<path fill-rule="evenodd" clip-rule="evenodd" fill="url(#SVGID_2_)" d="M102.94,247.93L210.6,79.72
		c6.15-9.61,18.44-13.23,28.82-8.48l0,0c11.66,5.34,16.67,19.21,11.11,30.76l-86.64,179.94c-8.66,17.98-30.58,25.08-48.13,15.58l0,0
		C97.89,287.86,91.99,265.05,102.94,247.93z"/>
	<linearGradient id="SVGID_3_" gradientUnits="userSpaceOnUse" x1="108.0688" y1="291.1341" x2="465.4182" y2="13.6392">
		<stop  offset="0" style="stop-color:#C8FF00"/>
		<stop  offset="0.1534" style="stop-color:#AFC52D"/>
		<stop  offset="0.313" style="stop-color:#999056"/>
		<stop  offset="0.4697" style="stop-color:#866478"/>
		<stop  offset="0.6199" style="stop-color:#784293"/>
		<stop  offset="0.7618" style="stop-color:#6D2AA6"/>
		<stop  offset="0.8921" style="stop-color:#671BB1"/>
		<stop  offset="1" style="stop-color:#6516B5"/>
	</linearGradient>
	<path fill-rule="evenodd" clip-rule="evenodd" fill="url(#SVGID_3_)" d="M460.62,67.76L158.87,296.79
		c-16.59,12.59-40.25,9.35-52.85-7.24l0,0c-12.59-16.59-9.35-40.25,7.24-52.85L415.01,7.68c16.59-12.59,40.25-9.35,52.85,7.24l0,0
		C480.45,31.51,477.21,55.17,460.62,67.76z"/>
	<g>
		<linearGradient id="SVGID_4_" gradientUnits="userSpaceOnUse" x1="422.7948" y1="101.3459" x2="436.2948" y2="109.0125">
			<stop  offset="0" style="stop-color:#C8FF00"/>
			<stop  offset="0.1018" style="stop-color:#AFC52D"/>
			<stop  offset="0.2078" style="stop-color:#999056"/>
			<stop  offset="0.3118" style="stop-color:#866478"/>
			<stop  offset="0.4115" style="stop-color:#784293"/>
			<stop  offset="0.5057" style="stop-color:#6D2AA6"/>
			<stop  offset="0.5922" style="stop-color:#671BB1"/>
			<stop  offset="0.6638" style="stop-color:#6516B5"/>
		</linearGradient>
		<path fill="url(#SVGID_4_)" d="M412.38,103.21l23.17-17.82c0.88-0.68,2.15-0.53,2.84,0.34l0,0c0.71,0.89,0.56,2.18-0.33,2.88
			l-8.61,7.05l4.17-1.68c1.14-0.54,2.47-0.49,3.57,0.14l4.44,2.52c0.86,0.43,1.36,1.35,1.26,2.3l-0.25,2.36l-0.21,1.32
			c-0.22,1.41-1.67,2.28-3.02,1.81l-5.03-1.72l-22.64,17L412.38,103.21z"/>
		<linearGradient id="SVGID_5_" gradientUnits="userSpaceOnUse" x1="348.1808" y1="131.5816" x2="345.4308" y2="159.4983">
			<stop  offset="0" style="stop-color:#C8FF00"/>
			<stop  offset="0.1018" style="stop-color:#AFC52D"/>
			<stop  offset="0.2078" style="stop-color:#999056"/>
			<stop  offset="0.3118" style="stop-color:#866478"/>
			<stop  offset="0.4115" style="stop-color:#784293"/>
			<stop  offset="0.5057" style="stop-color:#6D2AA6"/>
			<stop  offset="0.5922" style="stop-color:#671BB1"/>
			<stop  offset="0.6638" style="stop-color:#6516B5"/>
		</linearGradient>
		<path fill-rule="evenodd" clip-rule="evenodd" fill="url(#SVGID_5_)" d="M308.98,143.57l0.03,2.82c0.05,4.96,4.14,8.98,9.1,8.93
			l55.48-0.52c4.96-0.05,11.28-4.14,11.23-9.1l-0.03-2.82c-0.05-4.96-6.45-8.98-11.41-8.93h-55.48
			C312.95,134,308.94,138.61,308.98,143.57z"/>
		<linearGradient id="SVGID_6_" gradientUnits="userSpaceOnUse" x1="389.5926" y1="120.7446" x2="400.9259" y2="140.2446">
			<stop  offset="0" style="stop-color:#C8FF00"/>
			<stop  offset="0.1018" style="stop-color:#AFC52D"/>
			<stop  offset="0.2078" style="stop-color:#999056"/>
			<stop  offset="0.3118" style="stop-color:#866478"/>
			<stop  offset="0.4115" style="stop-color:#784293"/>
			<stop  offset="0.5057" style="stop-color:#6D2AA6"/>
			<stop  offset="0.5922" style="stop-color:#671BB1"/>
			<stop  offset="0.6638" style="stop-color:#6516B5"/>
		</linearGradient>
		<path fill-rule="evenodd" clip-rule="evenodd" fill="url(#SVGID_6_)" d="M422.41,119.94l-5.23-20.41l-48.16,37.38
			c-4.28,3.21-5.16,9.34-1.95,13.62v0c3.21,4.28,9.34,5.16,13.62,1.95L422.41,119.94z"/>
		<path fill-rule="evenodd" clip-rule="evenodd" fill="#C8FF00" d="M334.45,133.95l-13.38,33.46h9.18
			c10.51,0,29.45-18.04,34.81-33.15v-0.31H334.45z"/>
		<path fill-rule="evenodd" clip-rule="evenodd" fill="#6516B5" d="M298.28,321.46l1.76-0.45c6.07-1.56,9.76-7.81,8.2-13.88
			l-22.81-88.61c-1.56-6.07-7.81-9.76-13.88-8.2l-1.76,0.45c-6.07,1.56-9.76,7.81-8.2,13.88l22.81,88.61
			C285.96,319.34,292.21,323.02,298.28,321.46z"/>
		<g>
			<path fill-rule="evenodd" clip-rule="evenodd" fill="#6516B5" d="M219.26,261.75l-37.38-17.09l-32.46,22.22l1.75,2.45
				c4.14,5.78,11.91,7.61,18.19,4.3l7.05-4.02c6.65-3.29,11.91-2.19,19.87,1.45C201.24,273.32,219.26,261.75,219.26,261.75z"/>
			<path fill-rule="evenodd" clip-rule="evenodd" fill="#6516B5" d="M151.68,271.12l33.69-23.97c1.92-1.37,1.64-4.3-0.5-5.28l0,0
				c-0.99-0.45-2.15-0.35-3.04,0.28L148.06,266c-1.38,0.98-1.71,2.89-0.73,4.27l0.09,0.12C148.39,271.77,150.31,272.1,151.68,271.12
				z"/>
			
				<linearGradient id="SVGID_7_" gradientUnits="userSpaceOnUse" x1="2701.0374" y1="-476.8653" x2="2716.0833" y2="-465.9768" gradientTransform="matrix(-0.7581 0.6522 0.6522 0.7581 2610.4167 -1124.8173)">
				<stop  offset="0" style="stop-color:#C8FF00"/>
				<stop  offset="0.1018" style="stop-color:#AFC52D"/>
				<stop  offset="0.2078" style="stop-color:#999056"/>
				<stop  offset="0.3118" style="stop-color:#866478"/>
				<stop  offset="0.4115" style="stop-color:#784293"/>
				<stop  offset="0.5057" style="stop-color:#6D2AA6"/>
				<stop  offset="0.5922" style="stop-color:#671BB1"/>
				<stop  offset="0.6638" style="stop-color:#6516B5"/>
			</linearGradient>
			<path fill-rule="evenodd" clip-rule="evenodd" fill="url(#SVGID_7_)" d="M305.23,315.12L305.23,315.12
				c2.85-6.14,0.15-13.49-5.99-16.34l-87.73-40.95l-22.56,16.75l99.94,46.54C295.03,323.95,302.38,321.26,305.23,315.12z"/>
		</g>
		<g>
			<linearGradient id="SVGID_8_" gradientUnits="userSpaceOnUse" x1="292.1271" y1="264.4204" x2="289.1271" y2="324.9204">
				<stop  offset="0" style="stop-color:#C8FF00"/>
				<stop  offset="0.1018" style="stop-color:#AFC52D"/>
				<stop  offset="0.2078" style="stop-color:#999056"/>
				<stop  offset="0.3118" style="stop-color:#866478"/>
				<stop  offset="0.4115" style="stop-color:#784293"/>
				<stop  offset="0.5057" style="stop-color:#6D2AA6"/>
				<stop  offset="0.5922" style="stop-color:#671BB1"/>
				<stop  offset="0.6638" style="stop-color:#6516B5"/>
			</linearGradient>
			<path fill-rule="evenodd" clip-rule="evenodd" fill="url(#SVGID_8_)" d="M304.99,261.63l-31.27,26.56l6.86,38.73l2.95-0.59
				c6.97-1.39,11.84-7.71,11.41-14.8l-0.75-8.07c-0.26-7.41,6.52-16.07,13.13-21.83C311.44,278.04,304.99,261.63,304.99,261.63z"/>
			
				<linearGradient id="SVGID_9_" gradientUnits="userSpaceOnUse" x1="2560.0818" y1="6396.9712" x2="2587.5359" y2="6433.5767" gradientTransform="matrix(-0.6668 0.7452 0.7452 0.6668 -2785.981 -5888.9731)">
				<stop  offset="0" style="stop-color:#C8FF00"/>
				<stop  offset="0.1018" style="stop-color:#AFC52D"/>
				<stop  offset="0.2078" style="stop-color:#999056"/>
				<stop  offset="0.3118" style="stop-color:#866478"/>
				<stop  offset="0.4115" style="stop-color:#784293"/>
				<stop  offset="0.5057" style="stop-color:#6D2AA6"/>
				<stop  offset="0.5922" style="stop-color:#671BB1"/>
				<stop  offset="0.6638" style="stop-color:#6516B5"/>
			</linearGradient>
			<path fill-rule="evenodd" clip-rule="evenodd" fill="url(#SVGID_9_)" d="M285.39,326.6l-7.95-40.58
				c-0.45-2.31-3.24-3.27-5.01-1.72l0,0c-0.82,0.72-1.2,1.81-0.99,2.88l7.8,40.6c0.32,1.66,1.93,2.75,3.59,2.43l0.15-0.03
				C284.63,329.87,285.72,328.26,285.39,326.6z"/>
			
				<linearGradient id="SVGID_10_" gradientUnits="userSpaceOnUse" x1="10025.8037" y1="4546.6587" x2="10040.2549" y2="4557.1162" gradientTransform="matrix(0.2818 0.9595 0.9595 -0.2818 -6858.4165 -8099.3037)">
				<stop  offset="0" style="stop-color:#C8FF00"/>
				<stop  offset="0.1018" style="stop-color:#AFC52D"/>
				<stop  offset="0.2078" style="stop-color:#999056"/>
				<stop  offset="0.3118" style="stop-color:#866478"/>
				<stop  offset="0.4115" style="stop-color:#784293"/>
				<stop  offset="0.5057" style="stop-color:#6D2AA6"/>
				<stop  offset="0.5922" style="stop-color:#671BB1"/>
				<stop  offset="0.6638" style="stop-color:#6516B5"/>
			</linearGradient>
			<path fill-rule="evenodd" clip-rule="evenodd" fill="url(#SVGID_10_)" d="M384.77,207.85L384.77,207.85
				c-4.42-5.12-12.23-5.7-17.35-1.28l-69.47,60.72l5.96,27.45l79.59-69.54C388.61,220.78,389.19,212.97,384.77,207.85z"/>
		</g>
		
			<linearGradient id="SVGID_11_" gradientUnits="userSpaceOnUse" x1="4497.9609" y1="2707.2004" x2="4536.1714" y2="2761.5847" gradientTransform="matrix(-0.8533 0.7595 0.5858 0.6505 2552.9624 -5037.0405)">
			<stop  offset="0" style="stop-color:#C8FF00"/>
			<stop  offset="0.0355" style="stop-color:#C1EE0D"/>
			<stop  offset="0.2015" style="stop-color:#A0A248"/>
			<stop  offset="0.3497" style="stop-color:#876677"/>
			<stop  offset="0.4748" style="stop-color:#753B99"/>
			<stop  offset="0.5719" style="stop-color:#6920AD"/>
			<stop  offset="0.6292" style="stop-color:#6516B5"/>
		</linearGradient>
		<path fill-rule="evenodd" clip-rule="evenodd" fill="url(#SVGID_11_)" d="M287.33,227.63l-5,0.67c-9.05,0.4-17.38,0.19-20.84-6.83
			c-2.18-4.43-2.35-9.58-0.77-14.26l18.69-53.58c0.36-1.08,0.61-2.19,0.8-3.32c1.52-9.26,10.84-16.55,19.95-16.35l29.96,0
			c9.2,0.2,13.69,9,9.42,18.48l-27.19,57.55C306.7,222.5,299.7,227.07,287.33,227.63z"/>
		<g>
			<polygon fill-rule="evenodd" clip-rule="evenodd" fill="#C8FF00" points="364.05,108.9 369.16,119.89 361.15,120.87 			"/>
			
				<linearGradient id="SVGID_12_" gradientUnits="userSpaceOnUse" x1="12206.3369" y1="2741.2678" x2="12171.2588" y2="2741.5291" gradientTransform="matrix(0.9775 -0.211 0.211 0.9775 -12145.3604 8.1521)">
				<stop  offset="0" style="stop-color:#C8FF00"/>
				<stop  offset="0.4706" style="stop-color:#6516B5"/>
			</linearGradient>
			<circle fill-rule="evenodd" clip-rule="evenodd" fill="url(#SVGID_12_)" cx="350.55" cy="114.94" r="14.85"/>
			<path fill-rule="evenodd" clip-rule="evenodd" fill="#6516B5" d="M358.08,112.72l-0.16,0.03c-0.54,0.12-1.07-0.23-1.19-0.77
				l-0.53-2.45c-0.12-0.54,0.23-1.07,0.77-1.19l0.16-0.03c0.54-0.12,1.07,0.23,1.19,0.77l0.53,2.45
				C358.96,112.07,358.62,112.6,358.08,112.72z"/>
			<path fill-rule="evenodd" clip-rule="evenodd" fill="#C8FF00" d="M305.73,88.28h13.35c16.65,0,34.23,1.12,42.54,15.55v0h-76.74
				L305.73,88.28z"/>
			<polygon fill-rule="evenodd" clip-rule="evenodd" fill="#C8FF00" points="343.75,106.51 337.37,121.95 329.65,105.84 			"/>
			<polygon fill-rule="evenodd" clip-rule="evenodd" fill="#6516B5" points="363.38,107.38 330.49,107.38 328.48,103.35 
				361.37,103.35 			"/>
			<path fill="#6516B5" d="M292.53,114.06l1.34-4.03c9.66,0,13.71-1.89,20.22-3.72c5.49-1.54,10.68-3,16.86-3v4.03
				c-5.62,0-10.33,1.32-15.77,2.85C308.72,112.01,302.74,114.06,292.53,114.06z"/>
		</g>
		
			<linearGradient id="SVGID_13_" gradientUnits="userSpaceOnUse" x1="-991.529" y1="-2437.2927" x2="-978.6364" y2="-2405.627" gradientTransform="matrix(0.9387 0.3447 -0.3447 0.9387 361.2211 2770.4399)">
			<stop  offset="0" style="stop-color:#C8FF00"/>
			<stop  offset="0.1018" style="stop-color:#AFC52D"/>
			<stop  offset="0.2078" style="stop-color:#999056"/>
			<stop  offset="0.3118" style="stop-color:#866478"/>
			<stop  offset="0.4115" style="stop-color:#784293"/>
			<stop  offset="0.5057" style="stop-color:#6D2AA6"/>
			<stop  offset="0.5922" style="stop-color:#671BB1"/>
			<stop  offset="0.6638" style="stop-color:#6516B5"/>
		</linearGradient>
		<path fill-rule="evenodd" clip-rule="evenodd" fill="url(#SVGID_13_)" d="M304.19,141.6l-0.56-1.32
			c-1.94-4.56-7.26-6.71-11.82-4.78l-49.23,20.89c-4.56,1.94-6.71,7.26-4.78,11.82l0.56,1.32c1.94,4.56,7.26,6.71,11.82,4.78
			l49.23-20.89C303.98,151.49,306.13,146.17,304.19,141.6z"/>
		<path fill-rule="evenodd" clip-rule="evenodd" fill="#6516B5" d="M198.17,190.63l3.92,15.49l0.2,0.77l1.12,4.42l46.85-37.06
			c4.2-3.32,4.92-9.47,1.6-13.67v0c-3.32-4.2-9.47-4.92-13.67-1.6L198.17,190.63z"/>
		<path fill-rule="evenodd" clip-rule="evenodd" fill="#6516B5" d="M205.79,205.75l-5.48,4.34l0,0c0.33,2.27-0.51,4.56-2.24,6.07
			l-1.95,1.7l-0.69-2.95l-6.12,4.45c-1.49,1.18-3.7,0.43-4.16-1.42l-2.32-9.24c-0.25-1,0.11-2.05,0.92-2.69l19.71-15.59l3.2,14.87
			L205.79,205.75z"/>
		<path fill-rule="evenodd" clip-rule="evenodd" fill="#C8FF00" d="M315.12,126.39l-14.91,33.46h-14.88
			c-17.02,0-27.98-18.04-20.14-33.15l0,0L315.12,126.39z"/>
		<path fill="#C8FF00" d="M305.61,147.81H300l-12.17,26.6h0.02c-3.48,6.09-10.08,9.64-19.44,9.64l-1.75,5.12
			c11.88,0,22.94-5.5,27.31-15.81l-0.05,0L305.61,147.81z"/>
		<linearGradient id="SVGID_14_" gradientUnits="userSpaceOnUse" x1="329.547" y1="197.2017" x2="320.547" y2="229.8683">
			<stop  offset="0" style="stop-color:#C8FF00"/>
			<stop  offset="0.1018" style="stop-color:#AFC52D"/>
			<stop  offset="0.2078" style="stop-color:#999056"/>
			<stop  offset="0.3118" style="stop-color:#866478"/>
			<stop  offset="0.4115" style="stop-color:#784293"/>
			<stop  offset="0.5057" style="stop-color:#6D2AA6"/>
			<stop  offset="0.5922" style="stop-color:#671BB1"/>
			<stop  offset="0.6638" style="stop-color:#6516B5"/>
		</linearGradient>
		<path fill-rule="evenodd" clip-rule="evenodd" fill="url(#SVGID_14_)" d="M387.99,215.48L387.99,215.48
			c-0.01-6.8-5.52-12.3-12.32-12.29l-102.39,0.1c-6.8,0.01-12.3,5.52-12.29,12.32v0c0.01,6.8,5.52,12.3,12.32,12.29l102.39-0.1
			C382.5,227.79,388,222.27,387.99,215.48z"/>
	</g>
</g>
</svg>
