<svg xmlns="http://www.w3.org/2000/svg" xmlns:xlink="http://www.w3.org/1999/xlink" viewBox="0 0 154.8 16.9" id="ubisoft">
<g id="ubisoft_Layer_3">
</g>
<g id="ubisoft_Layer_2">
</g>
<g id="ubisoft_Layer_1">
	<g>
		<path id="ubisoft__x0038_" d="M152.3,0c-1.4,0-2.5,1.1-2.5,2.5s1.1,2.5,2.5,2.5c1.4,0,2.5-1.1,2.5-2.5S153.7,0,152.3,0z M152.3,4.6    c-1.2,0-2.1-0.9-2.1-2.1c0-1.2,0.9-2.1,2.1-2.1c1.2,0,2.1,0.9,2.1,2.1C154.4,3.7,153.5,4.6,152.3,4.6z M153,2.8    c-0.1-0.1-0.2-0.2-0.3-0.2c0.2,0,0.4-0.1,0.5-0.2c0.1-0.1,0.2-0.3,0.2-0.5c0-0.2,0-0.3-0.1-0.4c-0.1-0.1-0.2-0.2-0.3-0.2    c-0.1,0-0.3-0.1-0.6-0.1h-1.1v2.6h0.5V2.6h0.1c0.1,0,0.2,0,0.3,0c0.1,0,0.1,0.1,0.2,0.1c0.1,0.1,0.1,0.2,0.3,0.4l0.4,0.6h0.6    l-0.3-0.5C153.2,3,153.1,2.9,153,2.8z M152.2,2.2h-0.4V1.6h0.4c0.2,0,0.3,0,0.4,0c0.1,0,0.2,0,0.2,0.1c0,0.1,0.1,0.1,0.1,0.2    c0,0.1,0,0.1-0.1,0.2c0,0.1-0.1,0.1-0.1,0.1C152.6,2.2,152.4,2.2,152.2,2.2z"></path>
		<g>
			<path d="M74.7,4.6v0.2h4.6c0-2.1,0.1-4.8-4.9-4.8H59.1v6c0,1.7,0.8,4.5,4.7,4.5h11v0.9c0,1.1-0.1,1.6-2.2,1.6h-8.1     c-0.9,0-0.9-0.8-0.9-0.8v-0.3H59v1.3c0,1.5,0.6,3.7,4.1,3.7h12.1c2.3,0,4.7-0.9,4.7-3.8v-2.8c0-1.7-0.4-3.8-4.2-3.8h-8.6     c-2.5,0-2.9-0.6-2.9-1.7V3.9h9.7C74.2,3.9,74.7,4,74.7,4.6"></path>
			<path d="M15.9,9.6c0,1.1-0.2,1.8-0.6,2.3c-0.4,0.4-1.2,0.7-2.2,0.7H8c-1,0-1.8-0.2-2.2-0.7c-0.4-0.4-0.6-1.2-0.6-2.3V0H0v10.8     c0,2.1,0.6,3.6,1.7,4.6c1.1,1,2.8,1.5,5.2,1.5H21l0-16.9h-5.1V9.6"></path>
			<path d="M43.6,8.2c0.9-0.2,1.5-0.6,1.9-1.1C45.8,6.6,46,5.7,46,4.4c0-1.6-0.5-2.7-1.4-3.4c-1-0.7-2.5-1-4.6-1H25.2v16.9h16.3     c1.6,0,2.9-0.3,3.8-1c0.9-0.6,1.3-2,1.3-3.6c0-1.3-0.2-2.3-0.7-2.9C45.5,8.8,44.7,8.4,43.6,8.2L43.6,8.2z M30.3,3.9h9.1     c1,0,1.5,0.4,1.5,1.3c0,0.5-0.1,0.9-0.4,1.1c-0.2,0.2-0.6,0.3-1.1,0.3h-9.1V3.9z M40.9,12.7c-0.3,0.2-0.8,0.3-1.4,0.3h-9.2v-2.9     h9.2c0.6,0,1.1,0.1,1.4,0.3c0.3,0.2,0.5,0.7,0.5,1.2C41.4,12.1,41.2,12.5,40.9,12.7"></path>
			<rect x="49.9" width="5.1" height="16.9"></rect>
			<polyline points="108.8,16.9 113.9,16.9 113.9,11.4 125.7,11.4 125.7,7.1 113.9,7.1 113.9,4.3 126.2,4.3 126.2,0 108.8,0      108.8,16.9    "></polyline>
			<polyline points="128.2,0 128.2,4.3 135.4,4.3 135.4,16.9 140.5,16.9 140.5,4.3 147.7,4.3 147.7,0 128.2,0    "></polyline>
			<path d="M89.9,0c-3.2,0-4.4,0.5-5.5,1.3c-1.1,0.8-1.8,2.2-1.8,4.5v5c0,2.3,0.6,3.9,1.8,4.8c1.2,0.9,2.8,1.3,5.6,1.3h7.8     c2.8,0,4.2-0.4,5.4-1.2c1.2-0.9,1.8-2.2,1.8-4.8V0H89.9z M99.7,9.4c0,1.4-0.1,2-0.6,2.5c-0.4,0.5-1.2,0.7-2.3,0.7h-6.2     c-1.3,0-2-0.3-2.3-0.7c-0.4-0.4-0.6-1.2-0.6-2.6V7.4c0-1.2,0.2-1.9,0.7-2.4c0.4-0.5,1.3-0.8,2.6-0.8h8.8V9.4"></path>
		</g>
	</g>
</g>
</svg>